<svg width="195" height="60" viewBox="0 0 195 60" fill="none" xmlns="http://www.w3.org/2000/svg">
<g filter="url(#filter0_d_242_106)">
<rect x="1" y="1" width="185" height="48" rx="24" fill="#47EE71" shape-rendering="crispEdges"/>
<rect x="1" y="1" width="185" height="48" rx="24" fill="url(#paint0_linear_242_106)" shape-rendering="crispEdges"/>
<rect x="0.5" y="0.5" width="186" height="49" rx="24.5" stroke="white" stroke-dasharray="6 6" shape-rendering="crispEdges"/>
<path d="M26.64 31V16.7H35.5V18.82H29.3V23.08H34.18V25.14H29.3V31H26.64ZM39.9222 31.2C38.0022 31.2 36.4222 30.28 36.4222 28.1C36.4222 25.66 38.7822 24.78 41.7822 24.78H43.0822V24.24C43.0822 22.84 42.6022 22.14 41.1822 22.14C39.9222 22.14 39.3022 22.74 39.1822 23.78H36.8422C37.0422 21.34 38.9822 20.32 41.3222 20.32C43.6622 20.32 45.5022 21.28 45.5022 24.14V31H43.1222V29.72C42.4422 30.62 41.5222 31.2 39.9222 31.2ZM40.5022 29.46C41.9822 29.46 43.0822 28.68 43.0822 27.34V26.3H41.8422C40.0022 26.3 38.8222 26.72 38.8222 28C38.8222 28.88 39.3022 29.46 40.5022 29.46ZM51.8559 31.2C49.1559 31.2 47.5759 29.96 47.4759 27.74H49.7559C49.8759 28.8 50.4159 29.42 51.8359 29.42C53.1359 29.42 53.7159 28.96 53.7159 28.08C53.7159 27.22 53.0159 26.9 51.4759 26.64C48.7159 26.2 47.6959 25.42 47.6959 23.46C47.6959 21.36 49.6559 20.32 51.6159 20.32C53.7559 20.32 55.4559 21.12 55.7159 23.48H53.4759C53.2759 22.52 52.7359 22.08 51.6159 22.08C50.5759 22.08 49.9559 22.58 49.9559 23.32C49.9559 24.08 50.4559 24.38 52.1159 24.66C54.5759 25.04 56.0359 25.64 56.0359 27.86C56.0359 29.98 54.5359 31.2 51.8559 31.2ZM61.7188 31.18C59.6388 31.18 58.5588 30.06 58.5588 28.08V22.36H57.1588V20.54H58.5588V18.24H60.9788V20.54H63.2788V22.36H60.9788V27.86C60.9788 28.78 61.4188 29.2 62.1788 29.2C62.6588 29.2 63.0188 29.14 63.3588 29V30.92C62.9788 31.06 62.4588 31.18 61.7188 31.18ZM70.5072 31V16.7H75.3072C78.4472 16.7 80.6472 17.98 80.6472 20.9V20.98C80.6472 23.22 79.2472 24.36 77.4672 24.82L81.4872 31H78.6072L74.8672 25.22H73.1672V31H70.5072ZM73.1672 23.32H75.3072C77.0872 23.32 78.0272 22.56 78.0272 21.04V20.96C78.0272 19.32 77.0072 18.76 75.3072 18.76H73.1672V23.32ZM87.6416 31.2C84.5616 31.2 82.3416 29.18 82.3416 25.88V25.72C82.3416 22.48 84.5616 20.32 87.5416 20.32C90.1416 20.32 92.4816 21.86 92.4816 25.6V26.3H84.8216C84.9016 28.28 85.9016 29.4 87.7016 29.4C89.1616 29.4 89.9216 28.82 90.1016 27.8H92.4416C92.1016 30 90.3216 31.2 87.6416 31.2ZM84.8616 24.68H90.0816C89.9616 22.88 89.0416 22.08 87.5416 22.08C86.0816 22.08 85.1016 23.06 84.8616 24.68ZM98.3208 31.2C95.6208 31.2 94.0408 29.96 93.9408 27.74H96.2208C96.3408 28.8 96.8808 29.42 98.3008 29.42C99.6008 29.42 100.181 28.96 100.181 28.08C100.181 27.22 99.4808 26.9 97.9408 26.64C95.1808 26.2 94.1608 25.42 94.1608 23.46C94.1608 21.36 96.1208 20.32 98.0808 20.32C100.221 20.32 101.921 21.12 102.181 23.48H99.9408C99.7408 22.52 99.2008 22.08 98.0808 22.08C97.0408 22.08 96.4208 22.58 96.4208 23.32C96.4208 24.08 96.9208 24.38 98.5808 24.66C101.041 25.04 102.501 25.64 102.501 27.86C102.501 29.98 101.001 31.2 98.3208 31.2ZM104.624 34.58V20.54H107.044V22.22C107.624 21.22 108.924 20.32 110.464 20.32C113.084 20.32 115.104 22.26 115.104 25.64V25.8C115.104 29.16 113.164 31.2 110.464 31.2C108.804 31.2 107.604 30.38 107.044 29.36V34.58H104.624ZM109.864 29.28C111.644 29.28 112.624 28.08 112.624 25.84V25.68C112.624 23.36 111.424 22.22 109.844 22.22C108.164 22.22 106.964 23.36 106.964 25.68V25.84C106.964 28.18 108.104 29.28 109.864 29.28ZM121.94 31.2C118.86 31.2 116.58 29.06 116.58 25.88V25.72C116.58 22.48 118.88 20.32 121.96 20.32C125.02 20.32 127.32 22.46 127.32 25.66V25.82C127.32 29.08 125.02 31.2 121.94 31.2ZM121.96 29.32C123.76 29.32 124.84 27.98 124.84 25.84V25.7C124.84 23.54 123.76 22.22 121.96 22.22C120.16 22.22 119.06 23.52 119.06 25.68V25.84C119.06 27.98 120.12 29.32 121.96 29.32ZM129.506 31V20.54H131.926V22.2C132.426 21.18 133.586 20.32 135.306 20.32C137.406 20.32 138.886 21.54 138.886 24.42V31H136.466V24.64C136.466 23.06 135.826 22.34 134.386 22.34C133.026 22.34 131.926 23.18 131.926 24.84V31H129.506ZM145.254 31.2C142.554 31.2 140.974 29.96 140.874 27.74H143.154C143.274 28.8 143.814 29.42 145.234 29.42C146.534 29.42 147.114 28.96 147.114 28.08C147.114 27.22 146.414 26.9 144.874 26.64C142.114 26.2 141.094 25.42 141.094 23.46C141.094 21.36 143.054 20.32 145.014 20.32C147.154 20.32 148.854 21.12 149.114 23.48H146.874C146.674 22.52 146.134 22.08 145.014 22.08C143.974 22.08 143.354 22.58 143.354 23.32C143.354 24.08 143.854 24.38 145.514 24.66C147.974 25.04 149.434 25.64 149.434 27.86C149.434 29.98 147.934 31.2 145.254 31.2ZM156.177 31.2C153.097 31.2 150.877 29.18 150.877 25.88V25.72C150.877 22.48 153.097 20.32 156.077 20.32C158.677 20.32 161.017 21.86 161.017 25.6V26.3H153.357C153.437 28.28 154.437 29.4 156.237 29.4C157.697 29.4 158.457 28.82 158.637 27.8H160.977C160.637 30 158.857 31.2 156.177 31.2ZM153.397 24.68H158.617C158.497 22.88 157.577 22.08 156.077 22.08C154.617 22.08 153.637 23.06 153.397 24.68Z" fill="white"/>
</g>
<defs>
<filter id="filter0_d_242_106" x="0" y="0" width="195" height="60" filterUnits="userSpaceOnUse" color-interpolation-filters="sRGB">
<feFlood flood-opacity="0" result="BackgroundImageFix"/>
<feColorMatrix in="SourceAlpha" type="matrix" values="0 0 0 0 0 0 0 0 0 0 0 0 0 0 0 0 0 0 127 0" result="hardAlpha"/>
<feOffset dx="8" dy="10"/>
<feComposite in2="hardAlpha" operator="out"/>
<feColorMatrix type="matrix" values="0 0 0 0 0 0 0 0 0 0 0 0 0 0 0 0 0 0 1 0"/>
<feBlend mode="normal" in2="BackgroundImageFix" result="effect1_dropShadow_242_106"/>
<feBlend mode="normal" in="SourceGraphic" in2="effect1_dropShadow_242_106" result="shape"/>
</filter>
<linearGradient id="paint0_linear_242_106" x1="1" y1="25" x2="186" y2="25" gradientUnits="userSpaceOnUse">
<stop stop-color="#47EE71"/>
<stop offset="1" stop-color="#298841"/>
</linearGradient>
</defs>
</svg>
