<svg width="204" height="60" viewBox="0 0 204 60" fill="none" xmlns="http://www.w3.org/2000/svg">
<g filter="url(#filter0_d_242_108)">
<rect x="1" y="1" width="194" height="48" rx="24" fill="url(#paint0_linear_242_108)" shape-rendering="crispEdges"/>
<rect x="0.5" y="0.5" width="195" height="49" rx="24.5" stroke="white" stroke-dasharray="6 6" shape-rendering="crispEdges"/>
<path d="M26.64 31V16.7H35.58V18.8H29.3V22.72H34.34V24.72H29.3V28.9H35.92V31H26.64ZM37.1778 31L40.8178 25.64L37.4178 20.54H40.2178L42.3978 23.92L44.5578 20.54H47.0978L43.7178 25.46L47.4578 31H44.6378L42.1978 27.22L39.6978 31H37.1778ZM49.3111 34.58V20.54H51.7311V22.22C52.3111 21.22 53.6111 20.32 55.1511 20.32C57.7711 20.32 59.7911 22.26 59.7911 25.64V25.8C59.7911 29.16 57.8511 31.2 55.1511 31.2C53.4911 31.2 52.2911 30.38 51.7311 29.36V34.58H49.3111ZM54.5511 29.28C56.3311 29.28 57.3111 28.08 57.3111 25.84V25.68C57.3111 23.36 56.1111 22.22 54.5311 22.22C52.8511 22.22 51.6511 23.36 51.6511 25.68V25.84C51.6511 28.18 52.7911 29.28 54.5511 29.28ZM66.5673 31.2C63.4873 31.2 61.2673 29.18 61.2673 25.88V25.72C61.2673 22.48 63.4873 20.32 66.4673 20.32C69.0673 20.32 71.4073 21.86 71.4073 25.6V26.3H63.7473C63.8273 28.28 64.8273 29.4 66.6273 29.4C68.0873 29.4 68.8473 28.82 69.0273 27.8H71.3673C71.0273 30 69.2473 31.2 66.5673 31.2ZM63.7873 24.68H69.0073C68.8873 22.88 67.9673 22.08 66.4673 22.08C65.0073 22.08 64.0273 23.06 63.7873 24.68ZM73.5689 31V20.54H75.9889V22.5C76.6489 21.18 77.6289 20.4 79.3889 20.38V22.64C77.2689 22.66 75.9889 23.34 75.9889 25.56V31H73.5689ZM85.1953 31.18C83.1153 31.18 82.0353 30.06 82.0353 28.08V22.36H80.6353V20.54H82.0353V18.24H84.4553V20.54H86.7553V22.36H84.4553V27.86C84.4553 28.78 84.8953 29.2 85.6553 29.2C86.1353 29.2 86.4953 29.14 86.8353 29V30.92C86.4553 31.06 85.9353 31.18 85.1953 31.18ZM98.8438 31.2C94.9438 31.2 93.3038 29.26 93.1038 26.56H95.6638C95.8438 28 96.4238 29.2 98.8438 29.2C100.424 29.2 101.544 28.32 101.544 27C101.544 25.68 100.884 25.18 98.5638 24.8C95.1438 24.34 93.5238 23.3 93.5238 20.62C93.5238 18.28 95.5238 16.52 98.5038 16.52C101.584 16.52 103.424 17.92 103.704 20.66H101.264C101.004 19.16 100.144 18.52 98.5038 18.52C96.8838 18.52 96.0438 19.3 96.0438 20.4C96.0438 21.56 96.5238 22.14 99.0038 22.5C102.364 22.96 104.104 23.92 104.104 26.78C104.104 29.26 102.004 31.2 98.8438 31.2ZM109.901 31.2C107.841 31.2 106.301 30.02 106.301 27.24V20.54H108.721V26.96C108.721 28.54 109.381 29.26 110.781 29.26C112.081 29.26 113.221 28.42 113.221 26.76V20.54H115.641V31H113.221V29.36C112.701 30.38 111.601 31.2 109.901 31.2ZM118.51 34.58V20.54H120.93V22.22C121.51 21.22 122.81 20.32 124.35 20.32C126.97 20.32 128.99 22.26 128.99 25.64V25.8C128.99 29.16 127.05 31.2 124.35 31.2C122.69 31.2 121.49 30.38 120.93 29.36V34.58H118.51ZM123.75 29.28C125.53 29.28 126.51 28.08 126.51 25.84V25.68C126.51 23.36 125.31 22.22 123.73 22.22C122.05 22.22 120.85 23.36 120.85 25.68V25.84C120.85 28.18 121.99 29.28 123.75 29.28ZM131.167 34.58V20.54H133.587V22.22C134.167 21.22 135.467 20.32 137.007 20.32C139.627 20.32 141.647 22.26 141.647 25.64V25.8C141.647 29.16 139.707 31.2 137.007 31.2C135.347 31.2 134.147 30.38 133.587 29.36V34.58H131.167ZM136.407 29.28C138.187 29.28 139.167 28.08 139.167 25.84V25.68C139.167 23.36 137.967 22.22 136.387 22.22C134.707 22.22 133.507 23.36 133.507 25.68V25.84C133.507 28.18 134.647 29.28 136.407 29.28ZM148.483 31.2C145.403 31.2 143.123 29.06 143.123 25.88V25.72C143.123 22.48 145.423 20.32 148.503 20.32C151.563 20.32 153.863 22.46 153.863 25.66V25.82C153.863 29.08 151.563 31.2 148.483 31.2ZM148.503 29.32C150.303 29.32 151.383 27.98 151.383 25.84V25.7C151.383 23.54 150.303 22.22 148.503 22.22C146.703 22.22 145.603 23.52 145.603 25.68V25.84C145.603 27.98 146.663 29.32 148.503 29.32ZM156.049 31V20.54H158.469V22.5C159.129 21.18 160.109 20.4 161.869 20.38V22.64C159.749 22.66 158.469 23.34 158.469 25.56V31H156.049ZM167.676 31.18C165.596 31.18 164.516 30.06 164.516 28.08V22.36H163.116V20.54H164.516V18.24H166.936V20.54H169.236V22.36H166.936V27.86C166.936 28.78 167.376 29.2 168.136 29.2C168.616 29.2 168.976 29.14 169.316 29V30.92C168.936 31.06 168.416 31.18 167.676 31.18Z" fill="white"/>
</g>
<defs>
<filter id="filter0_d_242_108" x="0" y="0" width="204" height="60" filterUnits="userSpaceOnUse" color-interpolation-filters="sRGB">
<feFlood flood-opacity="0" result="BackgroundImageFix"/>
<feColorMatrix in="SourceAlpha" type="matrix" values="0 0 0 0 0 0 0 0 0 0 0 0 0 0 0 0 0 0 127 0" result="hardAlpha"/>
<feOffset dx="8" dy="10"/>
<feComposite in2="hardAlpha" operator="out"/>
<feColorMatrix type="matrix" values="0 0 0 0 0 0 0 0 0 0 0 0 0 0 0 0 0 0 1 0"/>
<feBlend mode="normal" in2="BackgroundImageFix" result="effect1_dropShadow_242_108"/>
<feBlend mode="normal" in="SourceGraphic" in2="effect1_dropShadow_242_108" result="shape"/>
</filter>
<linearGradient id="paint0_linear_242_108" x1="1" y1="25" x2="195" y2="25" gradientUnits="userSpaceOnUse">
<stop stop-color="#1475ED"/>
<stop offset="1" stop-color="#0E52A5"/>
</linearGradient>
</defs>
</svg>
