<svg width="264" height="60" viewBox="0 0 264 60" fill="none" xmlns="http://www.w3.org/2000/svg">
<g filter="url(#filter0_d_242_110)">
<rect x="1" y="1" width="254" height="48" rx="24" fill="#47EE71" shape-rendering="crispEdges"/>
<rect x="1" y="1" width="254" height="48" rx="24" fill="url(#paint0_linear_242_110)" shape-rendering="crispEdges"/>
<rect x="0.5" y="0.5" width="255" height="49" rx="24.5" stroke="white" stroke-dasharray="6 6" shape-rendering="crispEdges"/>
<path d="M26.64 31V16.7H29.82L35.84 27.04V16.7H38.26V31H35.5L29.06 20.04V31H26.64ZM44.0238 31.2C42.1038 31.2 40.5238 30.28 40.5238 28.1C40.5238 25.66 42.8838 24.78 45.8838 24.78H47.1838V24.24C47.1838 22.84 46.7038 22.14 45.2838 22.14C44.0238 22.14 43.4038 22.74 43.2838 23.78H40.9438C41.1438 21.34 43.0838 20.32 45.4238 20.32C47.7638 20.32 49.6038 21.28 49.6038 24.14V31H47.2238V29.72C46.5438 30.62 45.6238 31.2 44.0238 31.2ZM44.6038 29.46C46.0838 29.46 47.1838 28.68 47.1838 27.34V26.3H45.9438C44.1038 26.3 42.9238 26.72 42.9238 28C42.9238 28.88 43.4038 29.46 44.6038 29.46ZM55.918 31.18C53.838 31.18 52.758 30.06 52.758 28.08V22.36H51.358V20.54H52.758V18.24H55.178V20.54H57.478V22.36H55.178V27.86C55.178 28.78 55.618 29.2 56.378 29.2C56.858 29.2 57.218 29.14 57.558 29V30.92C57.178 31.06 56.658 31.18 55.918 31.18ZM60.9808 18.82C60.1808 18.82 59.5408 18.22 59.5408 17.44C59.5408 16.64 60.1808 16.04 60.9808 16.04C61.7808 16.04 62.4208 16.64 62.4208 17.44C62.4208 18.22 61.7808 18.82 60.9808 18.82ZM59.8008 31V20.54H62.2208V31H59.8008ZM69.8305 31.2C66.7505 31.2 64.4705 29.06 64.4705 25.88V25.72C64.4705 22.48 66.7705 20.32 69.8505 20.32C72.9105 20.32 75.2105 22.46 75.2105 25.66V25.82C75.2105 29.08 72.9105 31.2 69.8305 31.2ZM69.8505 29.32C71.6505 29.32 72.7305 27.98 72.7305 25.84V25.7C72.7305 23.54 71.6505 22.22 69.8505 22.22C68.0505 22.22 66.9505 23.52 66.9505 25.68V25.84C66.9505 27.98 68.0105 29.32 69.8505 29.32ZM77.397 31V20.54H79.817V22.2C80.317 21.18 81.477 20.32 83.197 20.32C85.297 20.32 86.777 21.54 86.777 24.42V31H84.357V24.64C84.357 23.06 83.717 22.34 82.277 22.34C80.917 22.34 79.817 23.18 79.817 24.84V31H77.397ZM91.5297 31L88.3297 20.54H90.9097L92.9897 28.1L95.2097 20.54H97.2297L99.2697 28.1L101.45 20.54H103.81L100.53 31H98.0697L96.1297 23.96L94.0097 31H91.5297ZM106.899 18.82C106.099 18.82 105.459 18.22 105.459 17.44C105.459 16.64 106.099 16.04 106.899 16.04C107.699 16.04 108.339 16.64 108.339 17.44C108.339 18.22 107.699 18.82 106.899 18.82ZM105.719 31V20.54H108.139V31H105.719ZM115.008 31.2C112.388 31.2 110.408 29.34 110.408 25.94V25.78C110.408 22.44 112.388 20.32 115.108 20.32C116.808 20.32 117.868 21.1 118.448 22.14V15.7H120.868V31H118.448V29.24C117.888 30.28 116.548 31.2 115.008 31.2ZM115.608 29.28C117.288 29.28 118.528 28.16 118.528 25.82V25.66C118.528 23.36 117.468 22.22 115.708 22.22C113.928 22.22 112.888 23.46 112.888 25.72V25.88C112.888 28.18 114.048 29.28 115.608 29.28ZM128.345 31.2C125.265 31.2 123.045 29.18 123.045 25.88V25.72C123.045 22.48 125.265 20.32 128.245 20.32C130.845 20.32 133.185 21.86 133.185 25.6V26.3H125.525C125.605 28.28 126.605 29.4 128.405 29.4C129.865 29.4 130.625 28.82 130.805 27.8H133.145C132.805 30 131.025 31.2 128.345 31.2ZM125.565 24.68H130.785C130.665 22.88 129.745 22.08 128.245 22.08C126.785 22.08 125.805 23.06 125.565 24.68ZM146.572 31.2C142.092 31.2 139.592 28.34 139.592 23.94V23.78C139.592 19.48 142.552 16.48 146.532 16.48C149.812 16.48 152.352 18.12 152.672 21.48H149.972C149.672 19.58 148.612 18.6 146.552 18.6C144.032 18.6 142.392 20.56 142.392 23.76V23.92C142.392 27.14 143.932 29.04 146.572 29.04C148.552 29.04 149.952 28.04 150.232 26.02H152.832C152.412 29.46 149.972 31.2 146.572 31.2ZM159.616 31.2C156.536 31.2 154.256 29.06 154.256 25.88V25.72C154.256 22.48 156.556 20.32 159.636 20.32C162.696 20.32 164.996 22.46 164.996 25.66V25.82C164.996 29.08 162.696 31.2 159.616 31.2ZM159.636 29.32C161.436 29.32 162.516 27.98 162.516 25.84V25.7C162.516 23.54 161.436 22.22 159.636 22.22C157.836 22.22 156.736 23.52 156.736 25.68V25.84C156.736 27.98 157.796 29.32 159.636 29.32ZM169.551 31L165.731 20.54H168.331L171.071 28.52L173.771 20.54H176.151L172.371 31H169.551ZM182.153 31.2C179.073 31.2 176.853 29.18 176.853 25.88V25.72C176.853 22.48 179.073 20.32 182.053 20.32C184.653 20.32 186.993 21.86 186.993 25.6V26.3H179.333C179.413 28.28 180.413 29.4 182.213 29.4C183.673 29.4 184.433 28.82 184.613 27.8H186.953C186.613 30 184.833 31.2 182.153 31.2ZM179.373 24.68H184.593C184.473 22.88 183.553 22.08 182.053 22.08C180.593 22.08 179.613 23.06 179.373 24.68ZM189.155 31V20.54H191.575V22.5C192.235 21.18 193.215 20.4 194.975 20.38V22.64C192.855 22.66 191.575 23.34 191.575 25.56V31H189.155ZM199.688 31.2C197.768 31.2 196.188 30.28 196.188 28.1C196.188 25.66 198.548 24.78 201.548 24.78H202.848V24.24C202.848 22.84 202.368 22.14 200.948 22.14C199.688 22.14 199.068 22.74 198.948 23.78H196.608C196.808 21.34 198.748 20.32 201.088 20.32C203.428 20.32 205.268 21.28 205.268 24.14V31H202.888V29.72C202.208 30.62 201.288 31.2 199.688 31.2ZM200.268 29.46C201.748 29.46 202.848 28.68 202.848 27.34V26.3H201.608C199.768 26.3 198.588 26.72 198.588 28C198.588 28.88 199.068 29.46 200.268 29.46ZM212.502 34.84C209.222 34.84 207.742 33.36 207.462 31.36H209.902C210.102 32.4 210.902 33 212.482 33C214.362 33 215.402 32.06 215.402 30.18V28.64C214.822 29.64 213.522 30.58 211.982 30.58C209.362 30.58 207.342 28.62 207.342 25.6V25.46C207.342 22.52 209.342 20.32 212.042 20.32C213.762 20.32 214.802 21.1 215.402 22.14V20.54H217.822V30.22C217.802 33.3 215.742 34.84 212.502 34.84ZM212.582 28.72C214.262 28.72 215.482 27.52 215.482 25.52V25.38C215.482 23.4 214.402 22.22 212.662 22.22C210.862 22.22 209.822 23.52 209.822 25.42V25.58C209.822 27.52 211.022 28.72 212.582 28.72ZM225.298 31.2C222.218 31.2 219.998 29.18 219.998 25.88V25.72C219.998 22.48 222.218 20.32 225.198 20.32C227.798 20.32 230.138 21.86 230.138 25.6V26.3H222.478C222.558 28.28 223.558 29.4 225.358 29.4C226.818 29.4 227.578 28.82 227.758 27.8H230.098C229.758 30 227.978 31.2 225.298 31.2ZM222.518 24.68H227.738C227.618 22.88 226.698 22.08 225.198 22.08C223.738 22.08 222.758 23.06 222.518 24.68Z" fill="white"/>
</g>
<defs>
<filter id="filter0_d_242_110" x="0" y="0" width="264" height="60" filterUnits="userSpaceOnUse" color-interpolation-filters="sRGB">
<feFlood flood-opacity="0" result="BackgroundImageFix"/>
<feColorMatrix in="SourceAlpha" type="matrix" values="0 0 0 0 0 0 0 0 0 0 0 0 0 0 0 0 0 0 127 0" result="hardAlpha"/>
<feOffset dx="8" dy="10"/>
<feComposite in2="hardAlpha" operator="out"/>
<feColorMatrix type="matrix" values="0 0 0 0 0 0 0 0 0 0 0 0 0 0 0 0 0 0 1 0"/>
<feBlend mode="normal" in2="BackgroundImageFix" result="effect1_dropShadow_242_110"/>
<feBlend mode="normal" in="SourceGraphic" in2="effect1_dropShadow_242_110" result="shape"/>
</filter>
<linearGradient id="paint0_linear_242_110" x1="1" y1="25" x2="255" y2="25" gradientUnits="userSpaceOnUse">
<stop stop-color="#47EE71"/>
<stop offset="1" stop-color="#298841"/>
</linearGradient>
</defs>
</svg>
