<svg width="22" height="22" viewBox="0 0 22 22" fill="none" xmlns="http://www.w3.org/2000/svg">
<path d="M19.5556 2.2H18.3333V1.1C18.3333 0.495 17.7833 0 17.1111 0C16.4389 0 15.8889 0.495 15.8889 1.1V2.2H6.11111V1.1C6.11111 0.495 5.56111 0 4.88889 0C4.21667 0 3.66667 0.495 3.66667 1.1V2.2H2.44444C1.08778 2.2 0.0122222 3.19 0.0122222 4.4L0 19.8C0 20.3835 0.257539 20.9431 0.715961 21.3556C1.17438 21.7682 1.79614 22 2.44444 22H19.5556C20.9 22 22 21.01 22 19.8V4.4C22 3.19 20.9 2.2 19.5556 2.2ZM19.5556 18.7C19.5556 19.305 19.0056 19.8 18.3333 19.8H3.66667C2.99444 19.8 2.44444 19.305 2.44444 18.7V7.7H19.5556V18.7ZM4.88889 9.9H7.33333V12.1H4.88889V9.9ZM9.77778 9.9H12.2222V12.1H9.77778V9.9ZM14.6667 9.9H17.1111V12.1H14.6667V9.9Z" fill="white" fill-opacity="0.4"/>
</svg>
