<svg width="44" height="31" viewBox="0 0 44 31" fill="none" xmlns="http://www.w3.org/2000/svg">
<path d="M3.28172 6.27767C3.28172 4.85114 3.84841 3.48303 4.85712 2.47432C5.86583 1.46561 7.23393 0.898926 8.66047 0.898926H35.5542C36.9807 0.898926 38.3488 1.46561 39.3575 2.47432C40.3663 3.48303 40.9329 4.85114 40.9329 6.27767V19.7245C40.9329 21.1511 40.3663 22.5192 39.3575 23.5279C38.3488 24.5366 36.9807 25.1033 35.5542 25.1033H8.66047C7.23393 25.1033 5.86583 24.5366 4.85712 23.5279C3.84841 22.5192 3.28172 21.1511 3.28172 19.7245V6.27767ZM8.66047 3.5883C7.9472 3.5883 7.26315 3.87164 6.75879 4.376C6.25444 4.88035 5.97109 5.56441 5.97109 6.27767V19.7245C5.97109 20.4378 6.25444 21.1219 6.75879 21.6262C7.26315 22.1306 7.9472 22.4139 8.66047 22.4139H35.5542C36.2675 22.4139 36.9515 22.1306 37.4559 21.6262C37.9602 21.1219 38.2436 20.4378 38.2436 19.7245V6.27767C38.2436 5.56441 37.9602 4.88035 37.4559 4.376C36.9515 3.87164 36.2675 3.5883 35.5542 3.5883H8.66047ZM0.592346 29.1373C0.592346 28.7807 0.734018 28.4387 0.986196 28.1865C1.23837 27.9343 1.5804 27.7927 1.93703 27.7927H42.2776C42.6343 27.7927 42.9763 27.9343 43.2285 28.1865C43.4806 28.4387 43.6223 28.7807 43.6223 29.1373C43.6223 29.494 43.4806 29.836 43.2285 30.0882C42.9763 30.3404 42.6343 30.482 42.2776 30.482H1.93703C1.5804 30.482 1.23837 30.3404 0.986196 30.0882C0.734018 29.836 0.592346 29.494 0.592346 29.1373Z" fill="white" fill-opacity="0.2"/>
</svg>
