<svg width="44" height="43" viewBox="0 0 44 43" fill="none" xmlns="http://www.w3.org/2000/svg">
<path d="M2.01196 36.7981V14.7681C2.01196 13.7058 2.43396 12.687 3.18513 11.9359C3.9363 11.1847 4.9551 10.7627 6.01741 10.7627H38.061C39.1233 10.7627 40.1421 11.1847 40.8933 11.9359C41.6445 12.687 42.0665 13.7058 42.0665 14.7681V36.7981C42.0665 37.8604 41.6445 38.8792 40.8933 39.6304C40.1421 40.3816 39.1233 40.8036 38.061 40.8036H6.01741C4.9551 40.8036 3.9363 40.3816 3.18513 39.6304C2.43396 38.8792 2.01196 37.8604 2.01196 36.7981Z" stroke="white" stroke-opacity="0.2" stroke-width="3.00409"/>
<path d="M15.0297 1.75049L22.0392 8.76003L29.0487 1.75049" stroke="white" stroke-opacity="0.2" stroke-width="3.00409" stroke-linecap="round" stroke-linejoin="round"/>
</svg>
