<svg width="37" height="49" viewBox="0 0 37 49" fill="none" xmlns="http://www.w3.org/2000/svg">
<path d="M30.2055 3.74774C31.0023 3.74774 31.7664 4.06424 32.3298 4.62762C32.8931 5.19099 33.2096 5.95509 33.2096 6.75183V42.8009C33.2096 43.5976 32.8931 44.3617 32.3298 44.9251C31.7664 45.4885 31.0023 45.805 30.2055 45.805H6.17285C5.37611 45.805 4.61201 45.4885 4.04864 44.9251C3.48526 44.3617 3.16876 43.5976 3.16876 42.8009V6.75183C3.16876 5.95509 3.48526 5.19099 4.04864 4.62762C4.61201 4.06424 5.37611 3.74774 6.17285 3.74774H30.2055ZM6.17285 0.743652C4.57938 0.743652 3.05118 1.37665 1.92443 2.50341C0.797675 3.63016 0.164673 5.15836 0.164673 6.75183V42.8009C0.164673 44.3943 0.797675 45.9225 1.92443 47.0493C3.05118 48.176 4.57938 48.809 6.17285 48.809H30.2055C31.799 48.809 33.3272 48.176 34.454 47.0493C35.5807 45.9225 36.2137 44.3943 36.2137 42.8009V6.75183C36.2137 5.15836 35.5807 3.63016 34.454 2.50341C33.3272 1.37665 31.799 0.743652 30.2055 0.743652L6.17285 0.743652Z" fill="white" fill-opacity="0.2"/>
<path d="M18.1902 42.8011C18.987 42.8011 19.7511 42.4846 20.3145 41.9213C20.8778 41.3579 21.1943 40.5938 21.1943 39.7971C21.1943 39.0003 20.8778 38.2362 20.3145 37.6728C19.7511 37.1095 18.987 36.793 18.1902 36.793C17.3935 36.793 16.6294 37.1095 16.066 37.6728C15.5027 38.2362 15.1862 39.0003 15.1862 39.7971C15.1862 40.5938 15.5027 41.3579 16.066 41.9213C16.6294 42.4846 17.3935 42.8011 18.1902 42.8011Z" fill="white" fill-opacity="0.2"/>
</svg>
