<svg width="31" height="49" viewBox="0 0 31 49" fill="none" xmlns="http://www.w3.org/2000/svg">
<path d="M24.7772 3.74774C25.5739 3.74774 26.338 4.06424 26.9014 4.62762C27.4648 5.19099 27.7813 5.95509 27.7813 6.75183V42.8009C27.7813 43.5976 27.4648 44.3617 26.9014 44.9251C26.338 45.4885 25.5739 45.805 24.7772 45.805H6.75268C5.95595 45.805 5.19185 45.4885 4.62847 44.9251C4.0651 44.3617 3.74859 43.5976 3.74859 42.8009V6.75183C3.74859 5.95509 4.0651 5.19099 4.62847 4.62762C5.19185 4.06424 5.95595 3.74774 6.75268 3.74774H24.7772ZM6.75268 0.743652C5.15921 0.743652 3.63101 1.37665 2.50426 2.50341C1.37751 3.63016 0.744507 5.15836 0.744507 6.75183V42.8009C0.744507 44.3943 1.37751 45.9225 2.50426 47.0493C3.63101 48.176 5.15921 48.809 6.75268 48.809H24.7772C26.3707 48.809 27.8989 48.176 29.0256 47.0493C30.1524 45.9225 30.7854 44.3943 30.7854 42.8009V6.75183C30.7854 5.15836 30.1524 3.63016 29.0256 2.50341C27.8989 1.37665 26.3707 0.743652 24.7772 0.743652L6.75268 0.743652Z" fill="white"/>
<path d="M15.7642 42.8011C16.561 42.8011 17.3251 42.4846 17.8884 41.9213C18.4518 41.3579 18.7683 40.5938 18.7683 39.7971C18.7683 39.0003 18.4518 38.2362 17.8884 37.6728C17.3251 37.1095 16.561 36.793 15.7642 36.793C14.9675 36.793 14.2034 37.1095 13.64 37.6728C13.0766 38.2362 12.7601 39.0003 12.7601 39.7971C12.7601 40.5938 13.0766 41.3579 13.64 41.9213C14.2034 42.4846 14.9675 42.8011 15.7642 42.8011Z" fill="white"/>
</svg>
