<svg width="54" height="54" viewBox="0 0 54 54" fill="none" xmlns="http://www.w3.org/2000/svg">
<circle cx="27" cy="27" r="27" fill="url(#paint0_linear_257_902)"/>
<path fill-rule="evenodd" clip-rule="evenodd" d="M37.7333 24.9067C37.32 20.6667 34.8133 14 27.0667 14C19.32 14 16.8133 20.6667 16.4 24.9067C14.95 25.457 13.9936 26.8491 14 28.4V30.2667C14 32.3286 15.6715 34 17.7333 34C19.7952 34 21.4667 32.3285 21.4667 30.2667V28.4C21.46 26.8826 20.5387 25.5191 19.1333 24.9467C19.4 22.4933 20.7067 16.6667 27.0667 16.6667C33.4267 16.6667 34.72 22.4933 34.9867 24.9467C33.5842 25.5203 32.6676 26.8847 32.6667 28.4V30.2667C32.6696 30.9692 32.8699 31.6567 33.2447 32.2508C33.6196 32.8449 34.1539 33.3217 34.7867 33.6267C34.2267 34.68 32.8 36.1067 29.2933 36.5333C28.5924 35.4689 27.2362 35.0493 26.0566 35.5319C24.877 36.0144 24.2037 37.2642 24.4497 38.5147C24.6957 39.7652 25.7922 40.6667 27.0667 40.6667C27.5606 40.6639 28.0439 40.5241 28.463 40.2628C28.882 40.0015 29.2203 39.6289 29.44 39.1867C35.16 38.5333 36.9867 35.5867 37.56 33.8533C39.1111 33.3509 40.1543 31.897 40.1333 30.2667V28.4C40.1398 26.8491 39.1833 25.457 37.7333 24.9067ZM18.8 30.2667C18.8 30.8557 18.3225 31.3333 17.7333 31.3333C17.1442 31.3333 16.6667 30.8558 16.6667 30.2667V28.4C16.6656 28.2592 16.6924 28.1197 16.7456 27.9893C16.7987 27.8589 16.8771 27.7404 16.9762 27.6405C17.0754 27.5405 17.1933 27.4612 17.3233 27.4071C17.4532 27.353 17.5926 27.3251 17.7334 27.3251C17.8741 27.3251 18.0135 27.353 18.1435 27.4071C18.2734 27.4612 18.3914 27.5405 18.4905 27.6405C18.5897 27.7404 18.6681 27.8589 18.7212 27.9893C18.7743 28.1197 18.8011 28.2592 18.8 28.4V30.2667ZM35.3333 28.4C35.3333 27.8109 35.8109 27.3333 36.4 27.3333C36.9892 27.3333 37.4667 27.8109 37.4667 28.4V30.2667C37.4667 30.8557 36.9892 31.3333 36.4 31.3333C35.8109 31.3333 35.3333 30.8558 35.3333 30.2667V28.4Z" fill="white"/>
<defs>
<linearGradient id="paint0_linear_257_902" x1="0" y1="27" x2="54" y2="27" gradientUnits="userSpaceOnUse">
<stop stop-color="#1475ED"/>
<stop offset="1" stop-color="#0E52A5"/>
</linearGradient>
</defs>
</svg>
