<svg width="54" height="54" viewBox="0 0 54 54" fill="none" xmlns="http://www.w3.org/2000/svg">
<circle cx="27" cy="27" r="27" fill="url(#paint0_linear_257_900)"/>
<path d="M40.0854 23.8525C39.6066 23.36 39.1113 22.8525 38.9246 22.4062C38.7518 21.9975 38.7417 21.32 38.7315 20.6637C38.7125 19.4437 38.6921 18.0612 37.7154 17.1C36.7388 16.1387 35.3341 16.1187 34.0945 16.1C33.4277 16.09 32.7393 16.08 32.324 15.91C31.8719 15.7262 31.3549 15.2387 30.8545 14.7675C29.9782 13.9387 28.9825 13 27.6565 13C26.3306 13 25.3361 13.9387 24.4585 14.7675C23.9581 15.2387 23.4424 15.7262 22.989 15.91C22.5762 16.08 21.8853 16.09 21.2185 16.1C19.9789 16.1187 18.5742 16.1387 17.5976 17.1C16.6209 18.0612 16.6069 19.4437 16.5815 20.6637C16.5713 21.32 16.5612 21.9975 16.3885 22.4062C16.2018 22.8512 15.7064 23.36 15.2276 23.8525C14.3856 24.715 13.4317 25.695 13.4317 27C13.4317 28.305 14.3856 29.2837 15.2276 30.1475C15.7064 30.64 16.2018 31.1475 16.3885 31.5938C16.5612 32.0025 16.5713 32.68 16.5815 33.3363C16.6006 34.5562 16.6209 35.9387 17.5976 36.9C18.5742 37.8612 19.9789 37.8813 21.2185 37.9C21.8853 37.91 22.5737 37.92 22.989 38.09C23.4411 38.2738 23.9581 38.7612 24.4585 39.2325C25.3348 40.0613 26.3306 41 27.6565 41C28.9825 41 29.9769 40.0613 30.8545 39.2325C31.3549 38.7612 31.8706 38.2738 32.324 38.09C32.7393 37.92 33.4277 37.91 34.0945 37.9C35.3341 37.8813 36.7388 37.8612 37.7154 36.9C38.6921 35.9387 38.7125 34.5562 38.7315 33.3363C38.7417 32.68 38.7518 32.0025 38.9246 31.5938C39.1113 31.1488 39.6066 30.64 40.0854 30.1475C40.9275 29.285 41.8813 28.305 41.8813 27C41.8813 25.695 40.9275 24.7162 40.0854 23.8525ZM38.6185 28.7638C38.0101 29.3888 37.3801 30.035 37.0461 30.8288C36.7261 31.5913 36.7121 32.4625 36.6994 33.3062C36.6867 34.1812 36.6727 35.0975 36.2777 35.485C35.8827 35.8725 34.9581 35.8875 34.064 35.9C33.2067 35.9125 32.3215 35.9262 31.5467 36.2412C30.7402 36.57 30.0836 37.19 29.4486 37.7887C28.8135 38.3875 28.1645 39 27.6565 39C27.1485 39 26.4944 38.385 25.8644 37.7887C25.2345 37.1925 24.5728 36.57 23.7663 36.2412C22.9915 35.9262 22.1063 35.9125 21.249 35.9C20.36 35.8875 19.429 35.8738 19.0353 35.485C18.6416 35.0963 18.6263 34.1862 18.6136 33.3062C18.6009 32.4625 18.5869 31.5913 18.2669 30.8288C17.9329 30.035 17.3029 29.3888 16.6945 28.7638C16.0862 28.1388 15.4638 27.5 15.4638 27C15.4638 26.5 16.0887 25.8562 16.6945 25.2362C17.3004 24.6163 17.9329 23.965 18.2669 23.1713C18.5869 22.4088 18.6009 21.5375 18.6136 20.6938C18.6263 19.8188 18.6403 18.9025 19.0353 18.515C19.4303 18.1275 20.3549 18.1125 21.249 18.1C22.1063 18.0875 22.9915 18.0738 23.7663 17.7587C24.5728 17.43 25.2294 16.81 25.8644 16.2112C26.4995 15.6125 27.1485 15 27.6565 15C28.1645 15 28.8186 15.615 29.4486 16.2112C30.0785 16.8075 30.7402 17.43 31.5467 17.7587C32.3215 18.0738 33.2067 18.0875 34.064 18.1C34.953 18.1125 35.884 18.1262 36.2777 18.515C36.6714 18.9037 36.6867 19.8138 36.6994 20.6938C36.7121 21.5375 36.7261 22.4088 37.0461 23.1713C37.3801 23.965 38.0101 24.6112 38.6185 25.2362C39.2268 25.8612 39.8492 26.5 39.8492 27C39.8492 27.5 39.2243 28.1438 38.6185 28.7638ZM33.4556 23.2925C33.5501 23.3854 33.625 23.4957 33.6762 23.6171C33.7273 23.7385 33.7536 23.8686 33.7536 24C33.7536 24.1314 33.7273 24.2615 33.6762 24.3829C33.625 24.5043 33.5501 24.6146 33.4556 24.7075L26.3433 31.7075C26.2489 31.8005 26.1368 31.8742 26.0135 31.9246C25.8901 31.9749 25.7579 32.0008 25.6244 32.0008C25.4909 32.0008 25.3587 31.9749 25.2353 31.9246C25.112 31.8742 24.9999 31.8005 24.9055 31.7075L21.8574 28.7075C21.6667 28.5199 21.5596 28.2654 21.5596 28C21.5596 27.7346 21.6667 27.4801 21.8574 27.2925C22.048 27.1049 22.3066 26.9994 22.5762 26.9994C22.8459 26.9994 23.1044 27.1049 23.2951 27.2925L25.6244 29.5863L32.0179 23.2925C32.1123 23.1995 32.2243 23.1258 32.3477 23.0754C32.471 23.0251 32.6033 22.9992 32.7368 22.9992C32.8703 22.9992 33.0025 23.0251 33.1259 23.0754C33.2492 23.1258 33.3613 23.1995 33.4556 23.2925Z" fill="white"/>
<defs>
<linearGradient id="paint0_linear_257_900" x1="0" y1="27" x2="54" y2="27" gradientUnits="userSpaceOnUse">
<stop stop-color="#1475ED"/>
<stop offset="1" stop-color="#0E52A5"/>
</linearGradient>
</defs>
</svg>
