<svg width="54" height="54" viewBox="0 0 54 54" fill="none" xmlns="http://www.w3.org/2000/svg">
<circle cx="27" cy="27" r="27" fill="url(#paint0_linear_257_903)"/>
<path d="M29.2667 40.5528L28.7359 41.3848C28.88 41.4852 29.0475 41.5428 29.2205 41.5515C29.3934 41.5603 29.5655 41.5198 29.7181 41.4344C29.8708 41.349 29.9985 41.2219 30.0875 41.0666C30.1765 40.9114 30.2235 40.7338 30.2235 40.5528H29.2667ZM25.4392 37.8861L25.9699 37.0541C25.8128 36.9446 25.6281 36.8862 25.4392 36.8862C25.2503 36.8862 25.0656 36.9446 24.9085 37.0541L25.4392 37.8861ZM21.6118 40.5528H20.6549C20.6549 40.7338 20.7019 40.9114 20.7909 41.0666C20.8799 41.2219 21.0076 41.349 21.1603 41.4344C21.313 41.5198 21.485 41.5603 21.6579 41.5515C21.8309 41.5428 21.9984 41.4852 22.1425 41.3848L21.6118 40.5528ZM29.7974 39.7208L25.9699 37.0541L24.9085 38.7181L28.7359 41.3848L29.7974 39.7208ZM24.9085 37.0541L21.081 39.7208L22.1425 41.3848L25.9699 38.7181L24.9085 37.0541ZM26.6538 15.5874L26.7074 15.6541L28.1656 14.3581L28.1108 14.2914L26.6538 15.5874ZM29.6609 16.9328L29.7438 16.9248L29.5907 14.9314L29.5078 14.9394L29.6609 16.9328ZM31.4623 18.7194L31.4547 18.8074L33.362 18.9674L33.3697 18.8808L31.4623 18.7194ZM32.6782 21.8928L32.742 21.9501L33.9821 20.4274L33.9183 20.3701L32.6782 21.8928ZM32.742 24.4888L32.6782 24.5448L33.9183 26.0688L33.9821 26.0114L32.742 24.4888ZM31.4547 27.6314L31.4623 27.7181L33.3697 27.5581L33.362 27.4714L31.4547 27.6314ZM29.7451 29.5141L29.6609 29.5061L29.5078 31.4994L29.5907 31.5074L29.7451 29.5141ZM26.7086 30.7848L26.6538 30.8514L28.1108 32.1474L28.1656 32.0808L26.7086 30.7848ZM24.2246 30.8514L24.1698 30.7848L22.7128 32.0808L22.7676 32.1474L24.2246 30.8514ZM21.2175 29.5061L21.1346 29.5128L21.2877 31.5074L21.3706 31.5008L21.2175 29.5061ZM19.4161 27.7194L19.4237 27.6314L17.5164 27.4714L17.5087 27.5581L19.4161 27.7194ZM18.2002 24.5461L18.1364 24.4888L16.8963 26.0114L16.9601 26.0688L18.2002 24.5461ZM18.1364 21.9501L18.2002 21.8928L16.9601 20.3701L16.8963 20.4274L18.1364 21.9501ZM19.4237 18.8074L19.4161 18.7208L17.5087 18.8808L17.5164 18.9674L19.4237 18.8074ZM21.1333 16.9248L21.2175 16.9328L21.3706 14.9394L21.2877 14.9314L21.1333 16.9248ZM24.1698 15.6541L24.2246 15.5874L22.7676 14.2914L22.7128 14.3581L24.1698 15.6541ZM21.2175 16.9328C21.7717 16.9792 22.3284 16.8874 22.8419 16.6648C23.3554 16.4423 23.811 16.0954 24.171 15.6528L22.7128 14.3581C22.5491 14.5592 22.3421 14.7167 22.1087 14.8178C21.8754 14.9188 21.6224 14.9605 21.3706 14.9394L21.2175 16.9328ZM19.4161 18.7208C19.3978 18.4802 19.4297 18.237 19.5096 18.0105C19.5895 17.7841 19.7156 17.5785 19.879 17.4079C20.0424 17.2374 20.2393 17.106 20.4561 17.0228C20.6729 16.9396 20.9044 16.9066 21.1346 16.9261L21.2877 14.9328C20.7811 14.8901 20.2716 14.963 19.7946 15.1464C19.3176 15.3298 18.8844 15.6193 18.525 15.9949C18.1656 16.3705 17.8886 16.8232 17.7131 17.3217C17.5376 17.8202 17.4679 18.3526 17.5087 18.8821L19.4161 18.7208ZM18.2002 21.8928C18.6233 21.5165 18.9549 21.0405 19.1676 20.5041C19.3803 19.9677 19.4681 19.3862 19.4237 18.8074L17.5164 18.9674C17.5572 19.5008 17.3505 20.0234 16.9601 20.3701L18.2002 21.8928ZM18.1364 24.4888C17.9605 24.3323 17.8192 24.1378 17.7222 23.9186C17.6253 23.6994 17.5751 23.4609 17.5751 23.2194C17.5751 22.978 17.6253 22.7394 17.7222 22.5203C17.8192 22.3011 17.9605 22.1066 18.1364 21.9501L16.8963 20.4274C16.5094 20.7717 16.1987 21.1996 15.9856 21.6817C15.7725 22.1637 15.6621 22.6884 15.6621 23.2194C15.6621 23.7505 15.7725 24.2751 15.9856 24.7572C16.1987 25.2393 16.5094 25.6672 16.8963 26.0114L18.1364 24.4888ZM19.4237 27.6314C19.4682 27.0523 19.3803 26.4705 19.1673 25.9338C18.9544 25.3972 18.6225 24.9211 18.1989 24.5448L16.9601 26.0688C17.3505 26.4154 17.5572 26.9381 17.5164 27.4714L19.4237 27.6314ZM21.1333 29.5141C20.903 29.5334 20.6714 29.5002 20.4546 29.4168C20.2378 29.3334 20.0409 29.2017 19.8775 29.0309C19.7142 28.86 19.5884 28.6542 19.5087 28.4275C19.429 28.2008 19.3974 27.9588 19.4161 27.7181L17.5087 27.5581C17.4679 28.0876 17.5376 28.62 17.7131 29.1185C17.8886 29.617 18.1656 30.0697 18.525 30.4453C18.8844 30.8209 19.3176 31.1104 19.7946 31.2938C20.2716 31.4772 20.7811 31.5501 21.2877 31.5074L21.1333 29.5141ZM26.6538 30.8514C26.5041 31.0353 26.3179 31.183 26.1082 31.2843C25.8985 31.3856 25.6702 31.438 25.4392 31.438C25.2082 31.438 24.9799 31.3856 24.7702 31.2843C24.5605 31.183 24.3743 31.0353 24.2246 30.8514L22.7676 32.1474C23.097 32.5518 23.5065 32.8765 23.9678 33.0993C24.429 33.322 24.9311 33.4373 25.4392 33.4373C25.9473 33.4373 26.4494 33.322 26.9106 33.0993C27.3719 32.8765 27.7814 32.5518 28.1108 32.1474L26.6538 30.8514ZM31.4623 27.7181C31.4808 27.9588 31.4491 28.2008 31.3692 28.4274C31.2894 28.654 31.1634 28.8598 30.9999 29.0305C30.8365 29.2012 30.6395 29.3327 30.4226 29.416C30.2057 29.4993 29.9741 29.5323 29.7438 29.5128L29.5907 31.5074C30.0973 31.5501 30.6068 31.4772 31.0838 31.2938C31.5608 31.1104 31.994 30.8209 32.3534 30.4453C32.7128 30.0697 32.9898 29.617 33.1653 29.1185C33.3408 28.62 33.4105 28.0876 33.3697 27.5581L31.4623 27.7181ZM32.6782 24.5448C32.2549 24.9212 31.9232 25.3974 31.7105 25.934C31.4978 26.4706 31.4101 27.0524 31.4547 27.6314L33.362 27.4714C33.3212 26.9381 33.5279 26.4154 33.9183 26.0688L32.6782 24.5448ZM32.742 21.9501C32.9179 22.1066 33.0592 22.3011 33.1562 22.5203C33.2531 22.7394 33.3033 22.978 33.3033 23.2194C33.3033 23.4609 33.2531 23.6994 33.1562 23.9186C33.0592 24.1378 32.9179 24.3323 32.742 24.4888L33.9821 26.0114C34.369 25.6672 34.6797 25.2393 34.8928 24.7572C35.1059 24.2751 35.2163 23.7505 35.2163 23.2194C35.2163 22.6884 35.1059 22.1637 34.8928 21.6817C34.6797 21.1996 34.369 20.7717 33.9821 20.4274L32.742 21.9501ZM31.4547 18.8074C31.4102 19.3865 31.4981 19.9684 31.7111 20.5051C31.924 21.0417 32.2559 21.5178 32.6795 21.8941L33.9183 20.3701C33.7259 20.199 33.5751 19.9827 33.4784 19.7388C33.3817 19.4949 33.3418 19.2306 33.362 18.9674L31.4547 18.8074ZM29.7451 16.9248C29.9754 16.9054 30.207 16.9386 30.4238 17.0221C30.6407 17.1055 30.8376 17.2372 31.0009 17.408C31.1642 17.5788 31.2901 17.7847 31.3697 18.0114C31.4494 18.238 31.481 18.4787 31.4623 18.7194L33.3697 18.8808C33.4105 18.3513 33.3408 17.8189 33.1653 17.3204C32.9898 16.8219 32.7128 16.3691 32.3534 15.9935C31.994 15.6179 31.5608 15.3284 31.0838 15.145C30.6068 14.9616 30.0973 14.8888 29.5907 14.9314L29.7451 16.9248ZM26.7074 15.6541C27.0674 16.0963 27.5241 16.4428 28.0374 16.6651C28.5506 16.8874 29.1071 16.9791 29.6609 16.9328L29.5078 14.9394C29.256 14.9605 29.003 14.9188 28.7697 14.8178C28.5363 14.7167 28.3293 14.5592 28.1656 14.3581L26.7074 15.6541ZM28.112 14.2914C27.7827 13.8866 27.3731 13.5615 26.9115 13.3385C26.45 13.1155 25.9477 13 25.4392 13C24.9308 13 24.4284 13.1155 23.9669 13.3385C23.5054 13.5615 23.0957 13.8866 22.7664 14.2914L24.2246 15.5874C24.3743 15.4036 24.5605 15.2559 24.7702 15.1546C24.9799 15.0533 25.2082 15.0008 25.4392 15.0008C25.6702 15.0008 25.8985 15.0533 26.1082 15.1546C26.3179 15.2559 26.5041 15.4036 26.6538 15.5874L28.112 14.2914ZM24.1698 30.7848C23.8574 30.4012 23.4729 30.089 23.04 29.8677C22.6071 29.6463 22.1353 29.5205 21.6539 29.4981L21.5697 31.4968C22.0085 31.5168 22.4244 31.7261 22.7128 32.0808L24.1698 30.7848ZM21.6539 29.4981C21.5084 29.4921 21.3627 29.4948 21.2175 29.5061L21.3706 31.4994C21.437 31.4941 21.5033 31.4932 21.5697 31.4968L21.6539 29.4981ZM22.5686 40.5528V30.4968H20.6549V40.5528H22.5686ZM29.6622 29.5061C29.5166 29.4947 29.3704 29.492 29.2246 29.4981L29.3088 31.4968C29.3751 31.4932 29.4414 31.4941 29.5078 31.4994L29.6622 29.5061ZM29.2246 29.4981C28.7429 29.5203 28.2708 29.646 27.8377 29.8674C27.4046 30.0888 27.0211 30.4011 26.7086 30.7848L28.1656 32.0808C28.3076 31.9066 28.4824 31.7649 28.679 31.6645C28.8757 31.564 29.0901 31.5069 29.3088 31.4968L29.2246 29.4981ZM28.3098 30.4981V40.5528H30.2235V30.4968L28.3098 30.4981Z" fill="white"/>
<path d="M27.99 21.8862L24.1625 25.8862L22.8867 24.5529" stroke="white" stroke-width="2" stroke-linecap="round" stroke-linejoin="round"/>
<defs>
<linearGradient id="paint0_linear_257_903" x1="0" y1="27" x2="54" y2="27" gradientUnits="userSpaceOnUse">
<stop stop-color="#1475ED"/>
<stop offset="1" stop-color="#0E52A5"/>
</linearGradient>
</defs>
</svg>
