<svg width="195" height="197" viewBox="0 0 195 197" fill="none" xmlns="http://www.w3.org/2000/svg">
<g filter="url(#filter0_d_242_115)">
<circle cx="93.5" cy="93.5" r="93.5" fill="url(#paint0_linear_242_115)"/>
<circle cx="93.5" cy="93.5" r="92" stroke="white" stroke-width="3"/>
</g>
<path d="M37.1517 103V88.7H46.0917V90.8H39.8117V94.72H44.8517V96.72H39.8117V100.9H46.4317V103H37.1517ZM53.1919 103.2C50.1919 103.2 47.9119 101.24 47.9119 97.9V97.74C47.9119 94.42 50.2719 92.32 53.1919 92.32C55.5119 92.32 57.6919 93.36 57.9719 96.24H55.6319C55.4319 94.84 54.5119 94.26 53.2319 94.26C51.5719 94.26 50.3919 95.54 50.3919 97.7V97.86C50.3919 100.14 51.5119 101.34 53.2919 101.34C54.5719 101.34 55.6719 100.58 55.8119 99.1H58.0319C57.8519 101.5 56.0319 103.2 53.1919 103.2ZM64.7758 103.2C61.6958 103.2 59.4158 101.06 59.4158 97.88V97.72C59.4158 94.48 61.7158 92.32 64.7958 92.32C67.8558 92.32 70.1558 94.46 70.1558 97.66V97.82C70.1558 101.08 67.8558 103.2 64.7758 103.2ZM64.7958 101.32C66.5958 101.32 67.6758 99.98 67.6758 97.84V97.7C67.6758 95.54 66.5958 94.22 64.7958 94.22C62.9958 94.22 61.8958 95.52 61.8958 97.68V97.84C61.8958 99.98 62.9558 101.32 64.7958 101.32ZM72.0223 98.42V96.42H76.8223V98.42H72.0223ZM79.8131 103V94.36H78.3931V92.54H79.8131V91.14C79.8131 88.84 81.0931 87.6 83.3331 87.6C83.9131 87.6 84.2731 87.66 84.7131 87.8V89.68C84.4331 89.58 84.0531 89.5 83.6131 89.5C82.6331 89.5 82.2331 90.14 82.2331 91.04V92.54H84.6131V94.36H82.2331V103H79.8131ZM86.6392 103V92.54H89.0592V94.5C89.7192 93.18 90.6992 92.4 92.4592 92.38V94.64C90.3392 94.66 89.0592 95.34 89.0592 97.56V103H86.6392ZM95.8284 90.82C95.0284 90.82 94.3884 90.22 94.3884 89.44C94.3884 88.64 95.0284 88.04 95.8284 88.04C96.6284 88.04 97.2684 88.64 97.2684 89.44C97.2684 90.22 96.6284 90.82 95.8284 90.82ZM94.6484 103V92.54H97.0684V103H94.6484ZM104.618 103.2C101.538 103.2 99.3181 101.18 99.3181 97.88V97.72C99.3181 94.48 101.538 92.32 104.518 92.32C107.118 92.32 109.458 93.86 109.458 97.6V98.3H101.798C101.878 100.28 102.878 101.4 104.678 101.4C106.138 101.4 106.898 100.82 107.078 99.8H109.418C109.078 102 107.298 103.2 104.618 103.2ZM101.838 96.68H107.058C106.938 94.88 106.018 94.08 104.518 94.08C103.058 94.08 102.078 95.06 101.838 96.68ZM111.62 103V92.54H114.04V94.2C114.54 93.18 115.7 92.32 117.42 92.32C119.52 92.32 121 93.54 121 96.42V103H118.58V96.64C118.58 95.06 117.94 94.34 116.5 94.34C115.14 94.34 114.04 95.18 114.04 96.84V103H111.62ZM127.708 103.2C125.088 103.2 123.108 101.34 123.108 97.94V97.78C123.108 94.44 125.088 92.32 127.808 92.32C129.508 92.32 130.568 93.1 131.148 94.14V87.7H133.568V103H131.148V101.24C130.588 102.28 129.248 103.2 127.708 103.2ZM128.308 101.28C129.988 101.28 131.228 100.16 131.228 97.82V97.66C131.228 95.36 130.168 94.22 128.408 94.22C126.628 94.22 125.588 95.46 125.588 97.72V97.88C125.588 100.18 126.748 101.28 128.308 101.28ZM136.504 103V87.7H138.924V103H136.504ZM143.034 106.58L144.934 101.94L140.794 92.54H143.414L146.194 99.28L148.754 92.54H151.114L145.414 106.58H143.034ZM50.692 127V116.54H53.112V118.5C53.772 117.18 54.752 116.4 56.512 116.38V118.64C54.392 118.66 53.112 119.34 53.112 121.56V127H50.692ZM63.0263 127.2C59.9463 127.2 57.7263 125.18 57.7263 121.88V121.72C57.7263 118.48 59.9463 116.32 62.9263 116.32C65.5263 116.32 67.8663 117.86 67.8663 121.6V122.3H60.2063C60.2863 124.28 61.2863 125.4 63.0863 125.4C64.5463 125.4 65.3063 124.82 65.4863 123.8H67.8263C67.4863 126 65.7063 127.2 63.0263 127.2ZM60.2463 120.68H65.4663C65.3463 118.88 64.4263 118.08 62.9263 118.08C61.4663 118.08 60.4863 119.06 60.2463 120.68ZM74.6079 127.2C71.6079 127.2 69.3279 125.24 69.3279 121.9V121.74C69.3279 118.42 71.6879 116.32 74.6079 116.32C76.9279 116.32 79.1079 117.36 79.3879 120.24H77.0479C76.8479 118.84 75.9279 118.26 74.6479 118.26C72.9879 118.26 71.8079 119.54 71.8079 121.7V121.86C71.8079 124.14 72.9279 125.34 74.7079 125.34C75.9879 125.34 77.0879 124.58 77.2279 123.1H79.4479C79.2679 125.5 77.4479 127.2 74.6079 127.2ZM82.4965 130.58L84.3965 125.94L80.2565 116.54H82.8765L85.6565 123.28L88.2165 116.54H90.5765L84.8765 130.58H82.4965ZM96.5805 127.2C93.5805 127.2 91.3005 125.24 91.3005 121.9V121.74C91.3005 118.42 93.6605 116.32 96.5805 116.32C98.9005 116.32 101.081 117.36 101.361 120.24H99.0205C98.8205 118.84 97.9005 118.26 96.6205 118.26C94.9605 118.26 93.7805 119.54 93.7805 121.7V121.86C93.7805 124.14 94.9005 125.34 96.6805 125.34C97.9605 125.34 99.0605 124.58 99.2005 123.1H101.421C101.241 125.5 99.4205 127.2 96.5805 127.2ZM103.564 127V111.7H105.984V127H103.564ZM110.174 114.82C109.374 114.82 108.734 114.22 108.734 113.44C108.734 112.64 109.374 112.04 110.174 112.04C110.974 112.04 111.614 112.64 111.614 113.44C111.614 114.22 110.974 114.82 110.174 114.82ZM108.994 127V116.54H111.414V127H108.994ZM114.364 127V116.54H116.784V118.2C117.284 117.18 118.444 116.32 120.164 116.32C122.264 116.32 123.744 117.54 123.744 120.42V127H121.324V120.64C121.324 119.06 120.684 118.34 119.244 118.34C117.884 118.34 116.784 119.18 116.784 120.84V127H114.364ZM130.992 130.84C127.712 130.84 126.232 129.36 125.952 127.36H128.392C128.592 128.4 129.392 129 130.972 129C132.852 129 133.892 128.06 133.892 126.18V124.64C133.312 125.64 132.012 126.58 130.472 126.58C127.852 126.58 125.832 124.62 125.832 121.6V121.46C125.832 118.52 127.832 116.32 130.532 116.32C132.252 116.32 133.292 117.1 133.892 118.14V116.54H136.312V126.22C136.292 129.3 134.232 130.84 130.992 130.84ZM131.072 124.72C132.752 124.72 133.972 123.52 133.972 121.52V121.38C133.972 119.4 132.892 118.22 131.152 118.22C129.352 118.22 128.312 119.52 128.312 121.42V121.58C128.312 123.52 129.512 124.72 131.072 124.72ZM60.723 151.2C57.643 151.2 55.363 149.06 55.363 145.88V145.72C55.363 142.48 57.663 140.32 60.743 140.32C63.803 140.32 66.103 142.46 66.103 145.66V145.82C66.103 149.08 63.803 151.2 60.723 151.2ZM60.743 149.32C62.543 149.32 63.623 147.98 63.623 145.84V145.7C63.623 143.54 62.543 142.22 60.743 142.22C58.943 142.22 57.843 143.52 57.843 145.68V145.84C57.843 147.98 58.903 149.32 60.743 149.32ZM68.2896 154.58V140.54H70.7096V142.22C71.2896 141.22 72.5896 140.32 74.1296 140.32C76.7496 140.32 78.7696 142.26 78.7696 145.64V145.8C78.7696 149.16 76.8296 151.2 74.1296 151.2C72.4696 151.2 71.2696 150.38 70.7096 149.36V154.58H68.2896ZM73.5296 149.28C75.3096 149.28 76.2896 148.08 76.2896 145.84V145.68C76.2896 143.36 75.0896 142.22 73.5096 142.22C71.8296 142.22 70.6296 143.36 70.6296 145.68V145.84C70.6296 148.18 71.7696 149.28 73.5296 149.28ZM84.5059 151.18C82.4259 151.18 81.3459 150.06 81.3459 148.08V142.36H79.9459V140.54H81.3459V138.24H83.7659V140.54H86.0659V142.36H83.7659V147.86C83.7659 148.78 84.2059 149.2 84.9659 149.2C85.4459 149.2 85.8059 149.14 86.1459 149V150.92C85.7659 151.06 85.2459 151.18 84.5059 151.18ZM89.5687 138.82C88.7687 138.82 88.1287 138.22 88.1287 137.44C88.1287 136.64 88.7687 136.04 89.5687 136.04C90.3687 136.04 91.0087 136.64 91.0087 137.44C91.0087 138.22 90.3687 138.82 89.5687 138.82ZM88.3887 151V140.54H90.8087V151H88.3887ZM98.4184 151.2C95.3384 151.2 93.0584 149.06 93.0584 145.88V145.72C93.0584 142.48 95.3584 140.32 98.4384 140.32C101.498 140.32 103.798 142.46 103.798 145.66V145.82C103.798 149.08 101.498 151.2 98.4184 151.2ZM98.4384 149.32C100.238 149.32 101.318 147.98 101.318 145.84V145.7C101.318 143.54 100.238 142.22 98.4384 142.22C96.6384 142.22 95.5384 143.52 95.5384 145.68V145.84C95.5384 147.98 96.5984 149.32 98.4384 149.32ZM105.985 151V140.54H108.405V142.2C108.905 141.18 110.065 140.32 111.785 140.32C113.885 140.32 115.365 141.54 115.365 144.42V151H112.945V144.64C112.945 143.06 112.305 142.34 110.865 142.34C109.505 142.34 108.405 143.18 108.405 144.84V151H105.985ZM121.733 151.2C119.033 151.2 117.453 149.96 117.353 147.74H119.633C119.753 148.8 120.293 149.42 121.713 149.42C123.013 149.42 123.593 148.96 123.593 148.08C123.593 147.22 122.893 146.9 121.353 146.64C118.593 146.2 117.573 145.42 117.573 143.46C117.573 141.36 119.533 140.32 121.493 140.32C123.633 140.32 125.333 141.12 125.593 143.48H123.353C123.153 142.52 122.613 142.08 121.493 142.08C120.453 142.08 119.833 142.58 119.833 143.32C119.833 144.08 120.333 144.38 121.993 144.66C124.453 145.04 125.913 145.64 125.913 147.86C125.913 149.98 124.413 151.2 121.733 151.2ZM129.476 151.14C128.596 151.14 127.896 150.46 127.896 149.58C127.896 148.7 128.596 148 129.476 148C130.376 148 131.076 148.7 131.076 149.58C131.076 150.46 130.376 151.14 129.476 151.14Z" fill="white"/>
<path d="M92.3727 32.625C87.6674 32.6256 83.1417 34.4312 79.7282 37.6696C76.3147 40.9081 74.2736 45.3326 74.0256 50.0313C73.7775 54.73 75.3414 59.3449 78.395 62.9247C81.4485 66.5046 85.759 68.7766 90.4381 69.2726C90.5299 68.4694 90.7281 67.5952 91.0313 66.6844L90.9788 66.6804C87.5382 66.3766 84.2949 64.9428 81.7546 62.6025C81.5446 61.1194 81.2164 58.4419 82.2664 57.0375C82.506 56.6641 82.8363 56.3575 83.2265 56.1463C83.6167 55.9351 84.054 55.8263 84.4977 55.83C85.0192 55.7984 85.5266 55.6484 85.9814 55.3915C86.4362 55.1345 86.8265 54.7772 87.1227 54.3469C87.4575 53.7244 87.6499 53.0354 87.6862 52.3295C87.7226 51.6237 87.6018 50.9186 87.3327 50.265C86.9914 48.9525 86.8077 48.0731 87.4639 47.1938C87.9644 46.8826 88.5085 46.6482 89.0783 46.4981L89.1243 46.4824C90.7859 45.9206 93.0211 45.1633 93.5933 42.7706C94.3113 39.7821 93.1248 37.6217 92.0301 35.6267L91.9527 35.4862L91.8871 35.25H92.3727C95.3429 35.25 98.2527 36.0979 100.76 37.6913C99.3798 39.828 97.7201 41.7702 95.8246 43.4663C94.0133 45.1069 95.3389 46.9969 96.2183 48.2437C97.0819 49.1692 97.582 50.3755 97.6266 51.6405C98.4604 51.2828 99.3249 51.0016 100.21 50.8005C99.9829 49.3095 99.3463 47.9108 98.3708 46.7606C98.0423 46.3663 97.7767 45.9235 97.5833 45.4481C99.5964 43.6459 101.362 41.5848 102.833 39.3187C104.432 40.7407 105.723 42.4747 106.626 44.414C107.53 46.3534 108.027 48.4571 108.087 50.5958C109.019 50.727 109.912 50.8963 110.748 51.0866V51C110.748 46.1266 108.812 41.4529 105.366 38.0069C101.92 34.5609 97.246 32.625 92.3727 32.625ZM89.0783 35.6044C89.2883 36.0113 89.4983 36.3919 89.7214 36.7856L89.7569 36.8512C90.7413 38.6074 91.5918 40.1312 91.0339 42.1669C90.8108 43.0594 89.7214 43.4794 88.2252 44.0044C87.1513 44.2564 86.1748 44.8177 85.4164 45.6187C84.9025 46.382 84.5825 47.259 84.4841 48.1739C84.3858 49.0887 84.5121 50.0137 84.8521 50.8687C85.1014 51.84 85.2458 52.4438 84.9833 52.8375C84.7969 53.1184 84.7759 53.1184 84.5279 53.1289C84.4281 53.1328 84.2916 53.1394 84.0908 53.1656C83.3083 53.2147 82.5472 53.4411 81.865 53.8276C81.1829 54.2142 80.5975 54.7508 80.1533 55.3969C79.3973 56.4966 78.9736 57.7905 78.9327 59.1244C77.428 56.6812 76.6285 53.8694 76.6227 51C76.6241 47.396 77.8614 43.9015 80.1282 41.0997C82.3949 38.2979 85.5541 36.3582 89.0783 35.6044ZM95.4925 65.8378C96.5071 66.8996 98.3538 68.0625 101.56 68.0625C107.196 68.0625 108.96 60.8044 109.762 57.5074C109.893 56.964 109.998 56.5282 110.091 56.25C110.291 55.6541 110.804 55.2131 111.38 54.8797C112.286 54.36 112.307 53.5148 111.296 53.2496C106.533 52.0014 99.4444 51.3045 94.9977 55.7499C93.1549 57.5927 93.1838 60.0077 93.5631 61.7704C93.6393 61.6636 93.7171 61.5564 93.7968 61.4488C95.8626 58.6532 98.8879 56.0544 102.879 54.6658C103.123 54.5887 103.388 54.6097 103.617 54.7245C103.846 54.8394 104.021 55.0389 104.105 55.2808C104.19 55.5227 104.176 55.7879 104.068 56.02C103.96 56.2522 103.766 56.4331 103.526 56.5243C99.9694 57.762 97.2526 60.0851 95.3796 62.6196C93.5106 65.1501 92.5315 67.8262 92.3727 69.7359C92.382 69.9867 92.4868 70.2245 92.6656 70.4006C92.8444 70.5767 93.0838 70.6779 93.3347 70.6834C93.5856 70.6889 93.8292 70.5984 94.0155 70.4304C94.2019 70.2623 94.3171 70.0294 94.3375 69.7793C94.4294 68.5888 94.81 67.2186 95.4925 65.8378Z" fill="white"/>
<defs>
<filter id="filter0_d_242_115" x="0" y="0" width="195" height="197" filterUnits="userSpaceOnUse" color-interpolation-filters="sRGB">
<feFlood flood-opacity="0" result="BackgroundImageFix"/>
<feColorMatrix in="SourceAlpha" type="matrix" values="0 0 0 0 0 0 0 0 0 0 0 0 0 0 0 0 0 0 127 0" result="hardAlpha"/>
<feOffset dx="8" dy="10"/>
<feComposite in2="hardAlpha" operator="out"/>
<feColorMatrix type="matrix" values="0 0 0 0 0 0 0 0 0 0 0 0 0 0 0 0 0 0 1 0"/>
<feBlend mode="normal" in2="BackgroundImageFix" result="effect1_dropShadow_242_115"/>
<feBlend mode="normal" in="SourceGraphic" in2="effect1_dropShadow_242_115" result="shape"/>
</filter>
<linearGradient id="paint0_linear_242_115" x1="0" y1="93.5" x2="187" y2="93.5" gradientUnits="userSpaceOnUse">
<stop stop-color="#1475ED"/>
<stop offset="1" stop-color="#0E52A5"/>
</linearGradient>
</defs>
</svg>
