<svg width="31" height="32" viewBox="0 0 31 32" fill="none" xmlns="http://www.w3.org/2000/svg">
<path d="M18.6384 17.8654C17.7739 18.8468 16.7212 19.6498 15.5364 20.2319V23.5777C15.5364 23.8735 15.4184 24.1572 15.2084 24.3664C14.9984 24.5755 14.7136 24.693 14.4166 24.693H7.6974C7.40039 24.693 7.11555 24.5755 6.90553 24.3664C6.69552 24.1572 6.57753 23.8735 6.57753 23.5777V20.2319C4.21764 19.0588 2.41353 17.0112 1.55236 14.5284C0.691195 12.0457 0.841592 9.32563 1.97128 6.95205C3.10097 4.57846 5.11992 2.74047 7.59488 1.8325C10.0698 0.924537 12.8036 1.01895 15.2094 2.09548M6.57753 30.2002H15.5364M16.3741 8.86292C15.5879 8.72686 15.5879 7.60267 16.3741 7.46661C17.7656 7.22422 19.0532 6.57522 20.0734 5.60214C21.0936 4.62905 21.8001 3.37583 22.1033 2.0018L22.1503 1.78321C22.3206 1.00921 23.427 1.00475 23.6039 1.77652L23.6621 2.02857C23.975 3.39728 24.6874 4.64326 25.7096 5.60971C26.7318 6.57617 28.0183 7.2199 29.407 7.45991C30.1977 7.59821 30.1977 8.72686 29.407 8.86515C28.0187 9.10556 26.7327 9.74948 25.7109 10.7159C24.6891 11.6823 23.9771 12.9281 23.6644 14.2965L23.6062 14.5485C23.4292 15.3203 22.3228 15.3159 22.1526 14.5419L22.1078 14.3255C21.8043 12.9509 21.0971 11.6972 20.0761 10.7241C19.055 9.75091 17.7664 9.1045 16.3741 8.86292Z" stroke="white" stroke-opacity="0.4" stroke-width="2" stroke-linecap="round" stroke-linejoin="round"/>
</svg>
