<svg width="37" height="24" viewBox="0 0 37 24" fill="none" xmlns="http://www.w3.org/2000/svg">
<path d="M33.9468 3.23691C34.9344 4.21921 35.6872 5.33327 36.2051 6.5791C36.723 7.82493 36.988 9.14863 37 10.5502C37 10.9695 36.988 11.4726 36.9639 12.0596C36.9398 12.6465 36.8916 13.2814 36.8193 13.9643C36.7471 14.6471 36.6326 15.3479 36.4761 16.0666C36.3195 16.7854 36.1208 17.4981 35.8799 18.2049C35.5186 19.2351 35.097 20.0736 34.6152 20.7205C34.1335 21.3674 33.6336 21.8765 33.1157 22.2479C32.5978 22.6192 32.0739 22.8708 31.5439 23.0025C31.014 23.1343 30.5202 23.2002 30.0625 23.2002C29.665 23.2002 29.3037 23.1343 28.9785 23.0025C28.6533 22.8708 28.3402 22.6911 28.0391 22.4635C27.738 22.2359 27.4609 21.9903 27.208 21.7268C26.9551 21.4632 26.6961 21.1757 26.4312 20.8643C26.1782 20.5768 25.9313 20.3012 25.6904 20.0377C25.4495 19.7742 25.1906 19.5406 24.9136 19.3369C24.6366 19.1333 24.3595 18.9596 24.0825 18.8158C23.8055 18.6721 23.4803 18.6002 23.1069 18.6002H13.8931C13.5438 18.6122 13.2246 18.684 12.9355 18.8158C12.6465 18.9476 12.3634 19.1153 12.0864 19.3189C11.8094 19.5226 11.5565 19.7622 11.3276 20.0377C11.0988 20.3132 10.8459 20.5887 10.5688 20.8643C10.3159 21.1518 10.063 21.4333 9.81006 21.7088C9.55713 21.9843 9.28011 22.2359 8.979 22.4635C8.6779 22.6911 8.36475 22.8648 8.03955 22.9846C7.71436 23.1044 7.34701 23.1762 6.9375 23.2002C6.47982 23.2002 5.986 23.1343 5.45605 23.0025C4.92611 22.8708 4.40218 22.6252 3.88428 22.2658C3.36637 21.9064 2.86654 21.3973 2.38477 20.7385C1.90299 20.0796 1.48145 19.2351 1.12012 18.2049C0.879232 17.5101 0.686523 16.8033 0.541992 16.0846C0.397461 15.3658 0.28304 14.659 0.19873 13.9643C0.114421 13.2695 0.0602214 12.6346 0.0361328 12.0596C0.0120443 11.4846 0 10.9814 0 10.5502C0 9.16061 0.258952 7.8429 0.776855 6.59707C1.29476 5.35124 2.05355 4.23118 3.05322 3.23691C4.02881 2.25462 5.14893 1.50592 6.41357 0.99082C7.67822 0.475716 9.00911 0.212174 10.4062 0.200195H26.5938C27.9909 0.200195 29.3158 0.457747 30.5684 0.972852C31.821 1.48796 32.9471 2.24264 33.9468 3.23691ZM33.6938 17.4502C33.9227 16.8153 34.1034 16.1564 34.2358 15.4736C34.3683 14.7908 34.4647 14.138 34.5249 13.515C34.5851 12.8921 34.6273 12.3171 34.6514 11.79C34.6755 11.263 34.6875 10.8497 34.6875 10.5502C34.6875 9.43613 34.4767 8.39395 34.0552 7.42363C33.6336 6.45332 33.0555 5.6028 32.3208 4.87207C31.5861 4.14134 30.731 3.56634 29.7554 3.14707C28.7798 2.7278 27.7259 2.51217 26.5938 2.5002H10.4062C9.28613 2.5002 8.23828 2.70983 7.2627 3.1291C6.28711 3.54837 5.43197 4.12337 4.69727 4.8541C3.96257 5.58483 3.38444 6.43535 2.96289 7.40566C2.54134 8.37598 2.32454 9.42415 2.3125 10.5502C2.3125 10.8617 2.31852 11.2749 2.33057 11.79C2.34261 12.3051 2.38477 12.8742 2.45703 13.4971C2.5293 14.12 2.63167 14.7788 2.76416 15.4736C2.89665 16.1684 3.07731 16.8273 3.30615 17.4502C3.60726 18.3127 3.93848 18.9775 4.2998 19.4447C4.66113 19.9119 5.01042 20.2533 5.34766 20.4689C5.6849 20.6846 5.99805 20.8104 6.28711 20.8463C6.57617 20.8822 6.79297 20.9002 6.9375 20.9002C7.20247 20.9002 7.49154 20.7445 7.80469 20.433C8.11784 20.1215 8.45508 19.7622 8.81641 19.3549C9.10547 19.0195 9.4126 18.6781 9.73779 18.3307C10.063 17.9833 10.4303 17.6598 10.8398 17.3604C11.2493 17.0609 11.701 16.8153 12.1948 16.6236C12.6886 16.432 13.2367 16.3242 13.8389 16.3002H23.1611C23.7633 16.3242 24.3114 16.432 24.8052 16.6236C25.299 16.8153 25.7446 17.0549 26.1421 17.3424C26.5396 17.6299 26.9069 17.9533 27.2441 18.3127C27.5814 18.6721 27.8945 19.0195 28.1836 19.3549C28.5329 19.7502 28.8641 20.1036 29.1772 20.415C29.4904 20.7265 29.7855 20.8882 30.0625 20.9002C30.207 20.9002 30.4178 20.8822 30.6948 20.8463C30.9718 20.8104 31.285 20.6846 31.6343 20.4689C31.9836 20.2533 32.3389 19.9119 32.7002 19.4447C33.0615 18.9775 33.3927 18.3127 33.6938 17.4502ZM9.25 9.4002H11.5625V11.7002H9.25V14.0002H6.9375V11.7002H4.625V9.4002H6.9375V7.1002H9.25V9.4002ZM30.0625 11.7002C30.3877 11.7002 30.6888 11.7601 30.9658 11.8799C31.2428 11.9997 31.4837 12.1614 31.6885 12.365C31.8932 12.5687 32.0618 12.8143 32.1943 13.1018C32.3268 13.3893 32.387 13.6887 32.375 14.0002C32.375 14.3236 32.3148 14.6231 32.1943 14.8986C32.0739 15.1742 31.9113 15.4137 31.7065 15.6174C31.5018 15.821 31.2549 15.9887 30.9658 16.1205C30.6768 16.2523 30.3757 16.3122 30.0625 16.3002C29.7373 16.3002 29.4362 16.2403 29.1592 16.1205C28.8822 16.0007 28.6413 15.839 28.4365 15.6354C28.2318 15.4317 28.0632 15.1861 27.9307 14.8986C27.7982 14.6111 27.738 14.3117 27.75 14.0002C27.75 13.6768 27.8102 13.3773 27.9307 13.1018C28.0511 12.8262 28.2137 12.5867 28.4185 12.383C28.6232 12.1794 28.8701 12.0117 29.1592 11.8799C29.4482 11.7481 29.7493 11.6882 30.0625 11.7002ZM25.4375 7.1002C25.7627 7.1002 26.0638 7.16009 26.3408 7.27988C26.6178 7.39967 26.8587 7.56139 27.0635 7.76504C27.2682 7.96868 27.4368 8.21426 27.5693 8.50176C27.7018 8.78926 27.762 9.08874 27.75 9.4002C27.75 9.72363 27.6898 10.0231 27.5693 10.2986C27.4489 10.5742 27.2863 10.8137 27.0815 11.0174C26.8768 11.221 26.6299 11.3887 26.3408 11.5205C26.0518 11.6523 25.7507 11.7122 25.4375 11.7002C25.1123 11.7002 24.8112 11.6403 24.5342 11.5205C24.2572 11.4007 24.0163 11.239 23.8115 11.0354C23.6068 10.8317 23.4382 10.5861 23.3057 10.2986C23.1732 10.0111 23.113 9.71165 23.125 9.4002C23.125 9.07676 23.1852 8.77728 23.3057 8.50176C23.4261 8.22624 23.5887 7.98665 23.7935 7.78301C23.9982 7.57936 24.2451 7.41165 24.5342 7.27988C24.8232 7.14811 25.1243 7.08822 25.4375 7.1002Z" fill="white" fill-opacity="0.4"/>
</svg>
