<svg width="28" height="26" viewBox="0 0 28 26" fill="none" xmlns="http://www.w3.org/2000/svg">
<path d="M25.2 2.97993H20.762L18.2 0.202148H9.8L7.238 2.97993H2.8C2.05739 2.97993 1.3452 3.27258 0.820101 3.79352C0.294999 4.31445 0 5.02099 0 5.7577V22.4244C0 23.1611 0.294999 23.8676 0.820101 24.3886C1.3452 24.9095 2.05739 25.2021 2.8 25.2021H25.2C25.9426 25.2021 26.6548 24.9095 27.1799 24.3886C27.705 23.8676 28 23.1611 28 22.4244V5.7577C28 5.02099 27.705 4.31445 27.1799 3.79352C26.6548 3.27258 25.9426 2.97993 25.2 2.97993ZM25.2 22.4244H2.8V5.7577H8.47L11.032 2.97993H16.968L19.53 5.7577H25.2V22.4244ZM14 7.14659C12.1435 7.14659 10.363 7.87824 9.05025 9.18057C7.7375 10.4829 7 12.2493 7 14.091C7 15.9328 7.7375 17.6992 9.05025 19.0015C10.363 20.3038 12.1435 21.0355 14 21.0355C15.8565 21.0355 17.637 20.3038 18.9497 19.0015C20.2625 17.6992 21 15.9328 21 14.091C21 12.2493 20.2625 10.4829 18.9497 9.18057C17.637 7.87824 15.8565 7.14659 14 7.14659ZM14 18.2577C12.8861 18.2577 11.8178 17.8187 11.0302 17.0373C10.2425 16.2559 9.8 15.1961 9.8 14.091C9.8 12.986 10.2425 11.9262 11.0302 11.1448C11.8178 10.3634 12.8861 9.92437 14 9.92437C15.1139 9.92437 16.1822 10.3634 16.9698 11.1448C17.7575 11.9262 18.2 12.986 18.2 14.091C18.2 15.1961 17.7575 16.2559 16.9698 17.0373C16.1822 17.8187 15.1139 18.2577 14 18.2577Z" fill="#1475ED"/>
<path d="M25.2 2.97993H20.762L18.2 0.202148H9.8L7.238 2.97993H2.8C2.05739 2.97993 1.3452 3.27258 0.820101 3.79352C0.294999 4.31445 0 5.02099 0 5.7577V22.4244C0 23.1611 0.294999 23.8676 0.820101 24.3886C1.3452 24.9095 2.05739 25.2021 2.8 25.2021H25.2C25.9426 25.2021 26.6548 24.9095 27.1799 24.3886C27.705 23.8676 28 23.1611 28 22.4244V5.7577C28 5.02099 27.705 4.31445 27.1799 3.79352C26.6548 3.27258 25.9426 2.97993 25.2 2.97993ZM25.2 22.4244H2.8V5.7577H8.47L11.032 2.97993H16.968L19.53 5.7577H25.2V22.4244ZM14 7.14659C12.1435 7.14659 10.363 7.87824 9.05025 9.18057C7.7375 10.4829 7 12.2493 7 14.091C7 15.9328 7.7375 17.6992 9.05025 19.0015C10.363 20.3038 12.1435 21.0355 14 21.0355C15.8565 21.0355 17.637 20.3038 18.9497 19.0015C20.2625 17.6992 21 15.9328 21 14.091C21 12.2493 20.2625 10.4829 18.9497 9.18057C17.637 7.87824 15.8565 7.14659 14 7.14659ZM14 18.2577C12.8861 18.2577 11.8178 17.8187 11.0302 17.0373C10.2425 16.2559 9.8 15.1961 9.8 14.091C9.8 12.986 10.2425 11.9262 11.0302 11.1448C11.8178 10.3634 12.8861 9.92437 14 9.92437C15.1139 9.92437 16.1822 10.3634 16.9698 11.1448C17.7575 11.9262 18.2 12.986 18.2 14.091C18.2 15.1961 17.7575 16.2559 16.9698 17.0373C16.1822 17.8187 15.1139 18.2577 14 18.2577Z" fill="url(#paint0_linear_273_818)"/>
<defs>
<linearGradient id="paint0_linear_273_818" x1="0" y1="12.7021" x2="28" y2="12.7021" gradientUnits="userSpaceOnUse">
<stop stop-color="#1475ED"/>
<stop offset="1" stop-color="#0E52A5"/>
</linearGradient>
</defs>
</svg>
