<svg width="30" height="32" viewBox="0 0 30 32" fill="none" xmlns="http://www.w3.org/2000/svg">
<path d="M8.98396 15.7104V20.9136M11.568 18.3131H6.39995M10.6708 10.1358H8.62153C6.96996 10.1361 5.37651 10.7493 4.14605 11.858C2.9156 12.9667 2.13454 14.493 1.95232 16.145L1.03057 24.498C0.89971 25.6964 1.1916 26.9029 1.8552 27.9067C2.51881 28.9105 3.5119 29.6475 4.66083 29.989C5.80977 30.3305 7.04143 30.2547 8.14045 29.7749C9.23948 29.2951 10.1359 28.4417 10.6731 27.3641L11.4785 25.743H18.1253L18.9307 27.3641C19.4679 28.4421 20.3645 29.2957 21.4639 29.7756C22.5632 30.2555 23.7952 30.3312 24.9443 29.9894C26.0935 29.6475 27.0866 28.9099 27.75 27.9057C28.4134 26.9014 28.7048 25.6943 28.5732 24.4957L27.6515 16.1427M18.6757 19.6122C18.6757 19.4642 18.7341 19.3221 18.8382 19.2174C18.9423 19.1127 19.0834 19.0539 19.2305 19.0539C19.3777 19.0539 19.5188 19.1127 19.6229 19.2174C19.7269 19.3221 19.7854 19.4642 19.7854 19.6122C19.7902 19.6884 19.7794 19.7647 19.7538 19.8366C19.7281 19.9084 19.6881 19.9741 19.6362 20.0298C19.5843 20.0854 19.5217 20.1298 19.4521 20.1601C19.3825 20.1904 19.3075 20.206 19.2316 20.206C19.1558 20.206 19.0808 20.1904 19.0112 20.1601C18.9416 20.1298 18.8789 20.0854 18.8271 20.0298C18.7752 19.9741 18.7352 19.9084 18.7095 19.8366C18.6839 19.7647 18.6731 19.6884 18.6779 19.6122M15.3892 8.93573C14.6039 8.79613 14.6039 7.66364 15.3892 7.5263C16.7791 7.28163 18.0654 6.62655 19.0844 5.64432C20.1034 4.6621 20.8092 3.39711 21.112 2.01018L21.159 1.78953C21.3291 1.00827 22.4343 1.00151 22.611 1.78278L22.6692 2.03719C22.9817 3.41876 23.6932 4.67644 24.7143 5.65197C25.7355 6.6275 27.0205 7.27728 28.4077 7.51955C29.1974 7.65689 29.1974 8.79839 28.4077 8.93798C27.0209 9.18065 25.7364 9.83061 24.7157 10.8061C23.695 11.7816 22.9837 13.0391 22.6714 14.4203L22.6132 14.6725C22.4365 15.4515 21.3313 15.447 21.1613 14.6657L21.1165 14.4496C20.8134 13.062 20.1069 11.7966 19.0871 10.8143C18.0672 9.83205 16.7799 9.17958 15.3892 8.93573Z" stroke="white" stroke-opacity="0.4" stroke-width="2" stroke-linecap="round" stroke-linejoin="round"/>
</svg>
