<svg width="30" height="30" viewBox="0 0 30 30" fill="none" xmlns="http://www.w3.org/2000/svg">
<path d="M13.4446 13.2005L5.66785 5.70233M14.6842 18.4492L23.4004 26.8531C23.5954 27.0415 23.8271 27.191 24.0821 27.293C24.3371 27.395 24.6105 27.4475 24.8865 27.4475C25.1626 27.4475 25.436 27.395 25.691 27.293C25.946 27.191 26.1776 27.0415 26.3727 26.8531L27.6045 25.6654C27.7999 25.4774 27.9549 25.254 28.0607 25.0082C28.1665 24.7623 28.2209 24.4987 28.2209 24.2325C28.2209 23.9663 28.1665 23.7028 28.0607 23.4569C27.9549 23.211 27.7999 22.9877 27.6045 22.7996L18.8883 14.3957M4.1125 7.95178L8.00088 4.2027L3.33483 1.95325L1.77948 3.45288L4.1125 7.95178ZM27.4039 10.1637C28.1506 9.44439 28.6643 8.53123 28.8825 7.53544C29.1006 6.53965 29.0138 5.50418 28.6326 4.55511L26.4209 6.68759H23.3102V3.68832L25.5219 1.55585C24.5375 1.18745 23.4632 1.10305 22.4299 1.31293C21.3967 1.52281 20.449 2.01792 19.7024 2.73792C18.9558 3.45792 18.4425 4.37174 18.2251 5.36804C18.0076 6.36435 18.0954 7.40012 18.4777 8.34918L8.4146 18.0533C7.43028 17.6847 6.35602 17.6001 5.3227 17.8097C4.28938 18.0194 3.34161 18.5143 2.59486 19.2341C1.8481 19.954 1.33461 20.8677 1.11693 21.8639C0.899246 22.8602 0.986781 23.896 1.36887 24.8451L3.57902 22.7127H6.68972V25.7119L4.47801 27.8444C5.46216 28.2128 6.53618 28.2973 7.56927 28.0877C8.60236 27.8781 9.54995 27.3833 10.2966 26.6637C11.0433 25.9441 11.5568 25.0307 11.7747 24.0347C11.9926 23.0387 11.9054 22.0031 11.5237 21.0541L21.59 11.3484C22.5739 11.7154 23.6472 11.7987 24.6794 11.5884C25.7115 11.3781 26.6581 10.8831 27.4039 10.1637Z" stroke="white" stroke-opacity="0.4" stroke-width="2" stroke-linecap="round" stroke-linejoin="round"/>
</svg>
