<svg width="19" height="32" viewBox="0 0 19 32" fill="none" xmlns="http://www.w3.org/2000/svg">
<path d="M5.6376 26.9757C5.6376 26.7621 5.72244 26.5573 5.87345 26.4063C6.02447 26.2553 6.22928 26.1704 6.44285 26.1704H12.0795C12.2931 26.1704 12.4979 26.2553 12.6489 26.4063C12.8 26.5573 12.8848 26.7621 12.8848 26.9757C12.8848 27.1892 12.8 27.3941 12.6489 27.5451C12.4979 27.6961 12.2931 27.7809 12.0795 27.7809H6.44285C6.22928 27.7809 6.02447 27.6961 5.87345 27.5451C5.72244 27.3941 5.6376 27.1892 5.6376 26.9757Z" fill="#1475ED"/>
<path d="M5.6376 26.9757C5.6376 26.7621 5.72244 26.5573 5.87345 26.4063C6.02447 26.2553 6.22928 26.1704 6.44285 26.1704H12.0795C12.2931 26.1704 12.4979 26.2553 12.6489 26.4063C12.8 26.5573 12.8848 26.7621 12.8848 26.9757C12.8848 27.1892 12.8 27.3941 12.6489 27.5451C12.4979 27.6961 12.2931 27.7809 12.0795 27.7809H6.44285C6.22928 27.7809 6.02447 27.6961 5.87345 27.5451C5.72244 27.3941 5.6376 27.1892 5.6376 26.9757Z" fill="url(#paint0_linear_242_150)"/>
<path d="M6.31311 0H12.2075C13.0691 0 13.7858 -4.47035e-08 14.3736 0.0483146C14.9856 0.0966292 15.5589 0.206142 16.1016 0.483146C16.9352 0.907784 17.6128 1.58544 18.0375 2.41895C18.3145 2.96169 18.424 3.53502 18.4723 4.147C18.5206 4.73483 18.5206 5.4515 18.5206 6.31311V25.0914C18.5206 25.953 18.5206 26.6697 18.4723 27.2575C18.424 27.8695 18.3145 28.4428 18.0375 28.9855C17.6132 29.8188 16.9362 30.4964 16.1033 30.9214C15.5589 31.1984 14.9856 31.3079 14.3736 31.3562C13.7858 31.4045 13.0691 31.4045 12.2091 31.4045H6.31311C5.4515 31.4045 4.73483 31.4045 4.147 31.3562C3.53502 31.3079 2.96169 31.1984 2.41895 30.9214C1.58593 30.4976 0.908331 29.8211 0.483146 28.9888C0.206143 28.4444 0.0966295 27.8711 0.0483149 27.2591C3.39001e-07 26.6713 0 25.9546 0 25.093V6.31311C0 5.4515 3.39001e-07 4.73483 0.0483149 4.147C0.0966295 3.53502 0.206143 2.96169 0.483146 2.41895C0.907784 1.58544 1.58544 0.907784 2.41895 0.483146C2.96169 0.206142 3.53502 0.0966292 4.147 0.0483146C4.73483 -4.47035e-08 5.4515 0 6.31311 0ZM4.34348 2.45599C3.88127 2.49303 3.66064 2.56067 3.51569 2.63476C3.13629 2.82787 2.82787 3.13629 2.63476 3.51569C2.56067 3.66064 2.49303 3.88127 2.45599 4.34348C2.41734 4.82019 2.41573 5.43861 2.41573 6.36142V25.0431C2.41573 25.9643 2.41573 26.5843 2.45599 27.0594C2.49303 27.5232 2.56067 27.7439 2.63476 27.8888C2.82802 28.2689 3.13562 28.5765 3.51569 28.7697C3.66064 28.8438 3.88127 28.9115 4.34348 28.9485C4.82019 28.9872 5.43861 28.9888 6.36142 28.9888H12.1592C13.0804 28.9888 13.7004 28.9888 14.1755 28.9485C14.6393 28.9115 14.86 28.8438 15.0065 28.7697C15.3853 28.5764 15.6932 28.268 15.8858 27.8888C15.9599 27.7439 16.0276 27.5232 16.0646 27.0594C16.1033 26.5843 16.1049 25.9643 16.1049 25.0431V6.36142C16.1049 5.44022 16.1049 4.82019 16.0646 4.34348C16.0276 3.88127 15.9599 3.66064 15.8858 3.51569C15.6932 3.13653 15.3853 2.82814 15.0065 2.63476C14.86 2.56067 14.6393 2.49303 14.1771 2.45599C13.8357 2.43154 13.4935 2.41918 13.1512 2.41895L12.9515 3.01966C12.7824 3.52536 12.6971 3.77981 12.5409 3.96663C12.4028 4.13173 12.2257 4.25963 12.0255 4.33865C11.7968 4.42884 11.5295 4.42884 10.9948 4.42884H7.52581C6.99112 4.42884 6.72378 4.42884 6.49509 4.33865C6.29511 4.26009 6.11795 4.13275 5.97974 3.96824C5.82352 3.77981 5.73816 3.52536 5.56906 3.01805L5.36936 2.41895C5.02707 2.41918 4.6849 2.43154 4.34348 2.45599Z" fill="#1475ED"/>
<path d="M6.31311 0H12.2075C13.0691 0 13.7858 -4.47035e-08 14.3736 0.0483146C14.9856 0.0966292 15.5589 0.206142 16.1016 0.483146C16.9352 0.907784 17.6128 1.58544 18.0375 2.41895C18.3145 2.96169 18.424 3.53502 18.4723 4.147C18.5206 4.73483 18.5206 5.4515 18.5206 6.31311V25.0914C18.5206 25.953 18.5206 26.6697 18.4723 27.2575C18.424 27.8695 18.3145 28.4428 18.0375 28.9855C17.6132 29.8188 16.9362 30.4964 16.1033 30.9214C15.5589 31.1984 14.9856 31.3079 14.3736 31.3562C13.7858 31.4045 13.0691 31.4045 12.2091 31.4045H6.31311C5.4515 31.4045 4.73483 31.4045 4.147 31.3562C3.53502 31.3079 2.96169 31.1984 2.41895 30.9214C1.58593 30.4976 0.908331 29.8211 0.483146 28.9888C0.206143 28.4444 0.0966295 27.8711 0.0483149 27.2591C3.39001e-07 26.6713 0 25.9546 0 25.093V6.31311C0 5.4515 3.39001e-07 4.73483 0.0483149 4.147C0.0966295 3.53502 0.206143 2.96169 0.483146 2.41895C0.907784 1.58544 1.58544 0.907784 2.41895 0.483146C2.96169 0.206142 3.53502 0.0966292 4.147 0.0483146C4.73483 -4.47035e-08 5.4515 0 6.31311 0ZM4.34348 2.45599C3.88127 2.49303 3.66064 2.56067 3.51569 2.63476C3.13629 2.82787 2.82787 3.13629 2.63476 3.51569C2.56067 3.66064 2.49303 3.88127 2.45599 4.34348C2.41734 4.82019 2.41573 5.43861 2.41573 6.36142V25.0431C2.41573 25.9643 2.41573 26.5843 2.45599 27.0594C2.49303 27.5232 2.56067 27.7439 2.63476 27.8888C2.82802 28.2689 3.13562 28.5765 3.51569 28.7697C3.66064 28.8438 3.88127 28.9115 4.34348 28.9485C4.82019 28.9872 5.43861 28.9888 6.36142 28.9888H12.1592C13.0804 28.9888 13.7004 28.9888 14.1755 28.9485C14.6393 28.9115 14.86 28.8438 15.0065 28.7697C15.3853 28.5764 15.6932 28.268 15.8858 27.8888C15.9599 27.7439 16.0276 27.5232 16.0646 27.0594C16.1033 26.5843 16.1049 25.9643 16.1049 25.0431V6.36142C16.1049 5.44022 16.1049 4.82019 16.0646 4.34348C16.0276 3.88127 15.9599 3.66064 15.8858 3.51569C15.6932 3.13653 15.3853 2.82814 15.0065 2.63476C14.86 2.56067 14.6393 2.49303 14.1771 2.45599C13.8357 2.43154 13.4935 2.41918 13.1512 2.41895L12.9515 3.01966C12.7824 3.52536 12.6971 3.77981 12.5409 3.96663C12.4028 4.13173 12.2257 4.25963 12.0255 4.33865C11.7968 4.42884 11.5295 4.42884 10.9948 4.42884H7.52581C6.99112 4.42884 6.72378 4.42884 6.49509 4.33865C6.29511 4.26009 6.11795 4.13275 5.97974 3.96824C5.82352 3.77981 5.73816 3.52536 5.56906 3.01805L5.36936 2.41895C5.02707 2.41918 4.6849 2.43154 4.34348 2.45599Z" fill="url(#paint1_linear_242_150)"/>
<defs>
<linearGradient id="paint0_linear_242_150" x1="0" y1="15.7022" x2="18.5206" y2="15.7022" gradientUnits="userSpaceOnUse">
<stop stop-color="#1475ED"/>
<stop offset="1" stop-color="#0E52A5"/>
</linearGradient>
<linearGradient id="paint1_linear_242_150" x1="0" y1="15.7022" x2="18.5206" y2="15.7022" gradientUnits="userSpaceOnUse">
<stop stop-color="#1475ED"/>
<stop offset="1" stop-color="#0E52A5"/>
</linearGradient>
</defs>
</svg>
