<svg width="39" height="26" viewBox="0 0 39 26" fill="none" xmlns="http://www.w3.org/2000/svg">
<path d="M35.4622 4.11091C36.4939 5.14262 37.2803 6.31274 37.8213 7.62126C38.3623 8.92978 38.6391 10.3201 38.6517 11.7922C38.6517 12.2325 38.6391 12.761 38.6139 13.3775C38.5888 13.994 38.5384 14.6609 38.463 15.378C38.3875 16.0952 38.2679 16.8312 38.1044 17.5862C37.9408 18.3411 37.7332 19.0897 37.4816 19.832C37.1041 20.9141 36.6637 21.7948 36.1605 22.4742C35.6572 23.1537 35.135 23.6884 34.594 24.0784C34.053 24.4685 33.5057 24.7327 32.9521 24.8711C32.3985 25.0095 31.8826 25.0787 31.4045 25.0787C30.9893 25.0787 30.6118 25.0095 30.2721 24.8711C29.9324 24.7327 29.6053 24.544 29.2907 24.3049C28.9762 24.0658 28.6868 23.8079 28.4226 23.5311C28.1584 23.2543 27.8878 22.9523 27.611 22.6252C27.3468 22.3232 27.0889 22.0339 26.8373 21.7571C26.5856 21.4803 26.3151 21.2349 26.0257 21.021C25.7363 20.8071 25.447 20.6247 25.1576 20.4737C24.8682 20.3227 24.5285 20.2472 24.1384 20.2472H14.5133C14.1484 20.2598 13.815 20.3353 13.513 20.4737C13.211 20.6121 12.9153 20.7883 12.626 21.0021C12.3366 21.216 12.0724 21.4677 11.8333 21.7571C11.5942 22.0464 11.33 22.3358 11.0406 22.6252C10.7764 22.9272 10.5122 23.2229 10.248 23.5122C9.98376 23.8016 9.69438 24.0658 9.37983 24.3049C9.06528 24.544 8.73815 24.7264 8.39844 24.8522C8.05873 24.978 7.67498 25.0535 7.24719 25.0787C6.76908 25.0787 6.25322 25.0095 5.69961 24.8711C5.14601 24.7327 4.59869 24.4748 4.05767 24.0973C3.51665 23.7198 2.9945 23.1851 2.49122 22.4931C1.98794 21.8011 1.54758 20.9141 1.17012 19.832C0.918481 19.1023 0.71717 18.3599 0.566187 17.605C0.415204 16.8501 0.295675 16.1078 0.207602 15.378C0.119528 14.6483 0.0629096 13.9814 0.0377458 13.3775C0.0125819 12.7736 0 12.2451 0 11.7922C0 10.3327 0.270511 8.94866 0.811534 7.64014C1.35256 6.33162 2.14522 5.15521 3.18952 4.11091C4.20865 3.07919 5.37877 2.29282 6.69988 1.75179C8.02098 1.21077 9.41128 0.933969 10.8708 0.921387H27.7809C29.2404 0.921387 30.6244 1.1919 31.9329 1.73292C33.2415 2.27394 34.4179 3.06661 35.4622 4.11091ZM35.1979 19.0394C35.437 18.3725 35.6257 17.6805 35.7641 16.9633C35.9025 16.2462 36.0032 15.5605 36.0661 14.9062C36.129 14.2519 36.173 13.648 36.1982 13.0944C36.2234 12.5408 36.236 12.1067 36.236 11.7922C36.236 10.6221 36.0158 9.52743 35.5754 8.50829C35.135 7.48915 34.5311 6.59584 33.7636 5.82834C32.9961 5.06084 32.1028 4.45691 31.0837 4.01654C30.0645 3.57617 28.9636 3.3497 27.7809 3.33712H10.8708C9.70067 3.33712 8.60604 3.5573 7.5869 3.99767C6.56777 4.43804 5.67445 5.04197 4.90695 5.80947C4.13945 6.57696 3.53552 7.47028 3.09515 8.48942C2.65479 9.50855 2.42831 10.6095 2.41573 11.7922C2.41573 12.1193 2.42202 12.5534 2.4346 13.0944C2.44719 13.6354 2.49122 14.2331 2.56671 14.8873C2.6422 15.5416 2.74915 16.2336 2.88755 16.9633C3.02595 17.6931 3.21468 18.3851 3.45374 19.0394C3.76829 19.9453 4.11429 20.6436 4.49175 21.1343C4.86921 21.625 5.23408 21.9835 5.58638 22.21C5.93867 22.4365 6.2658 22.5686 6.56777 22.6063C6.86973 22.6441 7.09621 22.663 7.24719 22.663C7.52399 22.663 7.82596 22.4994 8.15309 22.1723C8.48022 21.8451 8.83251 21.4677 9.20997 21.0399C9.51194 20.6876 9.83278 20.329 10.1725 19.9641C10.5122 19.5993 10.896 19.2595 11.3237 18.945C11.7515 18.6305 12.2233 18.3725 12.7392 18.1712C13.2551 17.9699 13.8275 17.8567 14.4566 17.8315H24.195C24.8241 17.8567 25.3966 17.9699 25.9125 18.1712C26.4283 18.3725 26.8939 18.6242 27.3091 18.9261C27.7243 19.2281 28.108 19.5678 28.4603 19.9453C28.8126 20.3227 29.1397 20.6876 29.4417 21.0399C29.8066 21.4551 30.1526 21.8263 30.4797 22.1534C30.8069 22.4805 31.1151 22.6504 31.4045 22.663C31.5555 22.663 31.7757 22.6441 32.065 22.6063C32.3544 22.5686 32.6816 22.4365 33.0464 22.21C33.4113 21.9835 33.7825 21.625 34.1599 21.1343C34.5374 20.6436 34.8834 19.9453 35.1979 19.0394ZM9.66292 10.5843H12.0787V13H9.66292V15.4158H7.24719V13H4.83146V10.5843H7.24719V8.16858H9.66292V10.5843ZM31.4045 13C31.7442 13 32.0588 13.0629 32.3481 13.1888C32.6375 13.3146 32.8892 13.4844 33.1031 13.6983C33.3169 13.9122 33.4931 14.1702 33.6315 14.4721C33.7699 14.7741 33.8328 15.0886 33.8202 15.4158C33.8202 15.7555 33.7573 16.07 33.6315 16.3594C33.5057 16.6488 33.3358 16.9004 33.1219 17.1143C32.908 17.3282 32.6501 17.5044 32.3481 17.6428C32.0462 17.7812 31.7316 17.8441 31.4045 17.8315C31.0648 17.8315 30.7502 17.7686 30.4608 17.6428C30.1715 17.517 29.9198 17.3471 29.7059 17.1332C29.492 16.9193 29.3159 16.6614 29.1775 16.3594C29.0391 16.0574 28.9762 15.7429 28.9888 15.4158C28.9888 15.0761 29.0517 14.7615 29.1775 14.4721C29.3033 14.1827 29.4732 13.9311 29.6871 13.7172C29.901 13.5033 30.1589 13.3272 30.4608 13.1888C30.7628 13.0504 31.0774 12.9875 31.4045 13ZM26.573 8.16858C26.9127 8.16858 27.2273 8.23149 27.5167 8.35731C27.8061 8.48313 28.0577 8.65298 28.2716 8.86687C28.4855 9.08077 28.6616 9.3387 28.8 9.64066C28.9384 9.94263 29.0013 10.2572 28.9888 10.5843C28.9888 10.924 28.9259 11.2386 28.8 11.528C28.6742 11.8173 28.5044 12.069 28.2905 12.2829C28.0766 12.4968 27.8186 12.6729 27.5167 12.8113C27.2147 12.9497 26.9002 13.0126 26.573 13C26.2333 13 25.9188 12.9371 25.6294 12.8113C25.34 12.6855 25.0884 12.5156 24.8745 12.3017C24.6606 12.0878 24.4844 11.8299 24.346 11.528C24.2076 11.226 24.1447 10.9114 24.1573 10.5843C24.1573 10.2446 24.2202 9.93005 24.346 9.64066C24.4719 9.35128 24.6417 9.09964 24.8556 8.88575C25.0695 8.67185 25.3274 8.49571 25.6294 8.35731C25.9314 8.2189 26.2459 8.156 26.573 8.16858Z" fill="white" fill-opacity="0.4"/>
</svg>
