<svg width="127" height="26" viewBox="0 0 127 26" fill="none" xmlns="http://www.w3.org/2000/svg">
<path d="M12.6229 18.3699L8.25727 20.9998C8.06441 21.1226 7.86279 21.1752 7.65239 21.1576C7.442 21.1401 7.25791 21.07 7.10011 20.9472C6.94232 20.8245 6.81959 20.6713 6.73192 20.4875C6.64426 20.3038 6.62673 20.0976 6.67933 19.869L7.83649 14.8984L3.97052 11.5585C3.79519 11.4007 3.68579 11.2208 3.6423 11.0188C3.59882 10.8168 3.6118 10.6198 3.68123 10.4276C3.75066 10.2354 3.85585 10.0776 3.99682 9.95421C4.13778 9.83078 4.33064 9.75188 4.5754 9.71751L9.67742 9.27043L11.6499 4.58919C11.7375 4.37879 11.8736 4.221 12.058 4.1158C12.2425 4.01061 12.4308 3.95801 12.6229 3.95801C12.8151 3.95801 13.0034 4.01061 13.1878 4.1158C13.3723 4.221 13.5083 4.37879 13.596 4.58919L15.5684 9.27043L20.6705 9.71751C20.9159 9.75258 21.1088 9.83148 21.249 9.95421C21.3893 10.0769 21.4945 10.2347 21.5646 10.4276C21.6348 10.6205 21.6481 10.8179 21.6046 11.0198C21.5611 11.2218 21.4514 11.4014 21.2753 11.5585L17.4094 14.8984L18.5665 19.869C18.6191 20.0969 18.6016 20.3031 18.5139 20.4875C18.4263 20.672 18.3035 20.8252 18.1457 20.9472C17.9879 21.0693 17.8039 21.1394 17.5935 21.1576C17.3831 21.1759 17.1814 21.1233 16.9886 20.9998L12.6229 18.3699Z" fill="white"/>
<path d="M37.8701 18.3699L33.5044 20.9998C33.3116 21.1226 33.1099 21.1752 32.8995 21.1576C32.6891 21.1401 32.5051 21.07 32.3473 20.9472C32.1895 20.8245 32.0667 20.6713 31.9791 20.4875C31.8914 20.3038 31.8739 20.0976 31.9265 19.869L33.0836 14.8984L29.2177 11.5585C29.0423 11.4007 28.9329 11.2208 28.8895 11.0188C28.846 10.8168 28.8589 10.6198 28.9284 10.4276C28.9978 10.2354 29.103 10.0776 29.244 9.95421C29.3849 9.83078 29.5778 9.75188 29.8225 9.71751L34.9246 9.27043L36.897 4.58919C36.9847 4.37879 37.1207 4.221 37.3052 4.1158C37.4896 4.01061 37.6779 3.95801 37.8701 3.95801C38.0622 3.95801 38.2505 4.01061 38.435 4.1158C38.6194 4.221 38.7555 4.37879 38.8431 4.58919L40.8156 9.27043L45.9176 9.71751C46.1631 9.75258 46.3559 9.83148 46.4962 9.95421C46.6364 10.0769 46.7416 10.2347 46.8118 10.4276C46.8819 10.6205 46.8952 10.8179 46.8517 11.0198C46.8083 11.2218 46.6985 11.4014 46.5225 11.5585L42.6565 14.8984L43.8137 19.869C43.8663 20.0969 43.8487 20.3031 43.7611 20.4875C43.6734 20.672 43.5507 20.8252 43.3929 20.9472C43.2351 21.0693 43.051 21.1394 42.8406 21.1576C42.6302 21.1759 42.4286 21.1233 42.2357 20.9998L37.8701 18.3699Z" fill="white"/>
<path d="M63.1172 18.3699L58.7516 20.9998C58.5587 21.1226 58.3571 21.1752 58.1467 21.1576C57.9363 21.1401 57.7522 21.07 57.5944 20.9472C57.4366 20.8245 57.3139 20.6713 57.2262 20.4875C57.1386 20.3038 57.121 20.0976 57.1736 19.869L58.3308 14.8984L54.4648 11.5585C54.2895 11.4007 54.1801 11.2208 54.1366 11.0188C54.0931 10.8168 54.1061 10.6198 54.1755 10.4276C54.2449 10.2354 54.3501 10.0776 54.4911 9.95421C54.6321 9.83078 54.8249 9.75188 55.0697 9.71751L60.1717 9.27043L62.1442 4.58919C62.2318 4.37879 62.3679 4.221 62.5523 4.1158C62.7368 4.01061 62.9251 3.95801 63.1172 3.95801C63.3094 3.95801 63.4977 4.01061 63.6821 4.1158C63.8666 4.221 64.0026 4.37879 64.0903 4.58919L66.0627 9.27043L71.1647 9.71751C71.4102 9.75258 71.6031 9.83148 71.7433 9.95421C71.8836 10.0769 71.9888 10.2347 72.0589 10.4276C72.129 10.6205 72.1424 10.8179 72.0989 11.0198C72.0554 11.2218 71.9457 11.4014 71.7696 11.5585L67.9037 14.8984L69.0608 19.869C69.1134 20.0969 69.0959 20.3031 69.0082 20.4875C68.9206 20.672 68.7978 20.8252 68.64 20.9472C68.4822 21.0693 68.2981 21.1394 68.0878 21.1576C67.8774 21.1759 67.6757 21.1233 67.4829 20.9998L63.1172 18.3699Z" fill="white"/>
<path d="M88.3624 18.3699L83.9968 20.9998C83.8039 21.1226 83.6023 21.1752 83.3919 21.1576C83.1815 21.1401 82.9974 21.07 82.8396 20.9472C82.6818 20.8245 82.5591 20.6713 82.4714 20.4875C82.3838 20.3038 82.3662 20.0976 82.4188 19.869L83.576 14.8984L79.71 11.5585C79.5347 11.4007 79.4253 11.2208 79.3818 11.0188C79.3383 10.8168 79.3513 10.6198 79.4207 10.4276C79.4902 10.2354 79.5954 10.0776 79.7363 9.95421C79.8773 9.83078 80.0701 9.75188 80.3149 9.71751L85.4169 9.27043L87.3894 4.58919C87.477 4.37879 87.6131 4.221 87.7975 4.1158C87.982 4.01061 88.1703 3.95801 88.3624 3.95801C88.5546 3.95801 88.7429 4.01061 88.9273 4.1158C89.1118 4.221 89.2478 4.37879 89.3355 4.58919L91.3079 9.27043L96.41 9.71751C96.6554 9.75258 96.8483 9.83148 96.9885 9.95421C97.1288 10.0769 97.234 10.2347 97.3041 10.4276C97.3743 10.6205 97.3876 10.8179 97.3441 11.0198C97.3006 11.2218 97.1909 11.4014 97.0148 11.5585L93.1489 14.8984L94.306 19.869C94.3586 20.0969 94.3411 20.3031 94.2534 20.4875C94.1658 20.672 94.043 20.8252 93.8852 20.9472C93.7274 21.0693 93.5434 21.1394 93.333 21.1576C93.1226 21.1759 92.9209 21.1233 92.7281 20.9998L88.3624 18.3699Z" fill="white"/>
<path d="M113.612 18.3699L109.246 20.9998C109.053 21.1226 108.851 21.1752 108.641 21.1576C108.431 21.1401 108.246 21.07 108.089 20.9472C107.931 20.8245 107.808 20.6713 107.721 20.4875C107.633 20.3038 107.615 20.0976 107.668 19.869L108.825 14.8984L104.959 11.5585C104.784 11.4007 104.674 11.2208 104.631 11.0188C104.587 10.8168 104.6 10.6198 104.67 10.4276C104.739 10.2354 104.844 10.0776 104.985 9.95421C105.126 9.83078 105.319 9.75188 105.564 9.71751L110.666 9.27043L112.638 4.58919C112.726 4.37879 112.862 4.221 113.047 4.1158C113.231 4.01061 113.419 3.95801 113.612 3.95801C113.804 3.95801 113.992 4.01061 114.176 4.1158C114.361 4.221 114.497 4.37879 114.585 4.58919L116.557 9.27043L121.659 9.71751C121.904 9.75258 122.097 9.83148 122.238 9.95421C122.378 10.0769 122.483 10.2347 122.553 10.4276C122.623 10.6205 122.637 10.8179 122.593 11.0198C122.55 11.2218 122.44 11.4014 122.264 11.5585L118.398 14.8984L119.555 19.869C119.608 20.0969 119.59 20.3031 119.503 20.4875C119.415 20.672 119.292 20.8252 119.134 20.9472C118.977 21.0693 118.792 21.1394 118.582 21.1576C118.372 21.1759 118.17 21.1233 117.977 20.9998L113.612 18.3699Z" fill="white"/>
</svg>
