<svg width="29" height="29" viewBox="0 0 29 29" fill="none" xmlns="http://www.w3.org/2000/svg">
<circle cx="14.7368" cy="14.9568" r="13.9711" fill="white"/>
<path d="M14.1254 14.4224L9.98864 10.2856M9.16128 11.5266L11.2297 9.45825L8.74761 8.21722L7.92025 9.04458L9.16128 11.5266ZM21.5509 12.747C21.9481 12.3501 22.2214 11.8463 22.3374 11.2969C22.4535 10.7476 22.4073 10.1763 22.2045 9.65268L21.028 10.8292H19.3733V9.17447L20.5498 7.99797C20.0262 7.79473 19.4547 7.74816 18.9051 7.86396C18.3554 7.97975 17.8513 8.2529 17.4542 8.65013C17.0571 9.04736 16.784 9.55151 16.6683 10.1012C16.5527 10.6508 16.5994 11.2223 16.8027 11.7459L11.4497 17.0997C10.9261 16.8963 10.3547 16.8496 9.80504 16.9653C9.25537 17.081 8.75121 17.354 8.35398 17.7512C7.95676 18.1483 7.68361 18.6524 7.56781 19.202C7.45202 19.7517 7.49858 20.3231 7.70183 20.8468L8.8775 19.6703H10.5322V21.325L9.35571 22.5015C9.87922 22.7047 10.4505 22.7514 11.0001 22.6357C11.5496 22.5201 12.0537 22.2471 12.4509 21.8501C12.8481 21.4531 13.1212 20.9491 13.2371 20.3997C13.353 19.8502 13.3066 19.2788 13.1036 18.7552L18.4583 13.4006C18.9816 13.603 19.5526 13.649 20.1016 13.533C20.6507 13.417 21.1542 13.1439 21.5509 12.747Z" stroke="#3C3634" stroke-width="1.01872" stroke-linecap="round" stroke-linejoin="round"/>
<path d="M14.7849 17.3179L19.4214 21.9544C19.5251 22.0583 19.6484 22.1408 19.784 22.197C19.9197 22.2533 20.0651 22.2823 20.2119 22.2823C20.3588 22.2823 20.5042 22.2533 20.6399 22.197C20.7755 22.1408 20.8987 22.0583 21.0025 21.9544L21.6577 21.2991C21.7617 21.1954 21.8441 21.0721 21.9004 20.9365C21.9567 20.8008 21.9856 20.6554 21.9856 20.5086C21.9856 20.3617 21.9567 20.2163 21.9004 20.0807C21.8441 19.945 21.7617 19.8218 21.6577 19.718L17.0212 15.0815" stroke="#3C3634" stroke-width="1.01872" stroke-linecap="round" stroke-linejoin="round"/>
</svg>
