<svg width="29" height="29" viewBox="0 0 29 29" fill="none" xmlns="http://www.w3.org/2000/svg">
<path d="M26.4838 28.7201L16.7041 18.9403C15.9279 19.5613 15.0353 20.0528 14.0263 20.415C13.0173 20.7773 11.9436 20.9584 10.8052 20.9584C7.98509 20.9584 5.59863 19.9814 3.64578 18.0275C1.69294 16.0737 0.716002 13.6872 0.714967 10.8682C0.713932 8.04911 1.69087 5.66265 3.64578 3.70877C5.60069 1.75489 7.98716 0.777954 10.8052 0.777954C13.6232 0.777954 16.0102 1.75489 17.9661 3.70877C19.9221 5.66265 20.8985 8.04911 20.8954 10.8682C20.8954 12.0065 20.7143 13.0802 20.3521 14.0893C19.9898 15.0983 19.4983 15.9909 18.8773 16.767L28.6571 26.5468L26.4838 28.7201ZM10.8052 17.8537C12.7456 17.8537 14.3952 17.1748 15.754 15.817C17.1128 14.4592 17.7917 12.8096 17.7907 10.8682C17.7897 8.9267 17.1108 7.2776 15.754 5.92085C14.3973 4.56411 12.7477 3.8847 10.8052 3.88263C8.86268 3.88056 7.21358 4.55997 5.85787 5.92085C4.50216 7.28174 3.82275 8.93084 3.81964 10.8682C3.81654 12.8055 4.49595 14.4551 5.85787 15.817C7.21978 17.1789 8.86889 17.8578 10.8052 17.8537Z" fill="white"/>
</svg>
