<svg width="34" height="39" viewBox="0 0 34 39" fill="none" xmlns="http://www.w3.org/2000/svg">
<path d="M17 32.4997C16.6532 32.4996 16.3206 32.3626 16.0755 32.1188L12.1524 28.2188C12.0305 28.0984 11.9338 27.9552 11.8678 27.7974C11.8018 27.6397 11.7679 27.4706 11.7679 27.2997C11.7679 27.1289 11.8018 26.9598 11.8678 26.802C11.9338 26.6443 12.0305 26.5011 12.1524 26.3806L16.0755 22.4807C16.1965 22.3594 16.3406 22.2631 16.4992 22.1974C16.6579 22.1317 16.8281 22.0979 17 22.0979C17.1719 22.0979 17.3421 22.1317 17.5008 22.1974C17.6594 22.2631 17.8035 22.3594 17.9245 22.4807L21.8476 26.3806C21.9695 26.5011 22.0662 26.6443 22.1322 26.802C22.1982 26.9598 22.2321 27.1289 22.2321 27.2997C22.2321 27.4706 22.1982 27.6397 22.1322 27.7974C22.0662 27.9552 21.9695 28.0984 21.8476 28.2188L17.9245 32.1188C17.6794 32.3626 17.3468 32.4996 17 32.4997ZM14.926 27.2997L17 29.3615L19.074 27.2997L17 25.238L14.926 27.2997ZM24.8462 24.6998C24.4994 24.6997 24.1668 24.5627 23.9216 24.3189L19.9985 20.4189C19.8767 20.2985 19.78 20.1552 19.714 19.9975C19.648 19.8398 19.614 19.6706 19.614 19.4998C19.614 19.329 19.648 19.1598 19.714 19.0021C19.78 18.8444 19.8767 18.7012 19.9985 18.5807L23.9216 14.6808C24.0427 14.5595 24.1867 14.4632 24.3454 14.3975C24.5041 14.3318 24.6743 14.298 24.8462 14.298C25.018 14.298 25.1882 14.3318 25.3469 14.3975C25.5056 14.4632 25.6496 14.5595 25.7707 14.6808L29.6938 18.5807C29.8156 18.7012 29.9123 18.8444 29.9783 19.0021C30.0443 19.1598 30.0783 19.329 30.0783 19.4998C30.0783 19.6706 30.0443 19.8398 29.9783 19.9975C29.9123 20.1552 29.8156 20.2985 29.6938 20.4189L25.7707 24.3189C25.5255 24.5627 25.1929 24.6997 24.8462 24.6998ZM22.7722 19.4998L24.8462 21.5616L26.9202 19.4998L24.8462 17.438L22.7722 19.4998ZM17 16.8998C16.6532 16.8998 16.3206 16.7627 16.0755 16.5189L12.1524 12.619C12.0305 12.4985 11.9338 12.3553 11.8678 12.1976C11.8018 12.0399 11.7679 11.8707 11.7679 11.6999C11.7679 11.5291 11.8018 11.3599 11.8678 11.2022C11.9338 11.0444 12.0305 10.9012 12.1524 10.7808L16.0755 6.88083C16.1965 6.75954 16.3406 6.66326 16.4992 6.59757C16.6579 6.53187 16.8281 6.49805 17 6.49805C17.1719 6.49805 17.3421 6.53187 17.5008 6.59757C17.6594 6.66326 17.8035 6.75954 17.9245 6.88083L21.8476 10.7808C21.9695 10.9012 22.0662 11.0444 22.1322 11.2022C22.1982 11.3599 22.2321 11.5291 22.2321 11.6999C22.2321 11.8707 22.1982 12.0399 22.1322 12.1976C22.0662 12.3553 21.9695 12.4985 21.8476 12.619L17.9245 16.5189C17.6794 16.7627 17.3468 16.8998 17 16.8998ZM14.926 11.6999L17 13.7617L19.074 11.6999L17 9.6381L14.926 11.6999ZM9.15385 24.6998C8.80705 24.6997 8.47449 24.5627 8.22931 24.3189L4.30623 20.4189C4.18437 20.2985 4.08767 20.1552 4.02168 19.9975C3.95569 19.8398 3.92172 19.6706 3.92172 19.4998C3.92172 19.329 3.95569 19.1598 4.02168 19.0021C4.08767 18.8444 4.18437 18.7012 4.30623 18.5807L8.22931 14.6808C8.35038 14.5595 8.49441 14.4632 8.65309 14.3975C8.81176 14.3318 8.98196 14.298 9.15385 14.298C9.32574 14.298 9.49593 14.3318 9.6546 14.3975C9.81328 14.4632 9.95731 14.5595 10.0784 14.6808L14.0015 18.5807C14.1233 18.7012 14.22 18.8444 14.286 19.0021C14.352 19.1598 14.386 19.329 14.386 19.4998C14.386 19.6706 14.352 19.8398 14.286 19.9975C14.22 20.1552 14.1233 20.2985 14.0015 20.4189L10.0784 24.3189C9.8332 24.5627 9.50064 24.6997 9.15385 24.6998ZM7.07985 19.4998L9.15385 21.5616L11.2278 19.4998L9.15385 17.438L7.07985 19.4998Z" fill="white"/>
<path d="M17 1.67771e-07C16.7684 -0.000116767 16.541 0.060895 16.3409 0.176798L0.648615 9.27671C0.451183 9.39124 0.287399 9.55521 0.173592 9.75229C0.0597855 9.94937 -6.76782e-05 10.1727 5.74308e-08 10.3999V28.5997C-6.76782e-05 28.827 0.0597855 29.0502 0.173592 29.2473C0.287399 29.4444 0.451183 29.6084 0.648615 29.7229L16.3409 38.8228C16.541 38.9389 16.7684 39 17 39C17.2316 39 17.459 38.9389 17.6591 38.8228L32.0437 30.4808L30.7255 28.2357L17 36.1942L2.61538 27.8535V11.1474L17 2.80537L31.3846 11.1461V20.7998H34V10.3999C34.0001 10.1727 33.9402 9.94937 33.8264 9.75229C33.7126 9.55521 33.5488 9.39124 33.3514 9.27671L17.6591 0.176798C17.459 0.060895 17.2316 -0.000116767 17 1.67771e-07Z" fill="white"/>
</svg>
