<svg width="32" height="39" viewBox="0 0 32 39" fill="none" xmlns="http://www.w3.org/2000/svg">
<path d="M27.9991 24.756C27.0986 24.7595 26.2262 25.0609 25.5258 25.6106L22.6659 24.0088V21.9292C23.5555 21.6237 24.3053 21.0227 24.7827 20.2323C25.2601 19.4418 25.4344 18.5129 25.2749 17.6098C25.1153 16.7066 24.6322 15.8872 23.9108 15.2966C23.1894 14.7059 22.2762 14.382 21.3326 14.382C20.3891 14.382 19.4759 14.7059 18.7545 15.2966C18.0331 15.8872 17.5499 16.7066 17.3904 17.6098C17.2308 18.5129 17.4051 19.4418 17.8826 20.2323C18.36 21.0227 19.1097 21.6237 19.9993 21.9292V24.0088L17.1394 25.6132C16.4394 25.0626 15.567 24.7602 14.6662 24.756C13.8304 24.7505 13.0137 24.9977 12.3291 25.4633C11.6445 25.929 11.1261 26.5899 10.8457 27.3546C10.5654 28.1193 10.5369 28.9497 10.7644 29.7308C10.9918 30.5118 11.4639 31.2048 12.1151 31.7136C12.7663 32.2223 13.5644 32.5217 14.3986 32.5701C15.2329 32.6186 16.062 32.4137 16.771 31.9839C17.48 31.5541 18.0337 30.9207 18.3553 30.1715C18.677 29.4224 18.7506 28.5945 18.5661 27.8029L21.3326 26.2516L24.0992 27.8029C23.9211 28.5879 23.9984 29.4073 24.3203 30.1478C24.6421 30.8884 25.1928 31.5137 25.8962 31.9373C26.5996 32.361 27.421 32.5621 28.2472 32.513C29.0733 32.4638 29.8634 32.1668 30.5083 31.663C31.1532 31.1591 31.6211 30.4732 31.8475 29.7001C32.074 28.9269 32.0476 28.1045 31.7723 27.3464C31.4969 26.5884 30.986 25.9321 30.3101 25.468C29.6343 25.004 28.8268 24.7552 27.9991 24.756ZM14.6662 29.9356C14.4025 29.9356 14.1447 29.8597 13.9254 29.7174C13.7062 29.5751 13.5353 29.3728 13.4344 29.1362C13.3335 28.8996 13.3071 28.6393 13.3585 28.3881C13.41 28.1369 13.5369 27.9062 13.7234 27.7251C13.9099 27.544 14.1474 27.4206 14.4061 27.3707C14.6647 27.3207 14.9328 27.3464 15.1764 27.4444C15.42 27.5424 15.6283 27.7083 15.7748 27.9213C15.9213 28.1342 15.9995 28.3846 15.9995 28.6407C15.9995 28.9841 15.859 29.3135 15.609 29.5563C15.3589 29.7992 15.0198 29.9356 14.6662 29.9356ZM21.3326 16.9866C21.5963 16.9866 21.8541 17.0625 22.0734 17.2048C22.2926 17.3471 22.4635 17.5493 22.5644 17.7859C22.6653 18.0225 22.6917 18.2829 22.6403 18.5341C22.5889 18.7853 22.4619 19.016 22.2754 19.1971C22.0889 19.3782 21.8514 19.5015 21.5927 19.5515C21.3341 19.6014 21.066 19.5758 20.8224 19.4778C20.5788 19.3798 20.3705 19.2138 20.224 19.0009C20.0775 18.7879 19.9993 18.5376 19.9993 18.2815C19.9993 17.938 20.1398 17.6087 20.3898 17.3658C20.6399 17.123 20.979 16.9866 21.3326 16.9866ZM27.9991 29.9356C27.7354 29.9356 27.4776 29.8597 27.2583 29.7174C27.0391 29.5751 26.8682 29.3728 26.7673 29.1362C26.6664 28.8996 26.64 28.6393 26.6914 28.3881C26.7428 28.1369 26.8698 27.9062 27.0563 27.7251C27.2428 27.544 27.4803 27.4206 27.739 27.3707C27.9976 27.3207 28.2657 27.3464 28.5093 27.4444C28.7529 27.5424 28.9612 27.7083 29.1077 27.9213C29.2542 28.1342 29.3324 28.3846 29.3324 28.6407C29.3324 28.9841 29.1919 29.3135 28.9419 29.5563C28.6918 29.7992 28.3527 29.9356 27.9991 29.9356Z" fill="white"/>
<path d="M14.6662 38.9999C10.7779 38.9955 7.05014 37.4933 4.30069 34.8231C1.55124 32.1528 0.00458714 28.5323 0 24.756V7.12197L14.6488 0L28.5951 6.78141L27.4018 9.0967L14.6488 2.89541L2.66658 8.72248V24.756C2.66633 26.9204 3.28671 29.0421 4.45818 30.8834C5.62966 32.7247 7.30595 34.2127 9.2992 35.1808C11.2924 36.1488 13.5239 36.5587 15.7435 36.3644C17.9631 36.17 20.0831 35.3792 21.8659 34.0806L23.4659 36.1511C20.9318 38.0088 17.8411 39.0094 14.6662 38.9999Z" fill="white"/>
</svg>
