<svg width="39" height="39" viewBox="0 0 39 39" fill="none" xmlns="http://www.w3.org/2000/svg">
<path d="M28.7869 14.9282C29.3822 14.1988 29.2602 13.1375 28.5185 12.5545C27.7768 11.9714 26.6911 12.091 26.0983 12.818L18.0227 22.7227L13.7044 19.4049C13.3516 19.1178 12.9007 18.9798 12.4477 19.0204C11.9947 19.0609 11.5754 19.2768 11.2793 19.622C11.1346 19.7913 11.0253 19.9878 10.9579 20.2001C10.8905 20.4123 10.8663 20.6359 10.8868 20.8576C10.9072 21.0794 10.972 21.2948 11.0771 21.4911C11.1822 21.6874 11.3256 21.8606 11.4989 22.0006L17.1591 26.4162C17.5165 26.707 17.9744 26.8445 18.4329 26.7988C18.8914 26.7531 19.3131 26.5278 19.6061 26.1723L28.7796 14.9014L28.7869 14.9282Z" fill="white"/>
<path fill-rule="evenodd" clip-rule="evenodd" d="M15.8806 1.73978C17.1835 0.783457 17.8349 0.305297 18.54 0.119889C19.17 -0.0399629 19.83 -0.0399629 20.46 0.119889C21.1724 0.305297 21.8263 0.783457 23.1194 1.73978L24.7711 2.95225C25.2224 3.28404 25.4493 3.44993 25.6933 3.57923C25.9112 3.69308 26.1381 3.78741 26.374 3.86222C26.6399 3.94273 26.9156 3.9842 27.4694 4.06959L29.4944 4.37941C31.0924 4.62337 31.8902 4.74779 32.5197 5.12105C33.0808 5.4504 33.5493 5.9188 33.8786 6.4799C34.2519 7.1142 34.3739 7.91438 34.6203 9.505L34.9302 11.5299C35.0155 12.0836 35.057 12.3618 35.1375 12.6277C35.2107 12.8635 35.3051 13.0896 35.4205 13.3059C35.5523 13.5498 35.7158 13.7767 36.0476 14.228L37.2601 15.8796C38.2165 17.1824 38.6947 17.8338 38.8801 18.5388C39.04 19.1688 39.04 19.8288 38.8801 20.4588C38.6971 21.1711 38.2165 21.8249 37.2601 23.1179L36.0476 24.7695C35.8154 25.0605 35.6058 25.3688 35.4205 25.6917C35.3048 25.9099 35.21 26.1386 35.1375 26.3748C35.057 26.6382 35.0155 26.9139 34.9302 27.4677L34.6203 29.4926C34.3763 31.0905 34.2519 31.8882 33.8786 32.5177C33.5493 33.0788 33.0808 33.5472 32.5197 33.8765C31.8854 34.2498 31.0851 34.3717 29.4944 34.6181L27.4694 34.928C27.0995 34.9699 26.7333 35.0401 26.374 35.1378C26.1381 35.2093 25.9112 35.3037 25.6933 35.4208C25.4493 35.5501 25.2224 35.7135 24.7711 36.0477L23.1194 37.2602C21.8165 38.2165 21.1651 38.6947 20.46 38.8801C19.83 39.04 19.17 39.04 18.54 38.8801C17.8276 38.6947 17.1737 38.2165 15.8806 37.2602L14.2289 36.0477C13.9379 35.8156 13.6296 35.606 13.3067 35.4208C13.0893 35.3052 12.8613 35.2104 12.626 35.1378C12.2667 35.0401 11.9005 34.9699 11.5306 34.928L9.50559 34.6181C7.90756 34.3742 7.10732 34.2522 6.48031 33.8765C5.92116 33.5439 5.45402 33.0768 5.12137 32.5177C4.74809 31.8834 4.6261 31.0832 4.37969 29.4926L4.06984 27.4677C3.98445 26.9139 3.94297 26.6382 3.86246 26.3723C3.79128 26.1365 3.69646 25.9085 3.57945 25.6917C3.39421 25.3688 3.18459 25.0605 2.95244 24.7695L1.73989 23.1179C0.783506 21.8152 0.305317 21.1662 0.119896 20.4588C-0.0399654 19.8288 -0.0399654 19.1688 0.119896 18.5388C0.302877 17.8264 0.783506 17.1726 1.73989 15.8796L2.95244 14.228C3.28424 13.7767 3.45015 13.5498 3.57945 13.3059C3.69331 13.0896 3.78764 12.8627 3.86246 12.6252C3.94297 12.3593 3.98445 12.0836 4.06984 11.5299L4.37969 9.505C4.62366 7.90706 4.74809 7.10688 5.12137 6.4799C5.45074 5.9188 5.91917 5.45527 6.48031 5.12105C7.11464 4.74779 7.91488 4.62581 9.50559 4.37941L11.5306 4.06959C12.0844 3.98664 12.3625 3.94273 12.626 3.86222C12.8619 3.78903 13.0888 3.6947 13.3067 3.57923C13.5507 3.44993 13.7776 3.28404 14.2289 2.95225L15.8806 1.73978ZM21.6872 3.70609L23.4219 4.97955C23.7903 5.25035 24.1538 5.5187 24.5588 5.73339C24.9166 5.92368 25.2875 6.07737 25.6713 6.19447C26.1101 6.31581 26.5569 6.40629 27.0083 6.46527L29.1358 6.79217C30.9436 7.07028 31.1681 7.14591 31.2998 7.22398C31.5064 7.34758 31.6707 7.51185 31.7926 7.71678C31.8707 7.84851 31.9488 8.07296 32.2245 9.88069L32.5514 12.008C32.6104 12.4594 32.7009 12.9061 32.8222 13.3449C32.941 13.732 33.0947 14.1028 33.2833 14.4574C33.498 14.8623 33.7664 15.2258 34.0372 15.5942L35.3108 17.3288C36.394 18.8023 36.4965 19.0145 36.5355 19.1658C36.5918 19.395 36.5918 19.6343 36.5355 19.8635C36.4965 20.0123 36.394 20.2246 35.3108 21.7005L34.0372 23.4351C33.7664 23.8034 33.498 24.1669 33.2833 24.5719C33.0947 24.9273 32.9403 25.2998 32.8222 25.6844C32.7009 26.1231 32.6104 26.5699 32.5514 27.0213L32.2245 29.1486C31.9464 30.9563 31.8707 31.1808 31.7926 31.3125C31.6704 31.514 31.5014 31.6831 31.2998 31.8053C31.1681 31.8834 30.9436 31.9614 29.1358 32.2371L27.0083 32.564C26.5569 32.623 26.1101 32.7135 25.6713 32.8348C25.2867 32.9529 24.9142 33.1073 24.5588 33.2959C24.1538 33.5106 23.7903 33.7789 23.4219 34.0497L21.6872 35.3232C20.2136 36.4064 20.0014 36.5088 19.8501 36.5479C19.6209 36.6041 19.3815 36.6041 19.1523 36.5479C19.0035 36.5088 18.7913 36.4064 17.3152 35.3232L15.5806 34.0497C15.2196 33.7722 14.8397 33.5203 14.4436 33.2959C14.0883 33.1073 13.7157 32.9529 13.3311 32.8348C12.8923 32.7135 12.4456 32.623 11.9941 32.564L9.86667 32.2371C8.05882 31.959 7.83437 31.8834 7.70262 31.8053C7.50106 31.6831 7.33199 31.514 7.20979 31.3125C7.13172 31.1808 7.05365 30.9563 6.77796 29.1486L6.45103 27.0213C6.39206 26.5699 6.30157 26.1231 6.18022 25.6844C6.06215 25.2998 5.90775 24.9273 5.71911 24.5719C5.50441 24.1669 5.23604 23.8034 4.96523 23.4351L3.69168 21.7005C2.60843 20.227 2.50597 20.0148 2.46693 19.8635C2.41069 19.6343 2.41069 19.395 2.46693 19.1658C2.50597 19.017 2.60843 18.8047 3.69168 17.3288L4.96523 15.5942C5.23604 15.2258 5.50441 14.8623 5.71911 14.4574C5.90778 14.0996 6.06149 13.7287 6.18022 13.3449C6.30157 12.9061 6.39206 12.4594 6.45103 12.008L6.77796 9.88069C7.05609 8.07296 7.13172 7.84851 7.20979 7.71678C7.33199 7.51523 7.50106 7.34617 7.70262 7.22398C7.83437 7.14591 8.05882 7.06784 9.86667 6.79217L11.9941 6.46527C12.4456 6.40629 12.8923 6.31581 13.3311 6.19447C13.7182 6.07574 14.0891 5.92205 14.4436 5.73339C14.8486 5.5187 15.2122 5.25035 15.5806 4.97955L17.3152 3.70609C18.7888 2.62291 19.0011 2.52045 19.1523 2.48141C19.3815 2.42517 19.6209 2.42517 19.8501 2.48141C19.9989 2.52045 20.2112 2.62291 21.6872 3.70609Z" fill="white"/>
</svg>
