<svg width="38" height="41" viewBox="0 0 38 41" fill="none" xmlns="http://www.w3.org/2000/svg">
<path fill-rule="evenodd" clip-rule="evenodd" d="M10.5465 2.20577C9.0188 2.40609 8.11671 2.78523 7.45651 3.42965L7.45569 3.43045C6.79827 4.07071 6.41419 4.94011 6.21037 6.41773C6.00223 7.92669 6 9.91372 6 12.7V39H32V12.7C32 9.91372 31.9978 7.92669 31.7896 6.41773C31.5858 4.94011 31.2017 4.07071 30.5443 3.43045L30.5435 3.42965C29.8833 2.78523 28.9812 2.40609 27.4535 2.20577C25.8996 2.00202 23.8556 2 21 2H17C14.1444 2 12.1004 2.00202 10.5465 2.20577ZM34 39V12.6225C34 9.93095 34 7.80588 33.7709 6.14445C33.5352 4.43598 33.0404 3.06983 31.9401 1.99805C30.8444 0.928705 29.4536 0.450909 27.7135 0.222744C26.0145 -3.13967e-05 23.8393 -1.74459e-05 21.0742 3.16288e-07H16.9258C14.1607 -1.74459e-05 11.9855 -3.13967e-05 10.2865 0.222744C8.54663 0.45088 7.15598 0.928587 6.06031 1.99765C4.95973 3.06949 4.46482 4.43577 4.22913 6.14445C3.99996 7.80587 3.99998 9.93093 4 12.6225L4 39H1C0.447715 39 0 39.4477 0 40C0 40.5523 0.447715 41 1 41H37C37.5523 41 38 40.5523 38 40C38 39.4477 37.5523 39 37 39H34ZM12.1351 8.99883C12.0433 9.40639 12 9.9654 12 10.75V13.65H18V7.85H15C14.1935 7.85 13.6137 7.89224 13.1879 7.98339C12.7721 8.0724 12.5716 8.19394 12.4569 8.30578C12.3442 8.41557 12.224 8.60401 12.1351 8.99883ZM15 5.85C14.1515 5.85 13.4038 5.89185 12.7693 6.0277C12.1248 6.16567 11.5322 6.41403 11.0606 6.87378C10.587 7.33559 10.3279 7.92045 10.184 8.55943C10.0429 9.18567 10 9.92098 10 10.75V18.55C10 19.379 10.0429 20.1143 10.184 20.7406C10.3279 21.3796 10.587 21.9644 11.0606 22.4262C11.5322 22.886 12.1248 23.1343 12.7693 23.2723C13.4038 23.4081 14.1515 23.45 15 23.45H23C23.8485 23.45 24.5962 23.4081 25.2307 23.2723C25.8752 23.1343 26.4678 22.886 26.9394 22.4262C27.413 21.9644 27.6721 21.3796 27.816 20.7406C27.9571 20.1143 28 19.379 28 18.55V10.75C28 9.92098 27.9571 9.18567 27.816 8.55943C27.6721 7.92045 27.413 7.33559 26.9394 6.87378C26.4678 6.41403 25.8752 6.16567 25.2307 6.0277C24.5962 5.89185 23.8485 5.85 23 5.85H15ZM20 7.85V13.65H26V10.75C26 9.9654 25.9567 9.40639 25.8649 8.99883C25.776 8.60401 25.6558 8.41557 25.5431 8.30578C25.4284 8.19394 25.2279 8.0724 24.8121 7.98339C24.3863 7.89224 23.8065 7.85 23 7.85H20ZM26 15.65H20V21.45H23C23.8065 21.45 24.3863 21.4078 24.8121 21.3166C25.2279 21.2276 25.4284 21.1061 25.5431 20.9942C25.6558 20.8844 25.776 20.696 25.8649 20.3012C25.9567 19.8936 26 19.3346 26 18.55V15.65ZM18 21.45V15.65H12V18.55C12 19.3346 12.0433 19.8936 12.1351 20.3012C12.224 20.696 12.3442 20.8844 12.4569 20.9942C12.5716 21.1061 12.7721 21.2276 13.1879 21.3166C13.6137 21.4078 14.1935 21.45 15 21.45H18ZM9.998 30.25C9.998 29.6977 10.4457 29.25 10.998 29.25H11.016C11.5683 29.25 12.016 29.6977 12.016 30.25C12.016 30.8023 11.5683 31.25 11.016 31.25H10.998C10.4457 31.25 9.998 30.8023 9.998 30.25Z" fill="white"/>
</svg>
