<svg width="49" height="50" viewBox="0 0 49 50" fill="none" xmlns="http://www.w3.org/2000/svg">
<path d="M8.71765 16.8686C8.71765 8.13808 14.8536 1.39442 22.9764 0.576296C31.5433 -0.276888 39.3271 6.12784 40.1335 14.6597C40.4842 18.4114 39.5375 21.8475 37.7844 25.1083C35.4001 29.5495 32.0224 33.1492 28.2006 36.3516C27.2072 37.1814 26.1553 37.9411 25.1268 38.7242C24.7178 39.0397 24.3087 39.0865 23.8763 38.7709C19.026 35.2764 14.7601 31.2208 11.6746 26.0433C9.8864 23.0396 8.75271 19.8255 8.71765 16.8686ZM24.484 24.9914C26.4709 24.9914 28.4578 24.9914 30.4446 24.9914C32.0926 24.9914 33.2029 23.8811 33.2029 22.2565C33.2029 18.2477 33.2029 14.2389 33.2029 10.2301C33.2029 8.59389 32.0809 7.49527 30.4446 7.49527C26.4592 7.49527 22.4621 7.49527 18.4767 7.49527C16.8171 7.49527 15.7184 8.60558 15.7068 10.2769C15.7068 14.2506 15.7068 18.2244 15.7068 22.1864C15.7068 23.8811 16.8054 24.9797 18.5234 24.9797C20.5103 24.9797 22.4972 24.9797 24.484 24.9797V24.9914Z" fill="white"/>
<path d="M8.71765 16.8686C8.71765 8.13808 14.8536 1.39442 22.9764 0.576296C31.5433 -0.276888 39.3271 6.12784 40.1335 14.6597C40.4842 18.4114 39.5375 21.8475 37.7844 25.1083C35.4001 29.5495 32.0224 33.1492 28.2006 36.3516C27.2072 37.1814 26.1553 37.9411 25.1268 38.7242C24.7178 39.0397 24.3087 39.0865 23.8763 38.7709C19.026 35.2764 14.7601 31.2208 11.6746 26.0433C9.8864 23.0396 8.75271 19.8255 8.71765 16.8686ZM24.484 24.9914C26.4709 24.9914 28.4578 24.9914 30.4446 24.9914C32.0926 24.9914 33.2029 23.8811 33.2029 22.2565C33.2029 18.2477 33.2029 14.2389 33.2029 10.2301C33.2029 8.59389 32.0809 7.49527 30.4446 7.49527C26.4592 7.49527 22.4621 7.49527 18.4767 7.49527C16.8171 7.49527 15.7184 8.60558 15.7068 10.2769C15.7068 14.2506 15.7068 18.2244 15.7068 22.1864C15.7068 23.8811 16.8054 24.9797 18.5234 24.9797C20.5103 24.9797 22.4972 24.9797 24.484 24.9797V24.9914Z" fill="url(#paint0_linear_242_239)"/>
<path d="M30.5829 49.465H18.3344C18.3344 47.9457 18.3344 46.4614 18.3344 44.9771C18.3344 44.5914 18.3578 44.2057 18.2994 43.8317C18.089 42.511 17.0021 41.6228 15.5879 41.6228C11.1817 41.6228 6.76384 41.6228 2.35767 41.6228C2.15898 41.6228 1.96029 41.6228 1.69148 41.6228C1.97198 40.4891 2.22911 39.4021 2.52129 38.3269C2.54467 38.2217 2.83685 38.1399 3.00048 38.1399C4.54322 38.1282 6.09766 38.1399 7.65209 38.1399C9.35846 38.1399 10.4454 37.0413 10.4571 35.3349C10.4571 33.8389 10.4571 32.3429 10.4571 30.8586C10.4571 30.6833 10.4571 30.508 10.4571 30.2742C11.0648 30.2742 11.6258 30.2509 12.1868 30.2859C12.3504 30.2859 12.5374 30.4612 12.6426 30.6015C15.471 34.1895 18.7785 37.275 22.4601 39.9631C23.9678 41.0618 24.9145 41.0618 26.4221 39.9631C30.1154 37.2867 33.4112 34.2012 36.2513 30.6132C36.3916 30.4379 36.6954 30.2859 36.9175 30.2859C39.103 30.2625 41.2886 30.2742 43.4742 30.2742C44.1287 30.2742 44.4091 30.4612 44.5611 31.0456C45.2156 33.6402 45.8584 36.2348 46.5129 38.8295C46.5246 38.8762 46.5129 38.9346 46.5129 39.0281H45.9051C41.7678 39.0281 37.6304 39.0281 33.4931 39.0281C31.6114 39.0281 30.5595 40.08 30.5595 41.9851C30.5595 44.2758 30.5595 46.5782 30.5595 48.869V49.5001L30.5829 49.465Z" fill="white"/>
<path d="M32.3374 49.4883C32.3374 46.8352 32.3374 44.264 32.3374 41.6928C32.3374 41.0616 32.688 40.7344 33.3425 40.7344C37.772 40.7344 42.2016 40.7344 46.6194 40.7344C46.8999 40.7344 47.0285 40.8045 47.0986 41.1084C47.683 43.516 48.3024 45.9119 48.8868 48.3079C49.0738 49.0559 48.6764 49.4883 47.8349 49.4883C44.2586 49.4883 40.6939 49.4883 37.1175 49.4883C35.5397 49.4883 33.9619 49.4883 32.314 49.4883H32.3374Z" fill="white"/>
<path d="M16.5946 49.4885H15.9752C11.0548 49.4885 6.14605 49.4885 1.22563 49.4885C0.127004 49.4885 -0.17687 49.0911 0.0919418 48.0276C0.477628 46.4965 0.863314 44.9654 1.26069 43.3643C1.45937 43.3643 1.65806 43.3643 1.84506 43.3643C6.34473 43.3643 10.8444 43.3643 15.3324 43.3643C16.3375 43.3643 16.5829 43.6214 16.5829 44.6265C16.5829 46.2277 16.5829 47.8289 16.5829 49.4885H16.5946Z" fill="white"/>
<path d="M3.00175 36.3752C3.46925 34.4935 3.89 32.6936 4.39256 30.9171C4.46269 30.6483 4.88344 30.3094 5.16393 30.286C6.32099 30.2159 7.48974 30.251 8.71692 30.251C8.71692 30.7652 8.71692 31.2561 8.71692 31.7353C8.71692 32.9157 8.71692 34.1078 8.71692 35.2882C8.71692 36.0479 8.40136 36.3635 7.66505 36.3635C6.13399 36.3635 4.61462 36.3635 3.00175 36.3635V36.3752Z" fill="white"/>
<path d="M21.3968 9.24854C21.3968 10.1251 21.3968 10.9198 21.3968 11.7263C21.3968 13.1638 22.5539 13.9703 23.8862 13.456C24.2953 13.3041 24.6226 13.2924 25.0316 13.456C26.3523 13.982 27.5094 13.1638 27.521 11.738C27.521 10.9432 27.521 10.1368 27.521 9.2836C28.6197 9.2836 29.6832 9.23685 30.7468 9.30697C31.2727 9.34204 31.4597 9.79785 31.4597 10.3121C31.4597 11.6211 31.4597 12.9301 31.4597 14.2508C31.4597 16.8571 31.4597 19.4634 31.4597 22.0697C31.4597 22.993 31.1909 23.2735 30.2559 23.2735C26.3874 23.2735 22.5305 23.2735 18.662 23.2735C17.727 23.2735 17.4581 23.0047 17.4581 22.0697C17.4581 18.2011 17.4581 14.3443 17.4581 10.4757C17.4581 9.54072 17.727 9.27191 18.6503 9.27191C19.5385 9.27191 20.4268 9.27191 21.3851 9.27191L21.3968 9.24854ZM20.9176 21.497C21.2098 21.497 21.502 21.497 21.7942 21.497C22.3435 21.4736 22.7175 21.1113 22.7058 20.6087C22.7058 20.1296 22.3435 19.7672 21.8176 19.7556C21.2332 19.7322 20.6488 19.7322 20.0644 19.7556C19.5502 19.7789 19.1996 20.1529 19.2113 20.6321C19.2113 21.1113 19.5736 21.4619 20.0995 21.4853C20.3683 21.497 20.6488 21.4853 20.9176 21.4853V21.497Z" fill="white"/>
<path d="M21.3968 9.24854C21.3968 10.1251 21.3968 10.9198 21.3968 11.7263C21.3968 13.1638 22.5539 13.9703 23.8862 13.456C24.2953 13.3041 24.6226 13.2924 25.0316 13.456C26.3523 13.982 27.5094 13.1638 27.521 11.738C27.521 10.9432 27.521 10.1368 27.521 9.2836C28.6197 9.2836 29.6832 9.23685 30.7468 9.30697C31.2727 9.34204 31.4597 9.79785 31.4597 10.3121C31.4597 11.6211 31.4597 12.9301 31.4597 14.2508C31.4597 16.8571 31.4597 19.4634 31.4597 22.0697C31.4597 22.993 31.1909 23.2735 30.2559 23.2735C26.3874 23.2735 22.5305 23.2735 18.662 23.2735C17.727 23.2735 17.4581 23.0047 17.4581 22.0697C17.4581 18.2011 17.4581 14.3443 17.4581 10.4757C17.4581 9.54072 17.727 9.27191 18.6503 9.27191C19.5385 9.27191 20.4268 9.27191 21.3851 9.27191L21.3968 9.24854ZM20.9176 21.497C21.2098 21.497 21.502 21.497 21.7942 21.497C22.3435 21.4736 22.7175 21.1113 22.7058 20.6087C22.7058 20.1296 22.3435 19.7672 21.8176 19.7556C21.2332 19.7322 20.6488 19.7322 20.0644 19.7556C19.5502 19.7789 19.1996 20.1529 19.2113 20.6321C19.2113 21.1113 19.5736 21.4619 20.0995 21.4853C20.3683 21.497 20.6488 21.4853 20.9176 21.4853V21.497Z" fill="url(#paint1_linear_242_239)"/>
<path d="M23.1626 11.9251V9.29541H25.7339V11.8667C24.9041 11.3875 24.0626 11.294 23.1626 11.9368V11.9251Z" fill="white"/>
<defs>
<linearGradient id="paint0_linear_242_239" x1="8.71765" y1="19.7428" x2="40.2059" y2="19.7428" gradientUnits="userSpaceOnUse">
<stop stop-color="#47EE71"/>
<stop offset="1" stop-color="#298841"/>
</linearGradient>
<linearGradient id="paint1_linear_242_239" x1="17.4581" y1="16.261" x2="31.4597" y2="16.261" gradientUnits="userSpaceOnUse">
<stop stop-color="#47EE71"/>
<stop offset="1" stop-color="#298841"/>
</linearGradient>
</defs>
</svg>
