<svg width="63" height="42" viewBox="0 0 63 42" fill="none" xmlns="http://www.w3.org/2000/svg">
<path d="M62.9999 36.7571H60.8087C60.6831 36.0035 60.5575 35.2917 60.4319 34.5381H62.9999V36.7571Z" fill="white"/>
<path d="M38.2527 0.777221C38.2527 1.02843 38.2527 1.25174 38.2527 1.47504C38.2527 5.24325 38.2527 9.02542 38.2527 12.7936C38.2527 15.7663 40.1089 17.6365 43.0955 17.6365C46.8498 17.6365 50.6041 17.6225 54.3583 17.6644C54.9166 17.6644 55.4888 17.9435 56.047 18.1389C56.1587 18.1808 56.2424 18.4599 56.2424 18.6413C56.2564 19.7299 56.2424 20.8185 56.2424 21.9071C56.2424 24.0424 57.6101 25.452 59.7594 25.5218C60.4293 25.5358 61.1132 25.5218 61.8389 25.5218V32.2488C60.9457 32.2488 60.0525 32.2627 59.1593 32.2488C59.0058 32.2488 58.8522 32.0813 58.7127 31.9557C55.9772 29.3738 52.0276 29.3877 49.2782 31.9557C49.0968 32.1232 48.7897 32.2488 48.5246 32.2488C37.9177 32.2627 27.3109 32.2627 16.7041 32.2488C16.4389 32.2488 16.1179 32.0952 15.9086 31.9138C13.2429 29.4156 9.26537 29.3738 6.61367 31.8719C6.30663 32.165 5.99959 32.2767 5.5809 32.2627C4.11549 32.2348 2.63611 32.2627 1.08696 32.2627C1.08696 31.9836 1.08696 31.7603 1.08696 31.537C1.08696 21.7955 1.08696 12.0539 1.08696 2.29846C1.08696 1.11217 1.44982 0.735352 2.62216 0.735352C14.3036 0.735352 25.9711 0.735352 37.6386 0.735352C37.82 0.735352 38.0015 0.763264 38.2387 0.777221H38.2527ZM22.0773 15.9198C22.5797 15.4593 23.0542 15.0685 23.4729 14.6359C23.766 14.3288 24.0591 14.2172 24.4917 14.2172C27.1853 14.2311 29.4742 12.4308 30.158 9.80697C30.3953 8.91377 30.3674 8.09034 29.6137 7.43439C28.888 6.82032 28.0925 6.82032 27.2551 7.21109C26.8783 7.39253 26.5154 7.42044 26.1805 7.08549C25.8455 6.75053 25.8734 6.38767 26.0688 6.01085C26.4735 5.17347 26.4596 4.37796 25.8595 3.65223C25.2593 2.9265 24.4499 2.88463 23.6125 3.06606C20.9747 3.63827 19.0627 6.13645 19.1186 8.92772C19.1186 9.13707 19.1185 9.40224 18.9929 9.55576C18.5045 10.128 17.9741 10.6583 17.4996 11.1747C16.6204 10.2954 15.8249 9.49993 14.9456 8.62068C15.2526 8.35551 15.6155 8.09034 15.9225 7.75539C17.1647 6.40163 16.6204 4.47565 14.8479 3.98718C13.6198 3.65223 12.3916 3.34519 11.1495 3.0521C10.34 2.85672 9.58637 2.99628 8.97229 3.58244C7.28357 5.25721 5.5809 6.93197 3.93405 8.63464C3.12459 9.47202 3.11063 10.742 3.89218 11.5934C4.71561 12.5005 5.59486 13.3658 6.50202 14.2032C7.35336 14.9848 8.59547 14.9569 9.47472 14.2032C9.69802 14.0078 9.92132 13.7845 10.1028 13.6171C10.9122 14.4405 11.7077 15.236 12.5032 16.0455C12.2939 16.3944 11.9869 16.5479 11.4844 16.52C8.74899 16.3665 6.04146 18.6134 5.65068 21.321C5.52508 22.1583 5.72046 22.8841 6.41828 23.4004C7.08819 23.8889 7.82787 23.9168 8.56756 23.554C9.04207 23.3167 9.5445 23.2609 9.79572 23.7773C9.93528 24.0704 9.87945 24.5309 9.75385 24.8519C9.46076 25.6335 9.47472 26.3452 10.0051 27.0012C10.5214 27.6432 11.2193 27.8386 12.0427 27.699C14.7921 27.2105 16.8437 24.7542 16.8018 21.8792C16.8018 21.3628 16.9693 21.0418 17.4717 20.7627C17.5973 20.9302 17.7229 21.0977 17.8625 21.2372C19.7745 23.1492 21.6865 25.0752 23.6125 26.9872C24.6453 28.02 25.9432 28.006 26.9899 26.9872C27.3947 26.5964 27.7715 26.2057 28.1623 25.8149C29.4742 24.489 29.4881 23.3028 28.1623 21.9909C26.1805 20.0091 24.1847 18.0133 22.0773 15.9059V15.9198Z" fill="white"/>
<path d="M52.8663 15.3612C52.015 15.3612 51.3032 15.3612 50.5914 15.3612C48.0514 15.3612 45.5113 15.3612 42.9573 15.3612C41.3802 15.3612 40.4731 14.468 40.4731 12.877C40.4731 9.03901 40.4731 5.20101 40.4731 1.37698C40.4731 1.19555 40.487 1.01411 40.501 0.776855C41.7152 0.776855 42.5944 1.32115 43.2644 2.24227C44.5623 4.00077 45.8602 5.77322 47.1582 7.54568C48.9167 9.94617 50.6752 12.3327 52.4337 14.7332C52.5593 14.9007 52.657 15.0681 52.8663 15.3473V15.3612Z" fill="white"/>
<path d="M18.0319 36.7292C17.9063 36.0034 17.7946 35.3056 17.669 34.5659H47.5635C47.4379 35.2916 47.3123 35.9895 47.1867 36.7292H18.0319Z" fill="white"/>
<path d="M6.74062 36.7706C6.74062 34.2864 8.73637 32.2767 11.2346 32.2627C13.7048 32.2627 15.7425 34.2864 15.7425 36.7566C15.7425 39.2409 13.7188 41.2645 11.2485 41.2645C8.76429 41.2645 6.75457 39.2548 6.75457 36.7706H6.74062Z" fill="white"/>
<path d="M6.74062 36.7706C6.74062 34.2864 8.73637 32.2767 11.2346 32.2627C13.7048 32.2627 15.7425 34.2864 15.7425 36.7566C15.7425 39.2409 13.7188 41.2645 11.2485 41.2645C8.76429 41.2645 6.75457 39.2548 6.75457 36.7706H6.74062Z" fill="url(#paint0_linear_242_222)"/>
<path d="M58.4914 36.7706C58.4914 39.2688 56.4817 41.2645 53.9975 41.2645C51.5272 41.2645 49.4896 39.2269 49.5036 36.7566C49.5036 34.2864 51.5551 32.2627 54.0254 32.2627C56.5236 32.2627 58.5054 34.2724 58.5054 36.7706H58.4914Z" fill="white"/>
<path d="M58.4914 36.7706C58.4914 39.2688 56.4817 41.2645 53.9975 41.2645C51.5272 41.2645 49.4896 39.2269 49.5036 36.7566C49.5036 34.2864 51.5551 32.2627 54.0254 32.2627C56.5236 32.2627 58.5054 34.2724 58.5054 36.7706H58.4914Z" fill="url(#paint1_linear_242_222)"/>
<path d="M61.8252 23.2325C61.0576 23.2325 60.3318 23.2464 59.5922 23.2325C58.9641 23.2185 58.5454 22.8277 58.5175 22.1997C58.4757 21.2507 58.5175 20.2877 58.5175 19.3247C60.8203 19.4503 62.1183 20.9576 61.8252 23.2464V23.2325Z" fill="white"/>
<path d="M0 36.7292V34.5659H4.78702C4.67537 35.2777 4.54977 35.9755 4.43812 36.7292H0Z" fill="white"/>
<path d="M12.0853 25.3684C12.8389 22.6609 10.5222 20.4977 8.06586 21.2792C8.31707 19.7301 10.1593 18.5159 11.8759 18.8368C12.5458 18.9625 13.0064 18.795 13.467 18.3344C15.9372 15.8502 18.4215 13.366 20.9057 10.8957C21.3523 10.4491 21.5198 10.0025 21.4221 9.36049C21.1569 7.56012 22.2176 5.85745 23.8086 5.4248C23.1108 8.07651 25.2322 10.1979 27.8839 9.51401C27.4791 11.0911 25.7485 12.2634 24.1994 11.9564C23.4457 11.8029 22.9294 11.9982 22.399 12.5425C20.0264 14.957 17.6399 17.3575 15.2255 19.7161C14.6672 20.2744 14.4299 20.8186 14.5276 21.6142C14.723 23.3168 13.7042 24.852 12.0992 25.3684H12.0853Z" fill="white"/>
<path d="M12.0853 25.3684C12.8389 22.6609 10.5222 20.4977 8.06586 21.2792C8.31707 19.7301 10.1593 18.5159 11.8759 18.8368C12.5458 18.9625 13.0064 18.795 13.467 18.3344C15.9372 15.8502 18.4215 13.366 20.9057 10.8957C21.3523 10.4491 21.5198 10.0025 21.4221 9.36049C21.1569 7.56012 22.2176 5.85745 23.8086 5.4248C23.1108 8.07651 25.2322 10.1979 27.8839 9.51401C27.4791 11.0911 25.7485 12.2634 24.1994 11.9564C23.4457 11.8029 22.9294 11.9982 22.399 12.5425C20.0264 14.957 17.6399 17.3575 15.2255 19.7161C14.6672 20.2744 14.4299 20.8186 14.5276 21.6142C14.723 23.3168 13.7042 24.852 12.0992 25.3684H12.0853Z" fill="url(#paint2_linear_242_222)"/>
<path d="M14.2078 6.1363C12.0864 8.25767 10.0069 10.3372 7.95532 12.3887C7.24354 11.677 6.4899 10.9094 5.68044 10.0999C5.7223 10.058 5.80604 9.91847 5.91769 9.82078C7.32728 8.41119 8.73687 7.01555 10.1325 5.59201C10.4116 5.29892 10.6628 5.2431 11.0397 5.35475C12.0864 5.64783 13.1471 5.88509 14.1938 6.15026L14.2078 6.1363Z" fill="white"/>
<path d="M14.2078 6.1363C12.0864 8.25767 10.0069 10.3372 7.95532 12.3887C7.24354 11.677 6.4899 10.9094 5.68044 10.0999C5.7223 10.058 5.80604 9.91847 5.91769 9.82078C7.32728 8.41119 8.73687 7.01555 10.1325 5.59201C10.4116 5.29892 10.6628 5.2431 11.0397 5.35475C12.0864 5.64783 13.1471 5.88509 14.1938 6.15026L14.2078 6.1363Z" fill="url(#paint3_linear_242_222)"/>
<path d="M26.7391 23.9864C26.3064 24.4331 25.804 24.9355 25.3295 25.41C23.236 23.3165 21.1566 21.2371 19.0771 19.1576C19.5516 18.697 20.068 18.2085 20.5146 17.7759C22.5522 19.8135 24.6317 21.893 26.7251 24.0004L26.7391 23.9864Z" fill="white"/>
<path d="M26.7391 23.9864C26.3064 24.4331 25.804 24.9355 25.3295 25.41C23.236 23.3165 21.1566 21.2371 19.0771 19.1576C19.5516 18.697 20.068 18.2085 20.5146 17.7759C22.5522 19.8135 24.6317 21.893 26.7251 24.0004L26.7391 23.9864Z" fill="url(#paint4_linear_242_222)"/>
<path d="M11.8215 11.9281C12.3099 11.4536 12.8263 10.9652 13.2869 10.5186C14.0405 11.2722 14.8221 12.0677 15.6176 12.8772C15.1849 13.2819 14.6407 13.7704 14.1382 14.2309C13.4265 13.5192 12.6309 12.7376 11.8215 11.9281Z" fill="white"/>
<path d="M11.8215 11.9281C12.3099 11.4536 12.8263 10.9652 13.2869 10.5186C14.0405 11.2722 14.8221 12.0677 15.6176 12.8772C15.1849 13.2819 14.6407 13.7704 14.1382 14.2309C13.4265 13.5192 12.6309 12.7376 11.8215 11.9281Z" fill="url(#paint5_linear_242_222)"/>
<defs>
<linearGradient id="paint0_linear_242_222" x1="6.74062" y1="36.7636" x2="15.7425" y2="36.7636" gradientUnits="userSpaceOnUse">
<stop stop-color="#47EE71"/>
<stop offset="1" stop-color="#298841"/>
</linearGradient>
<linearGradient id="paint1_linear_242_222" x1="49.5035" y1="36.7636" x2="58.5054" y2="36.7636" gradientUnits="userSpaceOnUse">
<stop stop-color="#47EE71"/>
<stop offset="1" stop-color="#298841"/>
</linearGradient>
<linearGradient id="paint2_linear_242_222" x1="8.06586" y1="15.3966" x2="27.8839" y2="15.3966" gradientUnits="userSpaceOnUse">
<stop stop-color="#47EE71"/>
<stop offset="1" stop-color="#298841"/>
</linearGradient>
<linearGradient id="paint3_linear_242_222" x1="5.68044" y1="8.84501" x2="14.2078" y2="8.84501" gradientUnits="userSpaceOnUse">
<stop stop-color="#47EE71"/>
<stop offset="1" stop-color="#298841"/>
</linearGradient>
<linearGradient id="paint4_linear_242_222" x1="19.0771" y1="21.5929" x2="26.7391" y2="21.5929" gradientUnits="userSpaceOnUse">
<stop stop-color="#47EE71"/>
<stop offset="1" stop-color="#298841"/>
</linearGradient>
<linearGradient id="paint5_linear_242_222" x1="11.8215" y1="12.3747" x2="15.6176" y2="12.3747" gradientUnits="userSpaceOnUse">
<stop stop-color="#47EE71"/>
<stop offset="1" stop-color="#298841"/>
</linearGradient>
</defs>
</svg>
