<svg width="49" height="50" viewBox="0 0 49 50" fill="none" xmlns="http://www.w3.org/2000/svg">
<path d="M0.351166 40.0125C0.351166 39.0434 0.759787 38.3196 1.40191 37.6658C6.88911 32.1553 12.353 26.633 17.8285 21.1225C24.168 14.748 30.4958 8.38516 36.8236 2.02233C38.2479 0.586322 40.0225 0.574647 41.4468 1.99899C43.3498 3.90199 45.2528 5.81668 47.1442 7.73136C48.5802 9.19072 48.5802 10.8953 47.1442 12.3429C35.3642 24.2163 23.5842 36.1014 11.8042 47.9864C10.952 48.8504 9.98296 49.3524 8.76877 49.0138C8.2434 48.8737 7.70635 48.5818 7.32108 48.2082C5.25462 46.1768 3.23487 44.0987 1.21511 42.0439C0.654713 41.4718 0.374516 40.783 0.362841 40.0125H0.351166ZM19.3346 30.906C19.4513 30.6959 19.4863 30.6375 19.5214 30.5791C20.3036 29.4934 20.1401 28.1391 19.1127 27.1817C18.1904 26.3061 16.9179 26.2711 15.9021 27.1117C15.4001 27.532 14.9565 28.0223 14.4895 28.4777C13.8474 29.1198 13.8474 29.4934 14.4895 30.1355C16.0656 31.7116 17.63 33.276 19.2061 34.8405C19.2762 34.9105 19.3346 34.9689 19.4046 35.0273C19.7782 35.3425 20.2569 35.3542 20.5954 35.0506C20.9457 34.7354 20.9924 34.2684 20.6772 33.8715C20.4086 33.5329 20.0934 33.2293 19.8016 32.9024C19.7198 32.809 19.6381 32.704 19.5681 32.6106C20.2452 32.6106 20.8873 32.6106 21.5178 32.6106C21.9147 32.6106 22.3233 32.6223 22.7086 32.5756C23.1406 32.5172 23.3857 32.237 23.3974 31.7817C23.3974 31.3147 23.1289 31.0345 22.6969 30.9294C22.4868 30.8827 22.265 30.8944 22.0431 30.8827C21.1792 30.8827 20.3036 30.8827 19.3346 30.8827V30.906ZM38.5631 6.20195C37.0921 6.16692 35.9363 6.94914 34.9789 8.10496C34.6404 8.51358 34.6637 8.9222 35.0723 9.31915C36.7068 10.9536 38.353 12.5764 40.0108 14.1876C40.4895 14.6546 40.9098 14.6312 41.4001 14.1876C41.5519 14.0475 41.6803 13.9074 41.8204 13.7673C43.1047 12.4714 43.4783 10.6734 42.8011 9.03895C42.1123 7.36944 40.4428 6.2253 38.5748 6.21362L38.5631 6.20195ZM34.2784 13.8023C33.7998 13.3353 33.3795 12.9384 32.9008 12.483C33.3911 12.0161 33.8815 11.5841 34.3368 11.1171C34.7571 10.6968 34.7688 10.1714 34.4069 9.80949C34.0449 9.44757 33.5312 9.47092 33.0993 9.89122C32.4571 10.51 31.8267 11.1404 31.2079 11.7709C30.6592 12.3196 30.6592 12.7632 31.2079 13.3236C32.7957 14.9231 34.3952 16.5109 35.9946 18.0987C36.52 18.624 36.9637 18.624 37.5007 18.0987C38.1311 17.4916 38.7382 16.8728 39.357 16.254C39.824 15.7754 39.8707 15.2967 39.4971 14.9114C39.1118 14.5028 38.6215 14.5378 38.1078 15.0165C37.6525 15.4485 37.1972 15.8804 36.8002 16.2424C36.3332 15.787 35.9246 15.3901 35.4693 14.9465C35.9129 14.5262 36.3799 14.0942 36.8236 13.6389C37.2672 13.1952 37.2789 12.6582 36.8936 12.2962C36.5317 11.9577 36.018 11.9927 35.586 12.413C35.1307 12.8566 34.6987 13.3236 34.2551 13.779L34.2784 13.8023ZM11.9794 33.3694C12.4697 32.9141 12.9367 32.5172 13.3804 32.0735C13.8007 31.6532 13.824 31.1279 13.4854 30.7659C13.1118 30.369 12.6098 30.404 12.1428 30.8593C11.5357 31.4548 10.9286 32.0619 10.3215 32.669C9.77281 33.2177 9.77281 33.6613 10.3215 34.21C11.8976 35.7978 13.4854 37.3739 15.0732 38.95C15.6103 39.4754 16.0422 39.4871 16.5793 38.95C17.1864 38.3546 17.7935 37.7475 18.4006 37.1404C18.9026 36.6384 18.961 36.1014 18.5523 35.7161C18.1671 35.3425 17.6534 35.4009 17.163 35.8912C16.7194 36.3349 16.2991 36.8019 15.9372 37.1988C15.4235 36.7318 15.0148 36.3582 14.5011 35.8912C14.9565 35.4709 15.4001 35.0973 15.8087 34.6887C16.3691 34.14 16.4509 33.6263 16.0539 33.2293C15.657 32.8207 15.1316 32.8908 14.5945 33.4395C14.1742 33.8598 13.7656 34.3034 13.3687 34.7121C12.89 34.2567 12.4931 33.8598 11.9677 33.3578L11.9794 33.3694ZM9.98296 43.8302C11.8509 43.8302 13.3687 42.721 13.8357 40.9698C13.9408 40.5612 13.9408 40.1059 13.8941 39.6856C13.8474 39.2769 13.5321 39.0785 13.1118 39.0785C12.6799 39.0785 12.388 39.3003 12.2712 39.7206C12.2362 39.8607 12.2362 40.0125 12.2245 40.1526C12.0728 41.3084 11.2555 42.0556 10.088 42.0789C8.92054 42.1023 7.74138 41.2967 7.34443 40.1876C6.81906 38.7282 7.5896 37.3623 9.11902 37.0821C9.28246 37.047 9.44591 37.0354 9.59769 36.9887C9.97128 36.8836 10.2515 36.6267 10.1814 36.2531C10.1347 35.9496 9.94794 35.5877 9.71444 35.4242C9.48094 35.2608 9.07232 35.2491 8.76877 35.3075C7.20433 35.611 6.07187 36.4866 5.5932 38.0394C4.7526 40.748 7.09926 43.8302 9.98296 43.8302ZM29.5501 20.6672C30.0171 20.2352 30.4257 19.8499 30.8227 19.453C31.3247 18.9509 31.3714 18.4723 30.9861 18.0753C30.6008 17.6784 30.0988 17.7251 29.6085 18.2154C29.1998 18.624 28.8029 19.0443 28.4176 19.453C27.9857 19.0327 27.6121 18.6707 27.2385 18.3088C27.2618 18.2738 27.2618 18.2271 27.2852 18.2037C27.6704 17.8185 28.0557 17.4332 28.4293 17.0363C28.8613 16.5809 28.8846 16.0556 28.4994 15.6936C28.1258 15.3434 27.6354 15.3784 27.1918 15.8104C26.6314 16.3591 26.0826 16.9078 25.5339 17.4682C24.8918 18.1103 24.8801 18.5423 25.5223 19.1844C27.0633 20.7255 28.6044 22.2783 30.1572 23.8077C30.309 23.9595 30.4724 24.1112 30.6592 24.2163C31.0328 24.4381 31.4064 24.3798 31.71 24.0762C32.0135 23.7727 32.0485 23.3874 31.8267 23.0255C31.6983 22.8153 31.5232 22.6169 31.3364 22.4417C30.776 21.8697 30.2039 21.3209 29.5501 20.6788V20.6672ZM21.7513 23.726C21.9964 23.4575 22.2533 23.224 22.4751 22.9554C22.7787 22.5818 22.7553 22.1732 22.4401 21.8113C22.1365 21.461 21.6112 21.4143 21.2609 21.7529C20.3036 22.6752 19.3696 23.6092 18.4473 24.5782C18.1087 24.9402 18.1554 25.4422 18.4823 25.7691C18.8092 26.096 19.2645 26.1193 19.6615 25.7924C19.9417 25.5706 20.1868 25.3138 20.5604 24.9635C21.6695 26.1077 22.7436 27.2401 23.8411 28.3609C24.2263 28.7579 24.5999 29.1431 25.0086 29.5051C25.3705 29.8203 25.7908 29.8086 26.141 29.4817C26.4913 29.1548 26.5263 28.7462 26.2578 28.3492C26.141 28.1741 25.9776 28.0223 25.8141 27.8706C24.4715 26.5163 23.1289 25.1503 21.7513 23.761V23.726ZM34.8738 20.5154C35.1307 20.2819 35.4342 20.1184 35.586 19.8616C35.8078 19.4646 35.6327 19.1027 35.3175 18.7875C33.7064 17.188 32.0952 15.5769 30.4841 13.9774C30.0521 13.5455 29.5384 13.4988 29.1765 13.8373C28.7562 14.2343 28.7562 14.7713 29.2115 15.2266C30.8343 16.8378 32.4688 18.4489 34.1033 20.0484C34.2901 20.2235 34.547 20.3169 34.8622 20.5037L34.8738 20.5154ZM23.6543 19.5113C23.3974 19.7448 23.1172 19.92 22.9655 20.1651C22.732 20.5387 22.9071 20.9007 23.1989 21.1925C24.8334 22.827 26.4562 24.4615 28.0907 26.0843C28.5227 26.5163 29.0247 26.528 29.3983 26.1544C29.7602 25.7924 29.7369 25.2671 29.3283 24.8468C27.7055 23.2123 26.071 21.5778 24.4248 19.9667C24.2497 19.7915 23.9812 19.6981 23.6543 19.5113Z" fill="white"/>
<path d="M0.351166 40.0125C0.351166 39.0434 0.759787 38.3196 1.40191 37.6658C6.88911 32.1553 12.353 26.633 17.8285 21.1225C24.168 14.748 30.4958 8.38516 36.8236 2.02233C38.2479 0.586322 40.0225 0.574647 41.4468 1.99899C43.3498 3.90199 45.2528 5.81668 47.1442 7.73136C48.5802 9.19072 48.5802 10.8953 47.1442 12.3429C35.3642 24.2163 23.5842 36.1014 11.8042 47.9864C10.952 48.8504 9.98296 49.3524 8.76877 49.0138C8.2434 48.8737 7.70635 48.5818 7.32108 48.2082C5.25462 46.1768 3.23487 44.0987 1.21511 42.0439C0.654713 41.4718 0.374516 40.783 0.362841 40.0125H0.351166ZM19.3346 30.906C19.4513 30.6959 19.4863 30.6375 19.5214 30.5791C20.3036 29.4934 20.1401 28.1391 19.1127 27.1817C18.1904 26.3061 16.9179 26.2711 15.9021 27.1117C15.4001 27.532 14.9565 28.0223 14.4895 28.4777C13.8474 29.1198 13.8474 29.4934 14.4895 30.1355C16.0656 31.7116 17.63 33.276 19.2061 34.8405C19.2762 34.9105 19.3346 34.9689 19.4046 35.0273C19.7782 35.3425 20.2569 35.3542 20.5954 35.0506C20.9457 34.7354 20.9924 34.2684 20.6772 33.8715C20.4086 33.5329 20.0934 33.2293 19.8016 32.9024C19.7198 32.809 19.6381 32.704 19.5681 32.6106C20.2452 32.6106 20.8873 32.6106 21.5178 32.6106C21.9147 32.6106 22.3233 32.6223 22.7086 32.5756C23.1406 32.5172 23.3857 32.237 23.3974 31.7817C23.3974 31.3147 23.1289 31.0345 22.6969 30.9294C22.4868 30.8827 22.265 30.8944 22.0431 30.8827C21.1792 30.8827 20.3036 30.8827 19.3346 30.8827V30.906ZM38.5631 6.20195C37.0921 6.16692 35.9363 6.94914 34.9789 8.10496C34.6404 8.51358 34.6637 8.9222 35.0723 9.31915C36.7068 10.9536 38.353 12.5764 40.0108 14.1876C40.4895 14.6546 40.9098 14.6312 41.4001 14.1876C41.5519 14.0475 41.6803 13.9074 41.8204 13.7673C43.1047 12.4714 43.4783 10.6734 42.8011 9.03895C42.1123 7.36944 40.4428 6.2253 38.5748 6.21362L38.5631 6.20195ZM34.2784 13.8023C33.7998 13.3353 33.3795 12.9384 32.9008 12.483C33.3911 12.0161 33.8815 11.5841 34.3368 11.1171C34.7571 10.6968 34.7688 10.1714 34.4069 9.80949C34.0449 9.44757 33.5312 9.47092 33.0993 9.89122C32.4571 10.51 31.8267 11.1404 31.2079 11.7709C30.6592 12.3196 30.6592 12.7632 31.2079 13.3236C32.7957 14.9231 34.3952 16.5109 35.9946 18.0987C36.52 18.624 36.9637 18.624 37.5007 18.0987C38.1311 17.4916 38.7382 16.8728 39.357 16.254C39.824 15.7754 39.8707 15.2967 39.4971 14.9114C39.1118 14.5028 38.6215 14.5378 38.1078 15.0165C37.6525 15.4485 37.1972 15.8804 36.8002 16.2424C36.3332 15.787 35.9246 15.3901 35.4693 14.9465C35.9129 14.5262 36.3799 14.0942 36.8236 13.6389C37.2672 13.1952 37.2789 12.6582 36.8936 12.2962C36.5317 11.9577 36.018 11.9927 35.586 12.413C35.1307 12.8566 34.6987 13.3236 34.2551 13.779L34.2784 13.8023ZM11.9794 33.3694C12.4697 32.9141 12.9367 32.5172 13.3804 32.0735C13.8007 31.6532 13.824 31.1279 13.4854 30.7659C13.1118 30.369 12.6098 30.404 12.1428 30.8593C11.5357 31.4548 10.9286 32.0619 10.3215 32.669C9.77281 33.2177 9.77281 33.6613 10.3215 34.21C11.8976 35.7978 13.4854 37.3739 15.0732 38.95C15.6103 39.4754 16.0422 39.4871 16.5793 38.95C17.1864 38.3546 17.7935 37.7475 18.4006 37.1404C18.9026 36.6384 18.961 36.1014 18.5523 35.7161C18.1671 35.3425 17.6534 35.4009 17.163 35.8912C16.7194 36.3349 16.2991 36.8019 15.9372 37.1988C15.4235 36.7318 15.0148 36.3582 14.5011 35.8912C14.9565 35.4709 15.4001 35.0973 15.8087 34.6887C16.3691 34.14 16.4509 33.6263 16.0539 33.2293C15.657 32.8207 15.1316 32.8908 14.5945 33.4395C14.1742 33.8598 13.7656 34.3034 13.3687 34.7121C12.89 34.2567 12.4931 33.8598 11.9677 33.3578L11.9794 33.3694ZM9.98296 43.8302C11.8509 43.8302 13.3687 42.721 13.8357 40.9698C13.9408 40.5612 13.9408 40.1059 13.8941 39.6856C13.8474 39.2769 13.5321 39.0785 13.1118 39.0785C12.6799 39.0785 12.388 39.3003 12.2712 39.7206C12.2362 39.8607 12.2362 40.0125 12.2245 40.1526C12.0728 41.3084 11.2555 42.0556 10.088 42.0789C8.92054 42.1023 7.74138 41.2967 7.34443 40.1876C6.81906 38.7282 7.5896 37.3623 9.11902 37.0821C9.28246 37.047 9.44591 37.0354 9.59769 36.9887C9.97128 36.8836 10.2515 36.6267 10.1814 36.2531C10.1347 35.9496 9.94794 35.5877 9.71444 35.4242C9.48094 35.2608 9.07232 35.2491 8.76877 35.3075C7.20433 35.611 6.07187 36.4866 5.5932 38.0394C4.7526 40.748 7.09926 43.8302 9.98296 43.8302ZM29.5501 20.6672C30.0171 20.2352 30.4257 19.8499 30.8227 19.453C31.3247 18.9509 31.3714 18.4723 30.9861 18.0753C30.6008 17.6784 30.0988 17.7251 29.6085 18.2154C29.1998 18.624 28.8029 19.0443 28.4176 19.453C27.9857 19.0327 27.6121 18.6707 27.2385 18.3088C27.2618 18.2738 27.2618 18.2271 27.2852 18.2037C27.6704 17.8185 28.0557 17.4332 28.4293 17.0363C28.8613 16.5809 28.8846 16.0556 28.4994 15.6936C28.1258 15.3434 27.6354 15.3784 27.1918 15.8104C26.6314 16.3591 26.0826 16.9078 25.5339 17.4682C24.8918 18.1103 24.8801 18.5423 25.5223 19.1844C27.0633 20.7255 28.6044 22.2783 30.1572 23.8077C30.309 23.9595 30.4724 24.1112 30.6592 24.2163C31.0328 24.4381 31.4064 24.3798 31.71 24.0762C32.0135 23.7727 32.0485 23.3874 31.8267 23.0255C31.6983 22.8153 31.5232 22.6169 31.3364 22.4417C30.776 21.8697 30.2039 21.3209 29.5501 20.6788V20.6672ZM21.7513 23.726C21.9964 23.4575 22.2533 23.224 22.4751 22.9554C22.7787 22.5818 22.7553 22.1732 22.4401 21.8113C22.1365 21.461 21.6112 21.4143 21.2609 21.7529C20.3036 22.6752 19.3696 23.6092 18.4473 24.5782C18.1087 24.9402 18.1554 25.4422 18.4823 25.7691C18.8092 26.096 19.2645 26.1193 19.6615 25.7924C19.9417 25.5706 20.1868 25.3138 20.5604 24.9635C21.6695 26.1077 22.7436 27.2401 23.8411 28.3609C24.2263 28.7579 24.5999 29.1431 25.0086 29.5051C25.3705 29.8203 25.7908 29.8086 26.141 29.4817C26.4913 29.1548 26.5263 28.7462 26.2578 28.3492C26.141 28.1741 25.9776 28.0223 25.8141 27.8706C24.4715 26.5163 23.1289 25.1503 21.7513 23.761V23.726ZM34.8738 20.5154C35.1307 20.2819 35.4342 20.1184 35.586 19.8616C35.8078 19.4646 35.6327 19.1027 35.3175 18.7875C33.7064 17.188 32.0952 15.5769 30.4841 13.9774C30.0521 13.5455 29.5384 13.4988 29.1765 13.8373C28.7562 14.2343 28.7562 14.7713 29.2115 15.2266C30.8343 16.8378 32.4688 18.4489 34.1033 20.0484C34.2901 20.2235 34.547 20.3169 34.8622 20.5037L34.8738 20.5154ZM23.6543 19.5113C23.3974 19.7448 23.1172 19.92 22.9655 20.1651C22.732 20.5387 22.9071 20.9007 23.1989 21.1925C24.8334 22.827 26.4562 24.4615 28.0907 26.0843C28.5227 26.5163 29.0247 26.528 29.3983 26.1544C29.7602 25.7924 29.7369 25.2671 29.3283 24.8468C27.7055 23.2123 26.071 21.5778 24.4248 19.9667C24.2497 19.7915 23.9812 19.6981 23.6543 19.5113Z" fill="url(#paint0_linear_242_249)"/>
<path d="M45.3111 16.7905C46.0466 17.5494 46.8639 18.2849 47.5527 19.1255C48.6268 20.4331 48.8486 21.9625 48.2298 23.5386C47.9029 24.3792 47.471 25.1965 46.9806 25.9437C45.8832 27.6015 45.6263 29.341 46.14 31.2557C46.3735 32.1313 46.5486 33.0303 46.607 33.9293C46.7354 35.8089 45.8832 37.2333 44.272 38.1789C43.5832 38.5759 42.8477 38.9028 42.1122 39.218C40.4894 39.8952 39.2168 40.9225 38.5513 42.6154C38.2828 43.3042 37.9326 43.9697 37.594 44.6352C36.2747 47.1686 34.7803 47.8925 31.9667 47.3671C31.2896 47.2387 30.6007 47.1336 29.9353 46.9468C28.2658 46.4798 26.7947 46.9468 25.3587 47.7874C24.3897 48.3595 23.3856 48.8732 22.3349 49.2584C21.1441 49.7137 19.9182 49.5153 18.9142 48.7447C17.9101 47.9859 17.0112 47.0752 16.0188 46.1879C16.2406 45.9428 16.3574 45.8143 16.4741 45.6859C18.167 43.9814 19.8598 42.2768 21.541 40.5606C21.7745 40.3271 21.9847 40.2571 22.3116 40.3038C22.907 40.3855 23.5024 40.4322 24.1095 40.4556C24.7166 40.4789 25.1019 40.1403 25.1369 39.6266C25.1719 39.1246 24.88 38.8211 24.2613 38.716C24.0278 38.681 23.7943 38.6576 23.5141 38.6343C28.3475 33.8826 33.1575 29.1542 37.8859 24.5076C37.9793 25.4533 37.8859 26.6208 37.6407 27.7766C36.9285 31.2324 35.1306 34.011 32.3053 36.1358C31.7916 36.5211 31.6632 36.9181 31.8966 37.35C32.1185 37.7586 32.4804 37.8871 32.9124 37.782C33.0641 37.747 33.2042 37.6419 33.3327 37.5485C37.8275 34.0694 39.964 29.5045 39.5554 23.8188C39.4853 22.8848 39.6488 22.2544 40.3493 21.6123C42.0071 20.0828 43.5832 18.4717 45.2878 16.7905H45.3111Z" fill="white"/>
<path d="M32.5849 3.98333C30.6235 5.89801 28.7672 7.7193 26.8875 9.52891C26.7357 9.66901 26.4322 9.70403 26.1987 9.69236C25.7784 9.66901 25.3698 9.56393 24.9611 9.52891C24.6576 9.50556 24.3424 9.52891 24.0505 9.61063C23.6302 9.71571 23.4201 10.0426 23.4317 10.4629C23.4434 10.8715 23.7003 11.14 24.0972 11.2218C24.4008 11.2918 24.7043 11.3152 25.0779 11.3619C20.2328 16.1136 15.4228 20.8302 10.6127 25.5585C10.636 25.6169 10.6594 25.6753 10.6944 25.7337C10.6827 25.5469 10.6594 25.3717 10.6594 25.1849C10.7061 20.013 12.8893 16.0202 17.2324 13.2065C17.3258 13.1481 17.4192 13.1014 17.5126 13.0314C17.9679 12.7162 18.108 12.2842 17.8745 11.8522C17.6176 11.3735 17.1857 11.3035 16.7537 11.5136C16.205 11.7822 15.6563 12.0857 15.1659 12.4593C11.8035 15.0745 9.64368 18.4369 9.09496 22.6865C8.90816 24.0992 9.07161 25.5469 9.05993 26.9829C9.05993 27.193 9.03658 27.4849 8.90816 27.6133C7.06352 29.4463 5.20721 31.2676 3.25751 33.1823C2.49864 32.3884 1.62302 31.5828 0.899175 30.6722C-0.0931912 29.4229 -0.23329 27.9636 0.327105 26.4925C0.654002 25.6519 1.0743 24.8347 1.56464 24.0758C2.66209 22.4063 2.95396 20.6434 2.40524 18.7171C2.18341 17.9348 2.01997 17.1176 1.94992 16.312C1.76312 14.3039 2.58036 12.7629 4.3316 11.7705C5.00874 11.3852 5.72091 11.0583 6.44475 10.7664C8.26604 10.0543 9.50358 8.79339 10.1924 6.9721C10.4492 6.29496 10.7411 5.62949 11.103 4.98737C12.2355 2.95594 13.9284 2.15037 16.2166 2.52397C17.1623 2.67574 18.0963 2.96761 19.042 3.13106C20.5831 3.41126 21.9724 2.99096 23.2916 2.16204C24.0972 1.64835 24.9611 1.18135 25.8484 0.831105C27.3895 0.212336 28.8722 0.469183 30.1448 1.5316C30.9737 2.22042 31.6976 3.04934 32.5965 3.9483L32.5849 3.98333Z" fill="white"/>
<path d="M17.3029 30.369C16.9293 29.9837 16.5908 29.6335 16.2172 29.2599C16.6725 28.9797 16.8476 28.2091 17.5715 28.3376C17.8283 28.3843 18.1785 28.7112 18.2252 28.968C18.377 29.7035 17.6065 29.8903 17.3029 30.3807V30.369Z" fill="white"/>
<path d="M17.3029 30.369C16.9293 29.9837 16.5908 29.6335 16.2172 29.2599C16.6725 28.9797 16.8476 28.2091 17.5715 28.3376C17.8283 28.3843 18.1785 28.7112 18.2252 28.968C18.377 29.7035 17.6065 29.8903 17.3029 30.3807V30.369Z" fill="url(#paint1_linear_242_249)"/>
<path d="M37.0222 8.51348C37.9212 7.63786 39.3455 7.71958 40.4546 8.782C41.6105 9.89111 41.7155 11.2804 40.7582 12.3312C39.5206 11.0703 38.2831 9.80939 37.0222 8.51348Z" fill="white"/>
<path d="M37.0222 8.51348C37.9212 7.63786 39.3455 7.71958 40.4546 8.782C41.6105 9.89111 41.7155 11.2804 40.7582 12.3312C39.5206 11.0703 38.2831 9.80939 37.0222 8.51348Z" fill="url(#paint2_linear_242_249)"/>
<defs>
<linearGradient id="paint0_linear_242_249" x1="0.351166" y1="25.0292" x2="48.2212" y2="25.0292" gradientUnits="userSpaceOnUse">
<stop stop-color="#47EE71"/>
<stop offset="1" stop-color="#298841"/>
</linearGradient>
<linearGradient id="paint1_linear_242_249" x1="16.2172" y1="29.352" x2="18.2448" y2="29.352" gradientUnits="userSpaceOnUse">
<stop stop-color="#47EE71"/>
<stop offset="1" stop-color="#298841"/>
</linearGradient>
<linearGradient id="paint2_linear_242_249" x1="37.0222" y1="10.1231" x2="41.4063" y2="10.1231" gradientUnits="userSpaceOnUse">
<stop stop-color="#47EE71"/>
<stop offset="1" stop-color="#298841"/>
</linearGradient>
</defs>
</svg>
