<svg width="49" height="50" viewBox="0 0 49 50" fill="none" xmlns="http://www.w3.org/2000/svg">
<path d="M25.558 0.479492C26.4299 0.65386 27.3163 0.755575 28.1736 1.01713C33.1576 2.57191 36.0492 6.03021 37.139 11.0578C37.8946 14.5161 37.3424 17.8291 36.0347 21.0695C34.5961 24.6004 32.6926 27.8844 30.4985 30.9794C28.9873 33.1009 27.3744 35.1352 25.776 37.1695C25.0059 38.1576 24.0614 38.1285 23.2477 37.1695C19.6005 32.7957 16.302 28.1895 13.8463 23.0311C12.8001 20.8224 11.8701 18.5411 11.6522 16.0854C11.2017 10.8399 12.495 6.23364 16.8687 2.89159C18.656 1.55476 20.7193 0.813698 22.9571 0.566676C23.0588 0.566676 23.1605 0.508554 23.2622 0.479492C24.0323 0.479492 24.7879 0.479492 25.558 0.479492ZM24.5264 17.7419C26.9239 17.7419 28.8275 15.8094 28.8275 13.4118C28.8275 11.0288 26.8658 9.09619 24.4973 9.11072C22.1143 9.11072 20.1962 11.0724 20.1962 13.4409C20.1962 15.8239 22.1433 17.7419 24.5264 17.7274V17.7419Z" fill="white"/>
<path d="M25.558 0.479492C26.4299 0.65386 27.3163 0.755575 28.1736 1.01713C33.1576 2.57191 36.0492 6.03021 37.139 11.0578C37.8946 14.5161 37.3424 17.8291 36.0347 21.0695C34.5961 24.6004 32.6926 27.8844 30.4985 30.9794C28.9873 33.1009 27.3744 35.1352 25.776 37.1695C25.0059 38.1576 24.0614 38.1285 23.2477 37.1695C19.6005 32.7957 16.302 28.1895 13.8463 23.0311C12.8001 20.8224 11.8701 18.5411 11.6522 16.0854C11.2017 10.8399 12.495 6.23364 16.8687 2.89159C18.656 1.55476 20.7193 0.813698 22.9571 0.566676C23.0588 0.566676 23.1605 0.508554 23.2622 0.479492C24.0323 0.479492 24.7879 0.479492 25.558 0.479492ZM24.5264 17.7419C26.9239 17.7419 28.8275 15.8094 28.8275 13.4118C28.8275 11.0288 26.8658 9.09619 24.4973 9.11072C22.1143 9.11072 20.1962 11.0724 20.1962 13.4409C20.1962 15.8239 22.1433 17.7419 24.5264 17.7274V17.7419Z" fill="url(#paint0_linear_242_213)"/>
<path d="M0 47.6899C0.247022 47.1232 0.494043 46.5565 0.770126 46.0044C0.85731 45.8155 1.01715 45.6266 1.19152 45.5394C5.20199 43.476 9.21245 41.4272 13.2229 39.3784C13.4554 39.2621 13.6153 39.2185 13.8332 39.451C16.9428 42.5751 20.0523 45.6702 23.1764 48.7797C23.2491 48.8524 23.3218 48.9396 23.4089 49.0413C22.9585 49.3319 22.5516 49.5208 22.0285 49.5208C15.3299 49.5063 8.63123 49.4917 1.93258 49.5208C1.03168 49.5208 0.392329 49.2738 0 48.46C0 48.1985 0 47.9369 0 47.6899Z" fill="white"/>
<path d="M16.3042 37.8088C17.1906 37.3584 18.0188 36.937 18.8761 36.5011C19.6463 37.431 20.3873 38.3755 21.1574 39.2764C23.0028 41.427 26.0398 41.427 27.8852 39.2764C28.6117 38.4337 29.3237 37.5618 30.0066 36.6754C32.4333 33.5513 34.671 30.2819 36.5745 26.8091C36.6617 26.6638 36.8651 26.504 37.025 26.4894C37.6788 26.4604 38.3327 26.4749 38.9866 26.4894C39.5678 26.504 40.0037 26.78 40.2362 27.3032C41.762 30.8341 43.2877 34.3796 44.8279 37.9541C43.5492 38.6226 42.2996 39.2764 41.0354 39.9158C36.2112 42.4151 31.387 44.9143 26.5629 47.4136C26.3013 47.5444 26.1269 47.617 25.8654 47.3555C22.7558 44.2314 19.6463 41.1218 16.5222 38.0123C16.464 37.9541 16.4204 37.896 16.3042 37.7798V37.8088Z" fill="white"/>
<path d="M17.133 34.1469C12.3378 36.6026 7.5863 39.0292 2.71852 41.4994C2.80571 41.2669 2.8493 41.1216 2.90742 40.9908C4.82547 36.5154 6.75805 32.0399 8.6761 27.5645C8.99578 26.8234 9.48982 26.4601 10.289 26.4747C10.9429 26.4892 11.713 26.2858 12.2216 26.5619C12.7011 26.8234 12.89 27.5935 13.2242 28.1312C14.4157 29.9766 15.6072 31.822 16.7988 33.6674C16.9005 33.8127 17.0022 33.958 17.133 34.1469Z" fill="white"/>
<path d="M45.9297 40.6279C46.0024 40.7878 46.075 40.904 46.1332 41.0348C47.0195 43.0981 47.9059 45.1615 48.7923 47.2249C49.359 48.5617 48.7341 49.5062 47.2666 49.5062C41.338 49.5062 35.395 49.5062 29.4665 49.5062H29.0305C29.0305 49.5062 29.0015 49.4481 28.987 49.419C34.6249 46.4983 40.2482 43.5777 45.9152 40.6425L45.9297 40.6279Z" fill="white"/>
<path d="M24.4996 14.8649C23.7149 14.8649 23.0755 14.211 23.0755 13.4263C23.0755 12.6562 23.7294 12.0023 24.5141 11.9878C25.2987 11.9878 25.9672 12.6707 25.9526 13.4554C25.9381 14.24 25.2987 14.8649 24.4996 14.8503V14.8649Z" fill="white"/>
<defs>
<linearGradient id="paint0_linear_242_213" x1="11.5676" y1="19.1896" x2="37.4811" y2="19.1896" gradientUnits="userSpaceOnUse">
<stop stop-color="#47EE71"/>
<stop offset="1" stop-color="#298841"/>
</linearGradient>
</defs>
</svg>
