<svg width="51" height="52" viewBox="0 0 51 52" fill="none" xmlns="http://www.w3.org/2000/svg">
<rect x="1.00065" y="1.33366" width="49.3333" height="49.3333" rx="24.6667" stroke="white" stroke-width="1.33333"/>
<g clip-path="url(#clip0_273_787)">
<g clip-path="url(#clip1_273_787)">
<g clip-path="url(#clip2_273_787)">
<path d="M31.4222 19.4252C31.1779 19.4252 30.9391 19.4976 30.7361 19.6333C30.533 19.769 30.3746 19.9619 30.2811 20.1876C30.1877 20.4132 30.1633 20.6615 30.2109 20.9011C30.2585 21.1407 30.3761 21.3607 30.5489 21.5335C30.7217 21.7062 30.9417 21.8238 31.1813 21.8715C31.4207 21.9191 31.6691 21.8946 31.8947 21.8012C32.1205 21.7077 32.3133 21.5494 32.449 21.3463C32.5847 21.1432 32.6571 20.9044 32.6571 20.6602C32.6571 20.3326 32.5271 20.0185 32.2954 19.7869C32.0638 19.5553 31.7497 19.4252 31.4222 19.4252ZM36.1563 21.9158C36.1363 21.0619 35.9765 20.217 35.6829 19.4149C35.4213 18.7286 35.0139 18.1071 34.4891 17.5933C33.9794 17.0657 33.3566 16.661 32.6674 16.4097C31.8674 16.1073 31.0217 15.9437 30.1666 15.926C29.0757 15.8643 28.7258 15.8643 25.9264 15.8643C23.1271 15.8643 22.7772 15.8643 21.6863 15.926C20.8312 15.9437 19.9854 16.1073 19.1854 16.4097C18.4976 16.6636 17.8752 17.0679 17.3638 17.5933C16.8362 18.1029 16.4315 18.7258 16.1802 19.4149C15.8778 20.2149 15.7142 21.0607 15.6965 21.9158C15.6348 23.0067 15.6348 23.3566 15.6348 26.1559C15.6348 28.9553 15.6348 29.3051 15.6965 30.3961C15.7142 31.2511 15.8778 32.097 16.1802 32.897C16.4315 33.5861 16.8362 34.209 17.3638 34.7186C17.8752 35.2439 18.4976 35.6482 19.1854 35.9021C19.9854 36.2046 20.8312 36.3681 21.6863 36.3858C22.7772 36.4475 23.1271 36.4475 25.9264 36.4475C28.7258 36.4475 29.0757 36.4475 30.1666 36.3858C31.0217 36.3681 31.8674 36.2046 32.6674 35.9021C33.3566 35.6509 33.9794 35.2461 34.4891 34.7186C35.0163 34.2066 35.4239 33.5846 35.6829 32.897C35.9765 32.0947 36.1363 31.2501 36.1563 30.3961C36.1563 29.3051 36.2181 28.9553 36.2181 26.1559C36.2181 23.3566 36.2181 23.0067 36.1563 21.9158ZM34.3038 30.2726C34.2963 30.9259 34.1781 31.5731 33.9539 32.1869C33.7895 32.6347 33.5257 33.0394 33.1821 33.3703C32.8482 33.7106 32.4443 33.9739 31.9985 34.1422C31.3849 34.3663 30.7375 34.4846 30.0842 34.4922C29.0551 34.5437 28.6743 34.5539 25.9676 34.5539C23.2609 34.5539 22.8801 34.5539 21.8509 34.4922C21.1726 34.5049 20.4972 34.4003 19.8543 34.1834C19.4281 34.0066 19.0427 33.7438 18.7223 33.4115C18.3807 33.081 18.12 32.6759 17.9607 32.2279C17.7094 31.6055 17.5701 30.9435 17.549 30.2726C17.549 29.2434 17.4873 28.8626 17.4873 26.1559C17.4873 23.4492 17.4873 23.0684 17.549 22.0393C17.5536 21.3714 17.6755 20.7095 17.9092 20.0838C18.0904 19.6494 18.3685 19.2622 18.7223 18.9518C19.0349 18.5979 19.4214 18.3169 19.8543 18.1284C20.4817 17.9021 21.1429 17.7837 21.8098 17.7785C22.8389 17.7785 23.2197 17.7168 25.9264 17.7168C28.6331 17.7168 29.0139 17.7168 30.0431 17.7785C30.6965 17.786 31.3437 17.9043 31.9574 18.1284C32.425 18.302 32.8447 18.5842 33.1821 18.9518C33.5194 19.2679 33.7829 19.6544 33.9539 20.0838C34.1827 20.7105 34.3011 21.3721 34.3038 22.0393C34.3553 23.0684 34.3655 23.4492 34.3655 26.1559C34.3655 28.8626 34.3553 29.2434 34.3038 30.2726ZM25.9264 20.8763C24.8827 20.8783 23.8629 21.1897 22.996 21.7711C22.1292 22.3524 21.4541 23.1777 21.0561 24.1426C20.658 25.1075 20.5549 26.1688 20.7598 27.1922C20.9647 28.2157 21.4683 29.1554 22.2071 29.8927C22.9459 30.6302 23.8866 31.1321 24.9105 31.3349C25.9344 31.5378 26.9954 31.4325 27.9595 31.0326C28.9237 30.6327 29.7477 29.9561 30.3273 29.0881C30.9069 28.2201 31.2163 27.1997 31.2163 26.1559C31.2177 25.4613 31.0817 24.7734 30.8162 24.1315C30.5509 23.4897 30.161 22.9067 29.6694 22.416C29.1778 21.9253 28.5939 21.5367 27.9517 21.2725C27.3093 21.0082 26.621 20.8736 25.9264 20.8763ZM25.9264 29.583C25.2486 29.583 24.586 29.3821 24.0224 29.0055C23.4588 28.6289 23.0196 28.0937 22.7602 27.4674C22.5008 26.8412 22.4329 26.1521 22.5652 25.4873C22.6974 24.8225 23.0238 24.2119 23.5031 23.7326C23.9824 23.2533 24.593 22.9269 25.2578 22.7947C25.9226 22.6624 26.6117 22.7303 27.2379 22.9897C27.8642 23.2491 28.3994 23.6883 28.7759 24.2519C29.1525 24.8155 29.3535 25.4781 29.3535 26.1559C29.3535 26.606 29.2649 27.0516 29.0927 27.4674C28.9205 27.8832 28.6679 28.261 28.3498 28.5793C28.0315 28.8975 27.6537 29.1499 27.2379 29.3222C26.8221 29.4943 26.3765 29.583 25.9264 29.583Z" fill="white"/>
</g>
</g>
</g>
<defs>
<clipPath id="clip0_273_787">
<rect width="22.6667" height="21.3333" fill="white" transform="translate(14.334 15.333)"/>
</clipPath>
<clipPath id="clip1_273_787">
<rect width="22.6667" height="21.3333" fill="white" transform="translate(14.334 15.333)"/>
</clipPath>
<clipPath id="clip2_273_787">
<rect width="22.6667" height="21.3333" fill="white" transform="translate(14.334 15.333)"/>
</clipPath>
</defs>
</svg>
