<svg width="51" height="52" viewBox="0 0 51 52" fill="none" xmlns="http://www.w3.org/2000/svg">
<rect x="1.00065" y="1.33366" width="49.3333" height="49.3333" rx="24.6667" stroke="white" stroke-width="1.33333"/>
<g clip-path="url(#clip0_273_782)">
<g clip-path="url(#clip1_273_782)">
<g clip-path="url(#clip2_273_782)">
<path d="M35.0439 22.7278C35.0439 22.7278 34.8569 21.4034 34.2811 20.8218C33.5522 20.0564 32.7371 20.0526 32.3634 20.0076C29.6867 19.8125 25.6679 19.8125 25.6679 19.8125H25.6604C25.6604 19.8125 21.6416 19.8125 18.9649 20.0076C18.591 20.0526 17.776 20.0564 17.047 20.8218C16.4713 21.4034 16.2881 22.7278 16.2881 22.7278C16.2881 22.7278 16.0938 24.2849 16.0938 25.8383V27.2941C16.0938 28.8474 16.2844 30.4045 16.2844 30.4045C16.2844 30.4045 16.4713 31.729 17.0433 32.3105C17.7723 33.076 18.7293 33.0497 19.1555 33.1322C20.6883 33.2785 25.6641 33.3236 25.6641 33.3236C25.6641 33.3236 29.6867 33.3161 32.3634 33.1248C32.7371 33.0797 33.5522 33.076 34.2811 32.3105C34.8569 31.729 35.0439 30.4045 35.0439 30.4045C35.0439 30.4045 35.2345 28.8512 35.2345 27.2941V25.8383C35.2345 24.2849 35.0439 22.7278 35.0439 22.7278ZM23.6865 29.0613V23.6621L28.8567 26.3711L23.6865 29.0613Z" fill="white"/>
</g>
</g>
</g>
<defs>
<clipPath id="clip0_273_782">
<rect width="21.3333" height="14.6667" fill="white" transform="translate(15 18.667)"/>
</clipPath>
<clipPath id="clip1_273_782">
<rect width="21.3333" height="14.6667" fill="white" transform="translate(15 18.667)"/>
</clipPath>
<clipPath id="clip2_273_782">
<rect width="21.3333" height="14.6667" fill="white" transform="translate(15 18.667)"/>
</clipPath>
</defs>
</svg>
