<svg width="51" height="52" viewBox="0 0 51 52" fill="none" xmlns="http://www.w3.org/2000/svg">
<rect x="1.00065" y="1.33366" width="49.3333" height="49.3333" rx="24.6667" stroke="white" stroke-width="1.33333"/>
<g clip-path="url(#clip0_273_777)">
<g clip-path="url(#clip1_273_777)">
<g clip-path="url(#clip2_273_777)">
<path d="M26.902 23.1735H31.9687L31.4057 25.4253H26.902V35.5587H24.6502V25.4253H20.1465V23.1735H24.6502V21.0657C24.6502 19.0582 24.8596 18.3297 25.2514 17.5956C25.6354 16.8703 26.2285 16.2772 26.9538 15.8932C27.6879 15.5014 28.4164 15.292 30.4239 15.292C31.0117 15.292 31.5273 15.3483 31.9687 15.4609V17.5438H30.4239C28.9332 17.5438 28.4795 17.6317 28.0167 17.8794C27.6744 18.0618 27.42 18.3162 27.2376 18.6585C26.9899 19.1213 26.902 19.575 26.902 21.0657V23.1735Z" fill="white" stroke="white" stroke-width="1.06667"/>
</g>
</g>
</g>
<defs>
<clipPath id="clip0_273_777">
<rect width="14.6667" height="22.6667" fill="white" transform="translate(18.334 14.667)"/>
</clipPath>
<clipPath id="clip1_273_777">
<rect width="14.6667" height="22.6667" fill="white" transform="translate(18.334 14.667)"/>
</clipPath>
<clipPath id="clip2_273_777">
<rect width="14.6667" height="22.6667" fill="white" transform="translate(18.334 14.667)"/>
</clipPath>
</defs>
</svg>
