<svg width="20" height="24" viewBox="0 0 20 24" fill="none" xmlns="http://www.w3.org/2000/svg">
<path fill-rule="evenodd" clip-rule="evenodd" d="M6.4575 21.5837C6.38894 21.5948 6.31953 21.6005 6.25 21.6005H1.25C0.918479 21.6005 0.600537 21.4741 0.366117 21.2491C0.131696 21.0241 0 20.7189 0 20.4007C0 20.0825 0.131696 19.7773 0.366117 19.5523C0.600537 19.3273 0.918479 19.2008 1.25 19.2008H6.25C6.32083 19.2008 6.39 19.2064 6.4575 19.2176C6.71365 18.5118 7.19231 17.8999 7.82709 17.4669C8.46186 17.034 9.22128 16.8014 10 16.8014C10.7787 16.8014 11.5381 17.034 12.1729 17.4669C12.8077 17.8999 13.2863 18.5118 13.5425 19.2176C13.6111 19.2065 13.6805 19.2009 13.75 19.2008H18.75C19.0815 19.2008 19.3995 19.3273 19.6339 19.5523C19.8683 19.7773 20 20.0825 20 20.4007C20 20.7189 19.8683 21.0241 19.6339 21.2491C19.3995 21.4741 19.0815 21.6005 18.75 21.6005H13.75C13.68 21.6005 13.6108 21.5949 13.5425 21.5837C13.2863 22.2896 12.8077 22.9014 12.1729 23.3344C11.5381 23.7674 10.7787 24 10 24C9.22128 24 8.46186 23.7674 7.82709 23.3344C7.19231 22.9014 6.71365 22.2896 6.4575 21.5837ZM8.75 20.4007C8.75 20.0825 8.8817 19.7773 9.11612 19.5523C9.35054 19.3273 9.66848 19.2008 10 19.2008C10.3315 19.2008 10.6495 19.3273 10.8839 19.5523C11.1183 19.7773 11.25 20.0825 11.25 20.4007C11.25 20.7189 11.1183 21.0241 10.8839 21.2491C10.6495 21.4741 10.3315 21.6005 10 21.6005C9.66848 21.6005 9.35054 21.4741 9.11612 21.2491C8.8817 21.0241 8.75 20.7189 8.75 20.4007Z" fill="#47EE71"/>
<path d="M9.375 0.160747C9.56502 0.0554398 9.78058 0 10 0C10.2194 0 10.435 0.0554398 10.625 0.160747L16.3762 3.34869C16.3013 3.37109 16.2267 3.40109 16.1525 3.43868L10.1 6.57264L3.6825 3.3151L9.375 0.160747ZM2.45875 5.4088V11.6599C2.45876 11.8705 2.51652 12.0774 2.62623 12.2598C2.73594 12.4422 2.89373 12.5937 3.08375 12.699L8.79625 15.8641V8.62555L2.45875 5.4088ZM11.2962 15.8125L16.9163 12.699C17.1063 12.5937 17.2641 12.4422 17.3738 12.2598C17.4835 12.0774 17.5412 11.8705 17.5413 11.6599V5.4208C17.4787 5.47015 17.4113 5.51355 17.34 5.55038L11.2962 8.67954V15.8125Z" fill="#47EE71"/>
</svg>
