<svg width="31" height="22" viewBox="0 0 31 22" fill="none" xmlns="http://www.w3.org/2000/svg">
<path d="M24.9042 0.00310424C24.5291 0.0309401 24.1707 0.162236 23.8726 0.380965C23.5745 0.599694 23.3497 0.896392 23.2257 1.23484C23.1016 1.57329 23.0836 1.93884 23.1738 2.28688C23.2641 2.63492 23.4587 2.95038 23.734 3.19476C24.8112 4.2192 25.6653 5.43647 26.2472 6.77656C26.8291 8.11666 27.1272 9.55314 27.1245 11.0034C27.1265 12.4536 26.828 13.8899 26.2462 15.2299C25.6644 16.5699 24.8107 17.7872 23.734 18.8121C23.5469 18.9824 23.3974 19.1865 23.2943 19.4126C23.1912 19.6387 23.1366 19.8822 23.1336 20.1287C23.1306 20.3752 23.1794 20.6198 23.277 20.8481C23.3746 21.0764 23.5191 21.2838 23.7021 21.4581C23.885 21.6325 24.1026 21.7702 24.3422 21.8632C24.5818 21.9563 24.8384 22.0027 25.0971 21.9999C25.3558 21.997 25.6112 21.945 25.8485 21.8467C26.0858 21.7484 26.3 21.606 26.4787 21.4277C29.3741 18.6601 31 14.9115 31 11.0034C31 7.09536 29.3741 3.34672 26.4787 0.579153C26.3016 0.400754 26.089 0.257809 25.8532 0.158685C25.6175 0.0595611 25.3633 0.00625021 25.1057 0.00187287C25.0386 -0.000624291 24.9713 -0.000624291 24.9042 0.00187287V0.00310424ZM5.65147 0.0400301C5.22211 0.0942979 4.82421 0.28411 4.52132 0.579153C1.6259 3.34672 0 7.09536 0 11.0034C0 14.9115 1.6259 18.6601 4.52132 21.4277C4.69998 21.606 4.91424 21.7484 5.15149 21.8467C5.38875 21.945 5.64423 21.997 5.9029 21.9999C6.16158 22.0027 6.41824 21.9563 6.65781 21.8632C6.89738 21.7702 7.11502 21.6325 7.29794 21.4581C7.48087 21.2838 7.62538 21.0764 7.723 20.8481C7.82063 20.6198 7.86938 20.3752 7.8664 20.1287C7.86343 19.8822 7.80878 19.6387 7.70567 19.4126C7.60256 19.1865 7.45307 18.9824 7.26599 18.8121C6.18877 17.7876 5.33467 16.5704 4.75281 15.2303C4.17095 13.8902 3.8728 12.4537 3.87551 11.0034C3.87351 9.55324 4.17198 8.11695 4.7538 6.77695C5.33562 5.43695 6.18934 4.21961 7.26599 3.19476C7.55886 2.92371 7.7544 2.57142 7.8247 2.18818C7.895 1.80493 7.83646 1.41032 7.65745 1.06066C7.47843 0.710999 7.18808 0.424167 6.82785 0.241102C6.46761 0.0580367 6.0559 -0.0131354 5.65147 0.0400301ZM10.5764 4.11792C10.1516 4.16145 9.7538 4.33757 9.44493 4.61888C8.50673 5.42519 7.75626 6.40993 7.24191 7.5096C6.72757 8.60927 6.46078 9.79946 6.45873 11.0034C6.45873 13.5243 7.58243 15.8161 9.40489 17.3892C9.59317 17.5533 9.81352 17.6805 10.0534 17.7635C10.2932 17.8465 10.5479 17.8837 10.8028 17.8729C11.0578 17.8621 11.308 17.8035 11.5391 17.7006C11.7703 17.5976 11.978 17.4523 12.1502 17.2729C12.3225 17.0935 12.4559 16.8835 12.543 16.6549C12.6301 16.4263 12.6691 16.1836 12.6578 15.9407C12.6464 15.6977 12.585 15.4593 12.477 15.239C12.3689 15.0187 12.2164 14.8208 12.0282 14.6567C11.4923 14.1953 11.0644 13.6316 10.7724 13.0021C10.4804 12.3726 10.3309 11.6916 10.3336 11.0034C10.3309 10.3149 10.4805 9.63361 10.7727 9.00392C11.0649 8.37424 11.4932 7.81033 12.0294 7.34896C12.339 7.09234 12.555 6.74871 12.6465 6.36757C12.7379 5.98643 12.7001 5.58747 12.5383 5.22815C12.3766 4.86884 12.0994 4.56773 11.7465 4.3682C11.3937 4.16868 10.9848 4.08104 10.5764 4.11792ZM20.142 4.11792C19.7578 4.1381 19.3886 4.26687 19.0815 4.48781C18.7743 4.70875 18.5432 5.01185 18.4175 5.35846C18.2918 5.70507 18.2773 6.0795 18.3758 6.434C18.4743 6.78851 18.6814 7.10703 18.9706 7.34896C19.5068 7.81033 19.935 8.37424 20.2273 9.00392C20.5195 9.63361 20.6691 10.3149 20.6664 11.0034C20.6691 11.6919 20.5195 12.3732 20.2273 13.0029C19.935 13.6326 19.5068 14.1965 18.9706 14.6579C18.7547 14.8115 18.5748 15.0064 18.4424 15.23C18.31 15.4537 18.2281 15.7012 18.2017 15.9567C18.1754 16.2123 18.2053 16.4702 18.2895 16.7141C18.3737 16.958 18.5104 17.1825 18.6907 17.3733C18.8711 17.564 19.0913 17.7168 19.3371 17.8218C19.583 17.9269 19.8491 17.9819 20.1186 17.9834C20.388 17.9849 20.6548 17.9329 20.9019 17.8305C21.1491 17.7282 21.3711 17.5779 21.5538 17.3892C22.4924 16.5829 23.2432 15.598 23.7578 14.4981C24.2723 13.3982 24.5392 12.2077 24.5413 11.0034C24.5461 9.80187 24.2863 8.61271 23.7789 7.51277C23.2714 6.41282 22.5275 5.42655 21.5951 4.61765C21.4018 4.44383 21.1731 4.30977 20.9231 4.2238C20.6731 4.13783 20.4073 4.10179 20.142 4.11792ZM15.5 8.77308C15.0372 8.77332 14.5848 8.90434 14.2001 9.14956C13.8154 9.39478 13.5156 9.7432 13.3387 10.1508C13.1617 10.5583 13.1156 11.0067 13.206 11.4393C13.2965 11.8719 13.5195 12.2692 13.8468 12.5809C14.1742 12.8927 14.5912 13.105 15.0452 13.191C15.4991 13.277 15.9696 13.2327 16.3972 13.0639C16.8248 12.895 17.1902 12.6092 17.4473 12.2424C17.7045 11.8757 17.8417 11.4445 17.8417 11.0034C17.8422 10.7102 17.782 10.4198 17.6645 10.1489C17.547 9.8779 17.3745 9.6317 17.157 9.42438C16.9394 9.21706 16.6811 9.0527 16.3967 8.94073C16.1124 8.82875 15.8077 8.77259 15.5 8.77308Z" fill="#47EE71"/>
</svg>
