<svg width="20" height="20" viewBox="0 0 20 20" fill="none" xmlns="http://www.w3.org/2000/svg">
<path fill-rule="evenodd" clip-rule="evenodd" d="M2.92893 2.92893C4.8043 1.05357 7.34784 0 10 0C12.6522 0 15.1957 1.05357 17.0711 2.92893C18.9464 4.8043 20 7.34784 20 10C20 12.6522 18.9464 15.1957 17.0711 17.0711C15.1957 18.9464 12.6522 20 10 20C7.34784 20 4.8043 18.9464 2.92893 17.0711C1.05357 15.1957 0 12.6522 0 10C0 7.34784 1.05357 4.8043 2.92893 2.92893ZM11.9841 18.2652C13.4961 17.9022 14.8928 17.128 16.0104 16.0104C17.4267 14.5941 18.2916 12.7294 18.4669 10.75H14.7267C14.577 13.1674 13.7298 15.322 12.8419 16.9074C12.5565 17.4169 12.264 17.8729 11.9841 18.2652ZM14.7267 9.25H18.4669C18.2916 7.27058 17.4267 5.40591 16.0104 3.98959C14.8928 2.87202 13.4961 2.0978 11.9841 1.73479C12.264 2.1271 12.5565 2.5831 12.8419 3.09263C13.7298 4.67801 14.577 6.8326 14.7267 9.25ZM8.01587 1.73479C6.50388 2.0978 5.10716 2.87203 3.98959 3.98959C2.57328 5.40591 1.7084 7.27058 1.53313 9.25H5.27332C5.42296 6.8326 6.27021 4.67801 7.15814 3.09263C7.44352 2.5831 7.73601 2.1271 8.01587 1.73479ZM6.77662 9.25H13.2234C13.0757 7.15607 12.3346 5.25666 11.5331 3.82562C11.0863 3.02788 10.6293 2.3912 10.2648 1.96302C10.1662 1.84718 10.0773 1.75007 10 1.67112C9.92267 1.75007 9.83377 1.84718 9.73516 1.96302C9.37065 2.3912 8.91365 3.02788 8.46686 3.82562C7.66536 5.25666 6.9243 7.15607 6.77662 9.25ZM6.77662 10.75H13.2234C13.0757 12.8439 12.3346 14.7433 11.5331 16.1744C11.0863 16.9721 10.6293 17.6088 10.2648 18.037C10.1662 18.1528 10.0773 18.2499 10 18.3289C9.92267 18.2499 9.83377 18.1528 9.73516 18.037C9.37065 17.6088 8.91365 16.9721 8.46686 16.1744C7.66536 14.7433 6.9243 12.8439 6.77662 10.75ZM5.27332 10.75C5.42296 13.1674 6.27021 15.322 7.15814 16.9074C7.44352 17.4169 7.73601 17.8729 8.01587 18.2652C6.50388 17.9022 5.10716 17.128 3.98959 16.0104C2.57328 14.5941 1.7084 12.7294 1.53313 10.75H5.27332Z" fill="white"/>
</svg>
