<svg width="231" height="40" viewBox="0 0 231 40" fill="none" xmlns="http://www.w3.org/2000/svg">
<path d="M230.999 33.2042C230.296 33.724 229.424 34.1214 228.385 34.3966C227.376 34.6412 226.321 34.7635 225.22 34.7635C222.254 34.7635 219.977 34.0144 218.387 32.5163C216.797 31.0181 216.002 28.8167 216.002 25.9122V4.26538H223.156V10.2733H229.256V15.7767H223.156V25.8204C223.156 26.86 223.416 27.6702 223.936 28.2511C224.456 28.8015 225.205 29.0766 226.183 29.0766C227.284 29.0766 228.262 28.7709 229.118 28.1594L230.999 33.2042Z" fill="white"/>
<path d="M198.72 29.0307C200.004 29.0307 201.135 28.8472 202.114 28.4803C203.123 28.0829 204.055 27.4714 204.911 26.6459L208.718 30.7734C206.394 33.4334 203.001 34.7634 198.537 34.7634C195.754 34.7634 193.293 34.2283 191.153 33.1582C189.013 32.0576 187.362 30.5441 186.2 28.6179C185.038 26.6917 184.457 24.5056 184.457 22.0597C184.457 19.6443 185.023 17.4735 186.154 15.5473C187.316 13.5905 188.89 12.0771 190.878 11.007C192.896 9.9063 195.158 9.35596 197.665 9.35596C200.019 9.35596 202.16 9.86044 204.086 10.8694C206.012 11.8478 207.541 13.2848 208.672 15.1804C209.834 17.0455 210.415 19.2621 210.415 21.8304L192.162 25.3617C192.682 26.5847 193.492 27.5019 194.593 28.1134C195.724 28.7249 197.1 29.0307 198.72 29.0307ZM197.665 14.7677C195.861 14.7677 194.394 15.3486 193.262 16.5104C192.131 17.6722 191.535 19.2774 191.474 21.3259L203.49 18.9869C203.153 17.7028 202.465 16.6786 201.426 15.9142C200.386 15.1498 199.133 14.7677 197.665 14.7677Z" fill="white"/>
<path d="M168.87 29.0307C170.155 29.0307 171.286 28.8472 172.264 28.4803C173.273 28.0829 174.206 27.4714 175.062 26.6459L178.868 30.7734C176.545 33.4334 173.151 34.7634 168.687 34.7634C165.905 34.7634 163.443 34.2283 161.303 33.1582C159.163 32.0576 157.512 30.5441 156.35 28.6179C155.188 26.6917 154.607 24.5056 154.607 22.0597C154.607 19.6443 155.173 17.4735 156.304 15.5473C157.466 13.5905 159.041 12.0771 161.028 11.007C163.046 9.9063 165.309 9.35596 167.816 9.35596C170.17 9.35596 172.31 9.86044 174.236 10.8694C176.162 11.8478 177.691 13.2848 178.822 15.1804C179.984 17.0455 180.565 19.2621 180.565 21.8304L162.312 25.3617C162.832 26.5847 163.642 27.5019 164.743 28.1134C165.874 28.7249 167.25 29.0307 168.87 29.0307ZM167.816 14.7677C166.012 14.7677 164.544 15.3486 163.413 16.5104C162.282 17.6722 161.685 19.2774 161.624 21.3259L173.64 18.9869C173.304 17.7028 172.616 16.6786 171.576 15.9142C170.537 15.1498 169.283 14.7677 167.816 14.7677Z" fill="white"/>
<path d="M152.048 38.7991C150.825 39.1966 149.572 39.3953 148.288 39.3953C145.505 39.3953 143.335 38.6462 141.775 37.1481C140.216 35.6805 139.436 33.5861 139.436 30.865V10.4106C139.436 8.85133 139.054 7.67421 138.29 6.87927C137.556 6.08434 136.486 5.68687 135.08 5.68687C133.704 5.68687 132.634 6.06905 131.869 6.83341C131.135 7.59778 130.753 8.74432 130.723 10.273H136.868V15.7765H130.723V34.3964H123.568V15.7765H119.762V10.273H123.568C123.721 7.0933 124.807 4.58618 126.824 2.75171C128.842 0.917236 131.609 0 135.125 0C138.856 0 141.699 0.963099 143.656 2.8893C145.613 4.81549 146.591 7.47548 146.591 10.8693V30.4064C146.591 31.4765 146.851 32.302 147.371 32.8829C147.921 33.4333 148.685 33.7084 149.664 33.7084C150.367 33.7084 151.055 33.5556 151.727 33.2498L152.048 38.7991Z" fill="white"/>
<path d="M105.065 9.35611C108.123 9.35611 110.584 10.2733 112.449 12.1078C114.345 13.9423 115.292 16.6634 115.292 20.2712V34.3967H108.138V21.3719C108.138 19.4151 107.71 17.9628 106.854 17.015C105.998 16.0366 104.759 15.5475 103.139 15.5475C101.335 15.5475 99.8981 16.1131 98.828 17.2443C97.7579 18.345 97.2228 19.996 97.2228 22.1974V34.3967H90.0684V0.367188H97.2228V12.2913C98.1706 11.3435 99.3172 10.6249 100.662 10.1358C102.008 9.61599 103.475 9.35611 105.065 9.35611Z" fill="white"/>
<path d="M74.1589 34.7634C71.5295 34.7634 69.16 34.2283 67.0504 33.1582C64.9713 32.0576 63.3356 30.5441 62.1431 28.6179C60.9813 26.6917 60.4004 24.5056 60.4004 22.0597C60.4004 19.6137 60.9813 17.4276 62.1431 15.5014C63.3356 13.5752 64.9713 12.0771 67.0504 11.007C69.16 9.9063 71.5295 9.35596 74.1589 9.35596C76.7578 9.35596 79.0203 9.9063 80.9465 11.007C82.9033 12.0771 84.325 13.6211 85.2116 15.639L79.6624 18.62C78.3782 16.3575 76.5285 15.2263 74.1131 15.2263C72.248 15.2263 70.704 15.8378 69.481 17.0607C68.2581 18.2837 67.6466 19.95 67.6466 22.0597C67.6466 24.1693 68.2581 25.8356 69.481 27.0586C70.704 28.2816 72.248 28.8931 74.1131 28.8931C76.559 28.8931 78.4088 27.7618 79.6624 25.4993L85.2116 28.5262C84.325 30.483 82.9033 32.0117 80.9465 33.1124C79.0203 34.2131 76.7578 34.7634 74.1589 34.7634Z" fill="white"/>
<path d="M44.8138 29.0307C46.0979 29.0307 47.2292 28.8472 48.2076 28.4803C49.2165 28.0829 50.1491 27.4714 51.0052 26.6459L54.8117 30.7734C52.488 33.4334 49.0942 34.7634 44.6304 34.7634C41.8481 34.7634 39.3868 34.2283 37.2466 33.1582C35.1064 32.0576 33.4554 30.5441 32.2935 28.6179C31.1317 26.6917 30.5508 24.5056 30.5508 22.0597C30.5508 19.6443 31.1164 17.4735 32.2477 15.5473C33.4095 13.5905 34.9841 12.0771 36.9714 11.007C38.9894 9.9063 41.2519 9.35596 43.759 9.35596C46.1132 9.35596 48.2534 9.86044 50.1796 10.8694C52.1058 11.8478 53.6346 13.2848 54.7658 15.1804C55.9277 17.0455 56.5086 19.2621 56.5086 21.8304L38.2556 25.3617C38.7753 26.5847 39.5856 27.5019 40.6862 28.1134C41.8175 28.7249 43.1934 29.0307 44.8138 29.0307ZM43.759 14.7677C41.9551 14.7677 40.4875 15.3486 39.3562 16.5104C38.225 17.6722 37.6288 19.2774 37.5676 21.3259L49.5834 18.9869C49.2471 17.7028 48.5592 16.6786 47.5197 15.9142C46.4801 15.1498 45.2266 14.7677 43.759 14.7677Z" fill="white"/>
<path d="M10.273 8.34697H0V2.29321H27.9757V8.34697H17.7027V34.3965H10.273V8.34697Z" fill="white"/>
</svg>
