<svg width="21" height="17" viewBox="0 0 21 17" fill="none" xmlns="http://www.w3.org/2000/svg">
<path d="M20.9167 1.20817V5.37484L10.5 9.5415L0.083374 5.37484V1.20817C0.083374 0.931903 0.193121 0.666952 0.388471 0.471601C0.583821 0.276251 0.848774 0.166504 1.12504 0.166504H19.875C20.1513 0.166504 20.4163 0.276251 20.6116 0.471601C20.807 0.666952 20.9167 0.931903 20.9167 1.20817ZM0.083374 7.61859V15.7915C0.083374 16.0678 0.193121 16.3327 0.388471 16.5281C0.583821 16.7234 0.848774 16.8332 1.12504 16.8332H19.875C20.1513 16.8332 20.4163 16.7234 20.6116 16.5281C20.807 16.3327 20.9167 16.0678 20.9167 15.7915V7.61859L10.5 11.7853L0.083374 7.61859Z" fill="black"/>
</svg>
